<svg xmlns="http://www.w3.org/2000/svg" width="30.13" height="21.522" viewBox="0 0 30.13 21.522"><path d="M32.7,17.371q0,1.614-.017,2.522t-.143,2.3a18.6,18.6,0,0,1-.378,2.48A3.933,3.933,0,0,1,31,26.737a3.545,3.545,0,0,1-2.085.975,110.234,110.234,0,0,1-11.282.42,110.234,110.234,0,0,1-11.282-.42,3.584,3.584,0,0,1-2.093-.975,3.909,3.909,0,0,1-1.169-2.068,20.813,20.813,0,0,1-.362-2.48q-.126-1.387-.143-2.3t-.017-2.522q0-1.614.017-2.522t.143-2.3a18.6,18.6,0,0,1,.378-2.48,3.933,3.933,0,0,1,1.16-2.068,3.546,3.546,0,0,1,2.085-.975,110.233,110.233,0,0,1,11.282-.42,110.231,110.231,0,0,1,11.282.42,3.584,3.584,0,0,1,2.093.975,3.909,3.909,0,0,1,1.169,2.068,20.812,20.812,0,0,1,.362,2.48q.126,1.387.143,2.3T32.7,17.371Z" transform="translate(-2.571 -6.61)" fill="#2e2e2e"/></svg>