<svg id="b42ca91f-5526-468f-acce-b676e5cb5d0c" data-name="aea47407-a376-462e-b4b8-727143a3dd5b" xmlns="http://www.w3.org/2000/svg" viewBox="0 0 94.3 94.3"><defs><style>.e5f5b54f-ad4a-4543-b5bc-e9546e25d2fe{fill:#212121;}</style></defs><g id="ea2c0f04-784c-47b4-93f7-e8410a9f08e8" data-name="ðŸ”-Product-Icons"><g id="f27342d2-35db-40c0-9bcd-a15715a235d4" data-name="ic fluent globe 24 regular"><path id="edfce5b2-b0e4-407f-9f09-d3480c60c623" data-name="ðŸŽ¨-Color" class="e5f5b54f-ad4a-4543-b5bc-e9546e25d2fe" d="M47,.7A46.8,46.8,0,1,1,.2,47.5,46.9,46.9,0,0,1,47,.7ZM60.8,68.6H33.2C36.3,79.9,41.6,87.3,47,87.3S57.7,79.9,60.8,68.6ZM26,68.6H13.2A40,40,0,0,0,32.4,84.5a49.5,49.5,0,0,1-5.9-14.1L26,68.6Zm54.8,0H68a52.8,52.8,0,0,1-6.4,15.9A39.9,39.9,0,0,0,79.9,69.9l.9-1.3ZM24,38.1H8.3a40.8,40.8,0,0,0-1.1,9.3,38.3,38.3,0,0,0,2.6,14H24.6a89.6,89.6,0,0,1-1-14C23.6,44.3,23.7,41.2,24,38.1Zm38.9,0H31.1c-.3,3-.5,6.2-.5,9.4a87.4,87.4,0,0,0,1.1,14H62.3a87.4,87.4,0,0,0,1.1-14C63.4,44.3,63.2,41.1,62.9,38.1Zm22.8,0H70c.3,3.1.4,6.2.4,9.4a89.6,89.6,0,0,1-1,14H84.2a38.3,38.3,0,0,0,2.6-14A41.7,41.7,0,0,0,85.7,38.1ZM32.4,10.5h-.1A40.3,40.3,0,0,0,10.7,31.1H25C26.5,22.9,29,15.8,32.4,10.5ZM47,7.7h-.5c-6,.6-11.7,10-14.3,23.4H61.8C59.2,17.7,53.5,8.3,47.6,7.7Zm14.6,2.8.5.8A59.7,59.7,0,0,1,69,31.1H83.3A40,40,0,0,0,63,11.1Z"/></g></g></svg>