<svg xmlns="http://www.w3.org/2000/svg" width="21.522" height="21.522" viewBox="0 0 21.522 21.522"><path d="M11.323.563A10.761,10.761,0,1,0,22.084,11.323,10.763,10.763,0,0,0,11.323.563Zm0,4.773A1.822,1.822,0,1,1,9.5,7.158,1.822,1.822,0,0,1,11.323,5.336Zm2.43,11.021a.521.521,0,0,1-.521.521H9.414a.521.521,0,0,1-.521-.521V15.315a.521.521,0,0,1,.521-.521h.521V12.018H9.414a.521.521,0,0,1-.521-.521V10.456a.521.521,0,0,1,.521-.521h2.777a.521.521,0,0,1,.521.521v4.339h.521a.521.521,0,0,1,.521.521Z" transform="translate(-0.563 -0.563)" fill="#2e2e2e"/></svg>