<svg id="f5c487ba-e4d5-45f3-a26a-e269ab7f236e" data-name="fb53c1e0-8e03-45cb-883f-9dc02e2d8ce2" xmlns="http://www.w3.org/2000/svg" viewBox="0 0 94.3 94.3"><path d="M62.5,47.1a15.4,15.4,0,1,1-30.7,0,15.4,15.4,0,0,1,30.7,0ZM95.1,26V68.3A26.8,26.8,0,0,1,68.3,95.1H26A26.9,26.9,0,0,1-.9,68.3V26A27,27,0,0,1,26-.9H68.3A26.9,26.9,0,0,1,95.1,26ZM70.2,47.1A23.1,23.1,0,1,0,47.1,70.2,23,23,0,0,0,70.2,47.1Zm7.6-24.9a5.7,5.7,0,0,0-5.7-5.8,5.8,5.8,0,0,0-5.8,5.8,5.7,5.7,0,0,0,5.8,5.7A5.6,5.6,0,0,0,77.8,22.2Z"/></svg>