<svg fill="#e18f3c" xmlns="http://www.w3.org/2000/svg" width="37.583" height="23.638" viewBox="0 0 37.583 23.638">
  <path id="Path_372" data-name="Path 372" d="M36.154,28.256a3.282,3.282,0,0,0-3.177,3.389,3.187,3.187,0,0,0,1.241,2.421c-3.752,5.023-7.565,5.417-11.983-2.9a3.322,3.322,0,0,0,1.3-4.781,2.963,2.963,0,0,0-2.784-1.392h-.121a3.054,3.054,0,0,0-2.784,1.392,3.322,3.322,0,0,0,1.3,4.781c-4.418,8.321-8.231,7.928-11.983,2.9a3.237,3.237,0,0,0,1.241-2.421,3.3,3.3,0,0,0-3.177-3.389,3.268,3.268,0,1,0-.061,6.536,1.725,1.725,0,0,0,.393-.03L6.8,46.927a1.875,1.875,0,0,0,1.876,1.695H32.7a1.875,1.875,0,0,0,1.876-1.695l1.241-12.165a1.6,1.6,0,0,0,.393.03,3.268,3.268,0,1,0-.061-6.536Z" transform="translate(-1.9 -24.983)"  />
</svg>