<svg id="bf90c28f-96dd-42ae-b011-76e55749db46" data-name="Capa 1" xmlns="http://www.w3.org/2000/svg" viewBox="0 0 472.9 472.9">
    <path class="b880e438-d559-4ff0-aeda-08902d92300e" d="M371.4,473.1l-119-.2-128.9-.2-78.1.2A45.3,45.3,0,0,1,0,427.6c.2-38.3.1-106.3,0-178.3C-.2,169.5-.3,87,0,45.3A45.3,45.3,0,0,1,45.3,0H427.6a45.3,45.3,0,0,1,45.3,45.3V427.6a45.4,45.4,0,0,1-45.3,45.3h0Zm60.2-36.7a4.7,4.7,0,0,0,4.8-4.8V41.3a4.8,4.8,0,0,0-4.8-4.8H41.3a4.9,4.9,0,0,0-4.8,4.8V161.2H281.7L328.9,114,298.5,83.7a11.5,11.5,0,0,1-2.4-12.6A11.3,11.3,0,0,1,306.7,64h90a11.5,11.5,0,0,1,11.5,11.4v90a11.6,11.6,0,0,1-7.1,10.7,13.2,13.2,0,0,1-4.4.8,11.5,11.5,0,0,1-8.2-3.4l-30.3-30.3-46.4,46.5V436.4Z" />
</svg>