<svg xmlns="http://www.w3.org/2000/svg" viewBox="0 0 482.8 482.8"><path d="M258.9,463.1C136.7,461.5,38.3,360.2,40.2,238S140.7,19.7,261.9,19.7a221.8,221.8,0,0,1,170.7,80.4H350.8a7.9,7.9,0,0,0-7.9,7.9v3.9a7.9,7.9,0,0,0,7.9,7.9H453.6a8.8,8.8,0,0,0,8.8-8.8V8.3A7.9,7.9,0,0,0,454.5.4h-3.9a7.9,7.9,0,0,0-7.9,7.9V81.5A241.6,241.6,0,0,0,261.9,0C128.8,0,20.6,108.2,20.5,241.2S128.4,482.4,261.1,482.8c80.8.3,152.6-39.4,196.7-100.5a7.9,7.9,0,0,0-2-11l-3.3-2.2a7.9,7.9,0,0,0-10.8,1.8A221.3,221.3,0,0,1,258.9,463.1Z"/></svg>