<svg id="f5d91937-4a2a-430a-9df0-5c0a1ce4a622" data-name="aea47407-a376-462e-b4b8-727143a3dd5b" xmlns="http://www.w3.org/2000/svg" viewBox="0 0 94.3 94.3"><path d="M94.3,19.4a38.8,38.8,0,0,1-11.2,3.1,19.8,19.8,0,0,0,8.6-10.7,41.8,41.8,0,0,1-12.3,4.7A19.4,19.4,0,0,0,46.3,34.2a55.2,55.2,0,0,1-40-20.3,19.4,19.4,0,0,0,6,25.9,19.3,19.3,0,0,1-8.8-2.4v.2a19.4,19.4,0,0,0,15.6,19,17.9,17.9,0,0,1-5.1.7,22.2,22.2,0,0,1-3.7-.3A19.4,19.4,0,0,0,28.4,70.5,39.3,39.3,0,0,1,4.3,78.8a35.5,35.5,0,0,1-4.6-.3,55,55,0,0,0,29.7,8.7c35.7,0,55.3-29.6,55.3-55.2,0-.8-.1-1.7-.1-2.5A40.5,40.5,0,0,0,94.3,19.4Z"/></svg>