<svg id="a467f740-1df5-4b70-bafc-a137da87c8f3" data-name="fb53c1e0-8e03-45cb-883f-9dc02e2d8ce2" xmlns="http://www.w3.org/2000/svg" viewBox="0 0 50 50"><path d="M50,9.5a22.3,22.3,0,0,1-5.9,1.6,9.8,9.8,0,0,0,4.5-5.7,21.4,21.4,0,0,1-6.5,2.5,10.3,10.3,0,0,0-17.5,9.4A28.8,28.8,0,0,1,3.5,6.5,10.3,10.3,0,0,0,6.6,20.3,10.6,10.6,0,0,1,2,19H2a10.3,10.3,0,0,0,8.2,10.1,12.4,12.4,0,0,1-2.7.3,6.2,6.2,0,0,1-1.9-.2,10.3,10.3,0,0,0,9.6,7.2A21.3,21.3,0,0,1,2.4,40.9L0,40.7a29.1,29.1,0,0,0,15.7,4.6c18.9,0,29.2-15.6,29.2-29.2V14.8A21.3,21.3,0,0,0,50,9.5Z"/></svg>