<svg xmlns="http://www.w3.org/2000/svg" viewBox="0 0 1297.3 786.8">
    <path class="a" d="M756.1,562.2a229.7,229.7,0,0,0,27-21.3,608.3,608.3,0,0,0,44.2-46.6l-.2-.2L709,522a322.7,322.7,0,0,0,47.1,40.2" />
    <path class="a" d="M824.9,605a142.8,142.8,0,0,0,55.7-17.4,108.8,108.8,0,0,0,28.2-25.9l-10.9-18.2a355.7,355.7,0,0,1-45.6-28.1,385.4,385.4,0,0,1-58.5,70.2,292.8,292.8,0,0,0,28.9,13.7Z" />
    <path class="a" d="M840.2,705.4a138.2,138.2,0,0,0,14.1,13.5,507,507,0,0,1,55.9-100.2,182.9,182.9,0,0,1-93.7,23.5L805.4,665c11.9,13.2,22.7,27.1,34.8,40.3" />
    <path class="a" d="M832.4,750.9a272.6,272.6,0,0,1-43.9-51.3L782,713.1l-32.2-8.5a44.6,44.6,0,0,0-48.2,22.3c-7.2,13.1-15.5,29-22.1,44.1h154s2-5.6,5.6-15a52.9,52.9,0,0,1-6.6-5.1" />
    <path class="a" d="M502.9,577.9l-50,111.6a43.3,43.3,0,0,1,30,31.8c-4.9,18.3-16.2,52.6-32.5,60.5h41.3c41.3-67.6,29.5-154.6,11.2-203.9" />
    <path class="a" d="M418.6,661.1a288.1,288.1,0,0,1-27.9-32.5,272.3,272.3,0,0,1-26.6,111l-65.8-12.9a69.5,69.5,0,0,0-32.8,60.1H407l39.4-99.5c-10.3-8.9-19.7-18-27.9-26.1" />
    <path class="a" d="M1059.7,492.7c-57.7-21.8-84.3-46.8-82.7-120.2,0,0,3.1,37.5,50,65.6,20,12,43.3,21.7,64.7,33.2a337.1,337.1,0,0,1-.6-65.1,423.7,423.7,0,0,0-39.8-88.5q19-1.9,36.6-4.8-10.2-27.1-19.9-54.5a12.1,12.1,0,0,1,0-8.8,815.5,815.5,0,0,1-97.4-24.3,257.8,257.8,0,0,0-35-23.5,188.8,188.8,0,0,1-39.7,41.1A185.5,185.5,0,0,0,824,325.7a164.8,164.8,0,0,1,40.6-92.1c21-22.7,33.1-29.8,41.1-44.9A237.5,237.5,0,0,0,782,180.9l-6.6,1.1c-22,13.9-52.3,44-59.1,106.2-11,99.9-53.2,156.1-156.3,171.7,0,0,82.8-29.7,110.9-110.9,22.1-64.1,8.4-110.6,46.8-161.1-23.4,1.2-47.2,1.2-70.1.4a138.7,138.7,0,0,0-15.8,73.4c3.5,71-39.7,123-104.8,130.2a122.3,122.3,0,0,0,71.8-85c6.8-37.3,2.4-82.6,7.1-121-10.7-.9-20.9-2-30.6-3.2-4.4,83.6-45,116.4-45,116.4A229.7,229.7,0,0,0,543.7,178a99.1,99.1,0,0,1-45.1-14.4,35.8,35.8,0,0,0-6.5-7.5,98.4,98.4,0,0,0-23.2,56.5C461,289.1,372,320.3,372,320.3a211.1,211.1,0,0,0,65.7-92.1c8.6-29.2,10.6-59,22.6-83.4H397a99.9,99.9,0,0,0-15.5,93.3c9.3,37.5-27.1,61.4-27.1,61.4s16.7-15.6-5.2-73.9a99.7,99.7,0,0,1,1.4-75.3l-27.2,6.2c-26.6,34.2-14.4,72,7.1,114.9a80.7,80.7,0,0,1-8.4,89.5,199.8,199.8,0,0,0-32.3-119.7,97.4,97.4,0,0,1-17.1-72.5l-27.3,6.7-21.5,19.3a49.7,49.7,0,0,0,4.3-50.4c-38.6,26.8-170.6,78.3-170.6,78.3L52.2,248A148,148,0,0,1,0,271.7a94.8,94.8,0,0,0,47.9,46.5l8-20.8c39.4-3.6,41.5,46.5,41.5,46.5l-32.2-7.8a115.1,115.1,0,0,1,24.3,54.3l55.1-42.9,50.8,2.9c47.9-40.8,7.8-98,7.8-98,47.3,43.6,15,100.8,15,100.8a175,175,0,0,1,41.3,22.2,71.7,71.7,0,0,0,6.3-52.9c-11.5-54.1-32.2-76-12.5-112.4a112.2,112.2,0,0,0,24,85.4,114.5,114.5,0,0,1,19.1,111.4,284.7,284.7,0,0,1,24.7,27.9l27.2-64.4-21.4,84.4,18.2,33.8a233.2,233.2,0,0,0,35.3-97.4C388.2,322.5,481.9,328.8,510,235c0,0,1.7,73.4-42.1,100a113.4,113.4,0,0,0-57.8,114c3.9,27.3-15.4,70.4-30.4,99,20.5,24,36.6,53.7,58.6,75.9,7.8,7.8,15.9,15.3,24.4,22.4l31.6-79.9-17.2-81.5c12.9-4.3,38.7-47.2,38.7-47.2A263.1,263.1,0,0,1,490,486.3L504.3,555l41.7-9.4a106.3,106.3,0,0,1,55.1-46.1c41.7-14.6,77-72.9,77-72.9s-11.5,60.4-44.8,75A76.7,76.7,0,0,0,601,533.1l33.3-7.5a186.2,186.2,0,0,0,90.6-121c21.8-114.8,46.8-152.8,90.2-182.4,0,0-56.8,90-49.1,171.5,3.7,39.6-15.8,79.6-36.8,110.4l91.3-20.6a449.7,449.7,0,0,1,8.6-101.6s4.3,85.8,7.2,90.1a149.3,149.3,0,0,0,44.8,43.7,202.3,202.3,0,0,1-13.5-93.3c10.4-79.1,68.7-95.7,77-149.9a138.8,138.8,0,0,1-8.3,77c-14.3,28.8-64.3,82.4,9.4,190.3a144.2,144.2,0,0,0,23.7,2.3l27.7,19.8c5.8-1.6,11.3-3.3,16.3-5.1a238.7,238.7,0,0,0,79-46.4,131,131,0,0,0-32.7-17.7" />
    <path class="a" d="M1105.4,652.9c4.5.8,9.5,1.6,15.6,2.4a218.2,218.2,0,0,0,70.3-.3,145.6,145.6,0,0,0,5.6-30c-2.8-4.3-41.5-1.4-78.7-64.4-2.5-4.2-4.7-8.6-6.8-13a227.6,227.6,0,0,1-65.6,44l-4.4,1.9,62.1,44.4Z" />
    <path class="a" d="M1160.1,703.8a206.9,206.9,0,0,1-48.4-3.3l3.6,27.5a213.4,213.4,0,0,0-51.5-8.6c-55.6,18.6-54.4,57.3-54.4,57.3h150.3s10.1-37.2,19.7-74.7c-6.4.8-12.9,1.4-19.3,1.7" />
    <path class="a" d="M1139.8,251a193.8,193.8,0,0,1-46.3,1.6l22.2,54.9c12-2.7,23.4-5.8,34-9.3a399.3,399.3,0,0,0-9.8-47.2" />
    <path class="a" d="M1234.4,8.1A91.2,91.2,0,0,0,1161.8,7a84.8,84.8,0,0,0-20,13,15.5,15.5,0,0,0-1.4,21.9,15.7,15.7,0,0,0,17.9,4.1,78.3,78.3,0,0,1,48.5-3.5,143.5,143.5,0,0,1,27.6-34.4" />
    <path class="a" d="M1237.8,57.5a72.4,72.4,0,0,1,27,52,155,155,0,0,1,32.3,5.6v-.9a113.8,113.8,0,0,0-29.8-83.4,125.1,125.1,0,0,0-29.5,26.7" />
    <path class="a" d="M1258.8,148.3a156.3,156.3,0,0,1-19.8,37.2,279.7,279.7,0,0,1,18.8,43.6,172.8,172.8,0,0,0,34-71.2,126.3,126.3,0,0,0-33-9.6" />
    <path class="a" d="M1226.7,255.7a334.3,334.3,0,0,0-11.3-42.6,141.2,141.2,0,0,1-44.4,29.1,353.5,353.5,0,0,1,12.8,42.6,225.3,225.3,0,0,0,43.4-26.1l-.6-3" />
</svg>