<svg xmlns="http://www.w3.org/2000/svg" viewBox="0 0 470 470"><path d="M167.3,209.1a7.6,7.6,0,0,0-10.3-2.6L69.7,258.6a7.4,7.4,0,0,0,0,12.8L157,323.5a7.8,7.8,0,0,0,3.9,1,7.5,7.5,0,0,0,3.8-13.9L88.2,265l76.5-45.6a7.5,7.5,0,0,0,2.6-10.3Z"/><path d="M302.7,320.9a7.5,7.5,0,0,0,6.4,3.6,7.8,7.8,0,0,0,3.9-1l87.3-52.1a7.4,7.4,0,0,0,0-12.8L313,206.5a7.6,7.6,0,0,0-10.3,2.6,7.5,7.5,0,0,0,2.6,10.3L381.8,265l-76.5,45.6A7.5,7.5,0,0,0,302.7,320.9Z"/><path d="M263.7,208.8,193.8,312.9a7.5,7.5,0,0,0,2.1,10.4,7.8,7.8,0,0,0,4.1,1.2,7.4,7.4,0,0,0,6.3-3.3l69.9-104.1a7.5,7.5,0,1,0-12.5-8.3Z"/><path d="M462.5,22.5H7.5A7.6,7.6,0,0,0,0,30V440a7.6,7.6,0,0,0,7.5,7.5h455A7.6,7.6,0,0,0,470,440V360a7.5,7.5,0,0,0-15,0v72.5H15V97.5H455V330a7.5,7.5,0,0,0,15,0V30A7.6,7.6,0,0,0,462.5,22.5ZM15,37.5H292.5v45H15Zm292.5,45v-45H455v45Z"/><path d="M381.5,52a8,8,0,1,0,8,8A8,8,0,0,0,381.5,52Z"/><path d="M340.5,52a8,8,0,1,0,8,8A8,8,0,0,0,340.5,52Z"/><path d="M422.5,52a8,8,0,1,0,8,8A8,8,0,0,0,422.5,52Z"/></svg>