<svg id="aebd550e-2dd4-45a0-a469-eb3946b03588" data-name="Layer 1" xmlns="http://www.w3.org/2000/svg" viewBox="0 0 1623.9 1623.9">
    <defs>
        <style>.b5db91b4-fbaf-4aa3-80e4-dc8841412ec4{fill:#e18e3c;}</style>
    </defs>
    <g id="a918160b-31f1-4d84-9363-3e353a008151" data-name="Royal Bengal Tigar">
        <path id="ad016351-2a6c-41c6-8b44-cb5269c2cfdf" data-name="Path 29" class="b5db91b4-fbaf-4aa3-80e4-dc8841412ec4" d="M931.1,1000.1a263.8,263.8,0,0,0,29.4-23.3,662,662,0,0,0,48.3-50.8l-.3-.3L879.7,956.2a352.1,352.1,0,0,0,51.4,43.8" />
        <path id="f76f1633-a4b5-41c3-82c2-9aaec412c032" data-name="Path 30" class="b5db91b4-fbaf-4aa3-80e4-dc8841412ec4" d="M1006.1,1046.7a156.5,156.5,0,0,0,60.8-18.9,119.9,119.9,0,0,0,30.7-28.3l-11.9-19.9a382,382,0,0,1-49.6-30.6,429.1,429.1,0,0,1-63.8,76.6,323.8,323.8,0,0,0,31.5,14.9Z" />
        <path id="be6ef40e-7d2f-4a3a-9bd7-33b4c437a3ea" data-name="Path 31" class="b5db91b4-fbaf-4aa3-80e4-dc8841412ec4" d="M1022.8,1156.2a153.4,153.4,0,0,0,15.4,14.8,551.7,551.7,0,0,1,60.9-109.3A198.3,198.3,0,0,1,997,1087.3l-12.1,24.9c12.9,14.3,24.7,29.5,37.9,44" />
        <path id="a8b9e3b5-d3ca-43c9-9c4a-4843694599fb" data-name="Path 32" class="b5db91b4-fbaf-4aa3-80e4-dc8841412ec4" d="M1014.4,1205.8a287.3,287.3,0,0,1-47.9-55.9l-7.2,14.7-35.1-9.3a48.8,48.8,0,0,0-52.6,24.4c-7.8,14.3-16.8,31.7-24,48.1h167.9s2.2-6.2,6.1-16.3a64.8,64.8,0,0,1-7.1-5.6" />
        <path id="ea195433-dd8c-4670-add0-7e4fdabdec01" data-name="Path 33" class="b5db91b4-fbaf-4aa3-80e4-dc8841412ec4" d="M655,1017.1l-54.7,121.8a47.3,47.3,0,0,1,32.8,34.7c-5.3,19.9-17.6,57.4-35.5,65.9h45.1c45-73.7,32.2-168.5,12.3-222.4" />
        <path id="b16dc96f-0f9b-4848-899b-d871839995af" data-name="Path 34" class="b5db91b4-fbaf-4aa3-80e4-dc8841412ec4" d="M563,1108a323.6,323.6,0,0,1-30.5-35.6,295.3,295.3,0,0,1-29,121.1l-71.7-14a75.6,75.6,0,0,0-35.9,65.5H550.3l43-108.6c-11.2-9.6-21.5-19.6-30.4-28.4" />
        <path id="fd68b030-3905-4c58-9dc8-d6f4739f2f45" data-name="Path 35" class="b5db91b4-fbaf-4aa3-80e4-dc8841412ec4" d="M1262.3,924.3c-63-23.9-92-51.1-90.2-131.2,0,0,3.4,40.9,54.5,71.5,21.8,13.1,47.2,23.7,70.6,36.3a374.3,374.3,0,0,1-.7-71,460.6,460.6,0,0,0-43.4-96.6c13.9-1.3,27.1-3.1,39.9-5.2q-11.1-29.6-21.7-59.4a14.4,14.4,0,0,1,0-9.6,901,901,0,0,1-106.2-26.6,279.1,279.1,0,0,0-38.2-25.5,209.1,209.1,0,0,1-43.3,44.8,201.5,201.5,0,0,0-78.4,90.2,179.1,179.1,0,0,1,44.3-100.4c22.8-24.7,36.1-32.5,44.8-49a259.1,259.1,0,0,0-135-8.5l-7.1,1.2c-24,15.2-57.1,48-64.5,115.9-12.1,108.9-58,170.2-170.5,187.2,0,0,90.3-32.3,120.9-120.9,24.2-69.9,9.2-120.7,51.1-175.8-25.5,1.4-51.5,1.4-76.5.5a151.4,151.4,0,0,0-17.2,80c3.8,77.4-43.3,134.2-114.3,142a133.3,133.3,0,0,0,78.3-92.7c7.4-40.6,2.6-90.1,7.7-132-11.6-.9-22.8-2.1-33.3-3.4C729.1,677.2,684.8,713,684.8,713a250,250,0,0,0,14.6-132,107,107,0,0,1-49.1-15.8,37,37,0,0,0-7.2-8.1,107.7,107.7,0,0,0-25.3,61.6c-8.5,83.4-105.6,117.5-105.6,117.5a231.1,231.1,0,0,0,71.6-100.5c9.4-31.9,11.6-64.3,24.7-90.9H539.4a108.7,108.7,0,0,0-16.9,101.7c10.2,40.9-29.6,67-29.6,67s18.2-17-5.6-80.6a108.6,108.6,0,0,1,1.5-82.1l-29.7,6.7c-29,37.3-15.6,78.6,7.7,125.3a88,88,0,0,1-9.1,97.7,219,219,0,0,0-35.2-130.6,106.1,106.1,0,0,1-18.7-79.1L374,578.1l-23.4,21.1a54.1,54.1,0,0,0,4.7-55c-42.2,29.2-186.1,85.4-186.1,85.4l-5.9,27.7a160.3,160.3,0,0,1-56.9,25.8,103.2,103.2,0,0,0,52.3,50.8l8.6-22.7c43-3.9,45.3,50.7,45.3,50.7l-35.2-8.5A124.1,124.1,0,0,1,204,812.7l60.1-46.9,55.4,3.2c52.2-44.5,8.5-106.9,8.5-106.9,51.5,47.6,16.4,110,16.4,110a193.8,193.8,0,0,1,45.1,24.1,78.5,78.5,0,0,0,6.8-57.6c-12.5-59.1-35.2-82.9-13.6-122.7a122.3,122.3,0,0,0,26.1,93.2,124.8,124.8,0,0,1,20.9,121.5,324.1,324.1,0,0,1,26.9,30.5l29.6-70.2-23.3,92,19.9,36.8a254,254,0,0,0,38.5-106.2c8.5-75,110.7-68.1,141.4-170.3,0,0,1.8,80-46,109a124,124,0,0,0-63,124.3c4.2,29.9-16.8,76.9-33.1,108,22.3,26.3,39.9,58.6,63.9,82.8,8.5,8.6,17.3,16.7,26.5,24.4l34.5-87-18.7-89c14.1-4.7,42.1-51.5,42.1-51.5a278.3,278.3,0,0,1-28.1,53.1l15.6,74.9,45.5-10.3A116.5,116.5,0,0,1,762,931.6c45.5-15.9,84-79.5,84-79.5s-12.5,65.9-48.8,81.8a83.7,83.7,0,0,0-35.3,34.4l36.4-8.2a203.3,203.3,0,0,0,98.8-132c23.7-125.2,51-166.6,98.3-198.9,0,0-61.9,98.1-53.5,187.1,4,43.1-17.2,86.8-40.2,120.4l99.7-22.5a491.4,491.4,0,0,1,9.3-110.9s4.7,93.7,7.9,98.4a162.1,162.1,0,0,0,48.9,47.6,219.5,219.5,0,0,1-14.8-101.7c11.4-86.3,75-104.5,84-163.5a151.8,151.8,0,0,1-9,84c-15.7,31.3-70.2,89.8,10.2,207.5a159.9,159.9,0,0,0,25.8,2.5l30.3,21.6c6.3-1.8,12.3-3.5,17.7-5.5a261.6,261.6,0,0,0,86.2-50.7,141.4,141.4,0,0,0-35.7-19.2" />
        <path id="b28c81b1-8250-4d2e-8ba1-3d21599d00bf" data-name="Path 36" class="b5db91b4-fbaf-4aa3-80e4-dc8841412ec4" d="M1312.1,1098.9c4.9.9,10.4,1.8,17,2.7a240.7,240.7,0,0,0,76.7-.3,158.4,158.4,0,0,0,6.1-32.7c-3.1-4.7-45.2-1.6-85.8-70.3-2.7-4.6-5.1-9.3-7.4-14.1a251,251,0,0,1-71.6,47.9c-1.6.8-3.3,1.4-4.8,2.1l67.7,48.4Z" />
        <path id="b9dc9461-2278-4a17-8ad1-09faffc1f6e6" data-name="Path 37" class="b5db91b4-fbaf-4aa3-80e4-dc8841412ec4" d="M1371.8,1154.5a222.5,222.5,0,0,1-52.8-3.6l4,30a233.5,233.5,0,0,0-56.2-9.4c-60.8,20.3-59.4,62.5-59.4,62.5h163.9s11-40.5,21.5-81.4c-7,.8-14,1.5-21.1,1.8" />
        <path id="bfc51b86-582c-4299-b8e6-9bbb6e1b947d" data-name="Path 38" class="b5db91b4-fbaf-4aa3-80e4-dc8841412ec4" d="M1349.7,660.6a213.5,213.5,0,0,1-50.5,1.8c8,20,16,39.9,24.2,59.8a369.6,369.6,0,0,0,37.1-10.2,451.2,451.2,0,0,0-10.8-51.4" />
        <path id="bcb987a4-9604-4bfe-8771-3882b27c8c07" data-name="Path 39" class="b5db91b4-fbaf-4aa3-80e4-dc8841412ec4" d="M1452.9,395.6a99.8,99.8,0,0,0-79.3-1.1,91.5,91.5,0,0,0-21.8,14.1,17,17,0,0,0-1.5,24,16.9,16.9,0,0,0,19.5,4.3,87.3,87.3,0,0,1,53-3.8,152.8,152.8,0,0,1,30-37.4" />
        <path id="b1d906cb-1dd8-429b-b849-5b550654ef08" data-name="Path 40" class="b5db91b4-fbaf-4aa3-80e4-dc8841412ec4" d="M1456.5,449.5a78.5,78.5,0,0,1,29.4,56.8,162.1,162.1,0,0,1,35.3,6.1v-1a124,124,0,0,0-32.5-91,135.2,135.2,0,0,0-32.2,29.1" />
        <path id="ae41ee6c-a69c-4223-bb29-9b5eabfe2984" data-name="Path 41" class="b5db91b4-fbaf-4aa3-80e4-dc8841412ec4" d="M1479.4,548.6a167.8,167.8,0,0,1-21.6,40.5,298.3,298.3,0,0,1,20.5,47.6,188.5,188.5,0,0,0,37.1-77.7,145.6,145.6,0,0,0-36-10.4" />
        <path id="aae1afeb-a260-4ceb-ada8-b58b0b3c79b4" data-name="Path 42" class="b5db91b4-fbaf-4aa3-80e4-dc8841412ec4" d="M1444.4,665.7a341.5,341.5,0,0,0-12.4-46.4,152.8,152.8,0,0,1-48.3,31.7,394.9,394.9,0,0,1,14,46.5,249,249,0,0,0,47.2-28.5c-.2-1.1-.4-2.2-.5-3.3" />
    </g>
</svg>