<svg id="aa1c3370-abe2-46c7-bcdf-2eabefc273e4" data-name="Layer 1" xmlns="http://www.w3.org/2000/svg" xmlns:xlink="http://www.w3.org/1999/xlink" viewBox="0 0 295 295"><defs><style>.bf73484e-ec15-4a54-bbf2-07ac17b12579{fill:none;}.b1527458-dc8f-46ad-96a6-e3508a99d8f3,.bb64e4b0-4569-4c85-bc90-a289ff706b1e{fill:#2e2e2e;}.a21e3bb1-0477-42eb-8cb5-d6e57a4c975b{clip-path:url(#e7ea69a9-53de-4021-a822-03e5b3400bf6);}.bb64e4b0-4569-4c85-bc90-a289ff706b1e{stroke:#1a1718;stroke-miterlimit:10;stroke-width:2px;}</style><clipPath id="e7ea69a9-53de-4021-a822-03e5b3400bf6"><rect class="bf73484e-ec15-4a54-bbf2-07ac17b12579" y="78.6" width="295" height="137.91"/></clipPath></defs><rect class="bf73484e-ec15-4a54-bbf2-07ac17b12579" width="295" height="295.04"/><g id="b47977af-8245-4251-a9e5-88c9161a5f1a" data-name="Group 17"><g id="b34a0a01-da58-4c17-9bb2-c3e4461f8970" data-name="POP"><path class="b1527458-dc8f-46ad-96a6-e3508a99d8f3" d="M135.1,127a12.2,12.2,0,0,1-3.6,4.5,14.6,14.6,0,0,1-5.2,2.8,23.7,23.7,0,0,1-6.5.9H113v12.2h-9V106.5h16.7a21.1,21.1,0,0,1,6.6,1,15.1,15.1,0,0,1,4.9,2.9,13.9,13.9,0,0,1,3.1,4.5,16.6,16.6,0,0,1,1.1,5.8h0A14.4,14.4,0,0,1,135.1,127Zm-7.8-6.1a6,6,0,0,0-2-4.7,8.4,8.4,0,0,0-5.3-1.5h-7v12.5h7.1a7.4,7.4,0,0,0,5.3-1.7,6.4,6.4,0,0,0,1.9-4.5Z"/><path class="b1527458-dc8f-46ad-96a6-e3508a99d8f3" d="M183.1,135.2a21.9,21.9,0,0,1-4.5,6.7,19.6,19.6,0,0,1-6.9,4.5,24,24,0,0,1-17.5,0,19.2,19.2,0,0,1-6.8-4.5,18.5,18.5,0,0,1-4.5-6.6,19.4,19.4,0,0,1-1.6-8.2v-.2a20.7,20.7,0,0,1,6.1-15,21.9,21.9,0,0,1,6.9-4.4,23.1,23.1,0,0,1,17.5,0,20.4,20.4,0,0,1,6.8,4.4,18.9,18.9,0,0,1,4.5,6.7,19.4,19.4,0,0,1,1.6,8.2h0A21.2,21.2,0,0,1,183.1,135.2Zm-7.8-8.2a14.3,14.3,0,0,0-.9-5,12.9,12.9,0,0,0-6.5-6.9,13.3,13.3,0,0,0-10,0,12.1,12.1,0,0,0-3.9,2.8,15.5,15.5,0,0,0-2.5,4.1,13.3,13.3,0,0,0-.9,4.9h0a14.3,14.3,0,0,0,.9,5,13.6,13.6,0,0,0,2.6,4.1,12.1,12.1,0,0,0,3.9,2.8,14.4,14.4,0,0,0,5,1,12.4,12.4,0,0,0,5-1,12.1,12.1,0,0,0,3.9-2.8,12.8,12.8,0,0,0,2.5-4,14.3,14.3,0,0,0,.9-5Z"/><path class="b1527458-dc8f-46ad-96a6-e3508a99d8f3" d="M223.8,127a11.9,11.9,0,0,1-3.5,4.5,15.9,15.9,0,0,1-5.3,2.8,23.5,23.5,0,0,1-6.4.9h-6.9v12.2h-9V106.5h16.8a20.5,20.5,0,0,1,6.5,1,15.1,15.1,0,0,1,4.9,2.9,12.5,12.5,0,0,1,3.1,4.5,14.6,14.6,0,0,1,1.1,5.8h0A13.1,13.1,0,0,1,223.8,127Zm-7.8-6.1a5.7,5.7,0,0,0-2-4.7,8.2,8.2,0,0,0-5.3-1.5h-7v12.5h7.2a7,7,0,0,0,5.2-1.7A6.4,6.4,0,0,0,216,121Z"/></g><g id="f1bdcd1a-2ef1-4b19-a722-ef122a22c646" data-name="Group 16"><g class="a21e3bb1-0477-42eb-8cb5-d6e57a4c975b"><g id="a6906eb4-7f7a-42ae-8bee-761348bf3e08" data-name="Group 15"><g id="ae1e0a22-0e81-4092-85ad-36a98be01137" data-name="NEWS"><path class="b1527458-dc8f-46ad-96a6-e3508a99d8f3" d="M132.7,202.5l-19.8-26v26H104V161.6h8.3l19.1,25.2V161.6h8.9v40.9Z"/><path class="b1527458-dc8f-46ad-96a6-e3508a99d8f3" d="M150.2,202.5V161.6H181v8H159v8.3h19.3v8H159v8.6h22.2v8Z"/><path class="b1527458-dc8f-46ad-96a6-e3508a99d8f3" d="M234.3,202.8h-7.9L217.2,176,208,202.8h-7.9l-14-41.2h9.7l8.5,27.7,9.2-27.8h7.7l9.1,27.8,8.5-27.7h9.4Z"/><path class="b1527458-dc8f-46ad-96a6-e3508a99d8f3" d="M282.3,195.8a11.7,11.7,0,0,1-3,4,14,14,0,0,1-4.7,2.4,20.8,20.8,0,0,1-6,.9,28.2,28.2,0,0,1-9.2-1.6,24.8,24.8,0,0,1-8.2-5l5.3-6.3a31.3,31.3,0,0,0,5.8,3.6,14.1,14.1,0,0,0,6.4,1.3,7.4,7.4,0,0,0,4.4-1,3.2,3.2,0,0,0,1.5-2.8h0a3.3,3.3,0,0,0-.3-1.5,3.7,3.7,0,0,0-1.2-1.3,11.9,11.9,0,0,0-2.6-1.1l-4.2-1.3a52.2,52.2,0,0,1-5.6-1.8,13.7,13.7,0,0,1-4.3-2.3,8.9,8.9,0,0,1-2.7-3.4,11.3,11.3,0,0,1-1-5.1h0a12.5,12.5,0,0,1,1-5.1,12.7,12.7,0,0,1,3-3.9,15.3,15.3,0,0,1,4.5-2.5,19,19,0,0,1,5.8-.9,26.3,26.3,0,0,1,8.3,1.4,23.1,23.1,0,0,1,6.8,3.9l-4.7,6.8a28.6,28.6,0,0,0-5.4-3,13.1,13.1,0,0,0-5.2-1.1,7,7,0,0,0-4,1,3.3,3.3,0,0,0-1.3,2.6h0a3.3,3.3,0,0,0,.4,1.7,2.9,2.9,0,0,0,1.4,1.3,9,9,0,0,0,2.7,1.1l4.4,1.3a50.5,50.5,0,0,1,5.5,1.8,13.3,13.3,0,0,1,4.1,2.5,8.1,8.1,0,0,1,2.5,3.3,12.7,12.7,0,0,1,.9,4.7h0A14.5,14.5,0,0,1,282.3,195.8Z"/></g><path id="b80f02fb-41a6-4ea7-b300-2256d412dc8c" data-name="Path 78" class="b1527458-dc8f-46ad-96a6-e3508a99d8f3" d="M40.1,124.1h.2l-.2.2m3.7-1a.9.9,0,0,0-.4-.8H42.2l-.5.2h-.2l-.6.3h0l-.4.2h-.1l-.2.2H40l-.3.2a1.9,1.9,0,0,0-.3,1,1.4,1.4,0,0,0,.7,1h.2a6.5,6.5,0,0,1,1.5-1l1.5-.9a1.4,1.4,0,0,0,.7-1.1m-1,.9-1.3.8a6.5,6.5,0,0,0-1.5,1,1,1,0,0,1-.4-.7,1.1,1.1,0,0,1,.4-.9h.3l.6-.4h.2l.2-.2h.2l1.3-.6h.4l.2.3a.4.4,0,0,1,.1.3,1.2,1.2,0,0,1-.6.9"/><path id="efb59743-f394-446a-8b31-5f56f5d003e2" data-name="Path 79" class="bb64e4b0-4569-4c85-bc90-a289ff706b1e" d="M40.1,124.1h.2Zm3.7-1a.9.9,0,0,0-.4-.8H42.2l-.6.2h-.2l-.6.3h0l-.4.2h-.1l-.2.2h-.2c-.1.1-.2.1-.2.2a1,1,0,0,0-.3,1,1.3,1.3,0,0,0,.6,1h.2a6.5,6.5,0,0,1,1.5-1l1.5-.9a1.2,1.2,0,0,0,.7-1.1Zm-.9.9-1.3.7a5.6,5.6,0,0,0-1.5,1,.6.6,0,0,1-.4-.6,1,1,0,0,1,.4-1h.3l.5-.3h.7l1.3-.6h.3l.3.3c0,.1.1.2.1.3a1.8,1.8,0,0,1-.7.9Z"/><path id="a19ba1cf-a715-4b60-92c9-c65f17708b6f" data-name="Path 80" class="b1527458-dc8f-46ad-96a6-e3508a99d8f3" d="M43.6,120.8H42.4l-.8.2-.9.3-.3.2h-.5l-.3.3a1,1,0,0,0-.3.9,1.2,1.2,0,0,0,.4,1c0,.1.1.1.2.1h.3l.2-.2.6-.3h.7l1.2-.6h.4c.1-.1.2-.1.2-.2a1.2,1.2,0,0,0,.5-.7,1.1,1.1,0,0,0-.3-.8m-.6,1.4h-.3l-.3.2h-.2l-.6.2h-.2l-.6.3h0l-.3.2h-.5a.5.5,0,0,1-.2-.4.8.8,0,0,1,.4-1.2h0l.3-.2h.3l.5-.2h.3l.6-.2h1c.1.1.2.2.2.3v.3c0,.3-.2.5-.5.7"/><path id="f6f1465a-b28b-429e-be38-0dfb86462621" data-name="Path 81" class="bb64e4b0-4569-4c85-bc90-a289ff706b1e" d="M43.6,120.8H42.4l-.8.2-.9.3-.3.2h-.5l-.3.3a1,1,0,0,0-.3.9,1.2,1.2,0,0,0,.4,1c0,.1.1.1.2.1h.3l.2-.2.6-.3h.7l1.2-.6h.4c.1-.1.2-.1.2-.2a.9.9,0,0,0,.3-1.3c0-.1-.1-.1-.1-.2Zm-.6,1.4h-.4l-.2.2h-.2l-.6.2h-.2l-.6.3h0l-.4.2h-.1l-.2.2h0l-.3-.3a.8.8,0,0,1-.1-.4,1.1,1.1,0,0,1,.5-.9h.6l.6-.2h.2l.7-.2h.9l.2.3a.2.2,0,0,1,0,.3c0,.2-.2.3-.4.4Z"/><path id="b41a5cba-f4cb-4f34-8805-7034da6ff5b1" data-name="Path 82" class="b1527458-dc8f-46ad-96a6-e3508a99d8f3" d="M43.6,120.8H42.4l-.8.2-.9.3-.3.2h-.5l-.3.3a1,1,0,0,0-.3.9,1.2,1.2,0,0,0,.4,1c0,.1.1.1.2.1h.3l.2-.2.6-.3h.7l1.2-.6h.4c.1-.1.2-.1.2-.2a1.2,1.2,0,0,0,.5-.7,1.1,1.1,0,0,0-.3-.8m-.6,1.4h-.3l-.3.2h-.2l-.6.2h-.2l-.6.3h0l-.3.2h-.5a.5.5,0,0,1-.2-.4.8.8,0,0,1,.4-1.2h0l.3-.2h.3l.5-.2h.3l.6-.2h1c.1.1.2.2.2.3v.3c0,.3-.2.5-.5.7"/><path id="a64a483e-d725-442b-a65b-b3423db11222" data-name="Path 83" class="bb64e4b0-4569-4c85-bc90-a289ff706b1e" d="M43.6,120.8H42.4l-.8.2-.9.3-.3.2h-.5l-.3.3a1,1,0,0,0-.3.9,1.2,1.2,0,0,0,.4,1c0,.1.1.1.2.1h.3l.2-.2.6-.3h.7l1.2-.6h.4c.1-.1.2-.1.2-.2a.9.9,0,0,0,.3-1.3c0-.1-.1-.1-.1-.2Zm-.6,1.4h-.4l-.2.2h-.2l-.6.2h-.2l-.6.3h0l-.4.2h-.1l-.2.2h0l-.3-.3a.8.8,0,0,1-.1-.4,1.1,1.1,0,0,1,.5-.9h.6l.6-.2h.2l.7-.2h.9l.2.3a.2.2,0,0,1,0,.3c0,.2-.2.3-.4.4Z"/><path id="b3ef6432-4719-4524-b9a5-33e0a6f11e06" data-name="Path 84" class="b1527458-dc8f-46ad-96a6-e3508a99d8f3" d="M43.5,121.6a.6.6,0,0,1-.5.6h-.4l-.2.2h-.2l-.6.2h-.2l-.6.3h-.5l-.2.2h-.2l-.2-.3a.8.8,0,0,1-.1-.4,1.1,1.1,0,0,1,.6-1l.7-.4.6-.2h.2l.7-.2h.9c.1.1.2.2.2.3a.2.2,0,0,1,0,.3"/><path id="a075ed96-5aaf-411b-ad29-bc703c1c0a6e" data-name="Path 85" class="b1527458-dc8f-46ad-96a6-e3508a99d8f3" d="M39.8,124.3v-.2c-.2-.1-.3-.2-.3-.4a.8.8,0,0,1-.2-.5A1.3,1.3,0,0,1,40,122l.7-.4.6-.2h.2l.6-.2.5-.2h.7v.2l.3.3v.4a1.6,1.6,0,0,1-.7.9h-.9l-.3.2h-.4l-.6.3h-.5l-.2.2H40Zm3.4-3h-.4l-.4.2-.6.2h-.3l-.5.2a.9.9,0,0,0-.6.3.8.8,0,0,0-.6.8v.3h0l.2-.2h.2l.4-.2h0l.6-.2h.4l.3-.2h.8a1.2,1.2,0,0,0,.5-.5v-.2h0"/><path id="a47ec0dc-16ab-4ca3-bb77-706ee6bcc1b8" data-name="Path 86" class="b1527458-dc8f-46ad-96a6-e3508a99d8f3" d="M42.9,120.8h0m0,0h-.1m1.1-1.3v-.2H40.7l-.4.3h-.1a.5.5,0,0,0-.4.2,1.2,1.2,0,0,0-.5,1,1.7,1.7,0,0,0,.3,1l.2.2H40l.4-.3h.4l.5-.2h.3l.6-.2h1.4a1,1,0,0,0,.5-.6.8.8,0,0,0-.2-.8m-.1.7a1.2,1.2,0,0,1-.5.5h-1l-.8.2-.9.3h-.7a1.1,1.1,0,0,1-.3-.8c.1-.3.3-.7.6-.8h.7l.5-.2.4-.2,1-.2h.7a.7.7,0,0,1,.2.6m-.9.7h0"/><path id="a85b96bd-6ba8-42b0-ab50-0e62c893f632" data-name="Path 87" class="b1527458-dc8f-46ad-96a6-e3508a99d8f3" d="M39.8,122.8l-.3-.3a1.6,1.6,0,0,1-.5-1.4,1.3,1.3,0,0,1,.6-1.1l.3-.3h3.8v.2h.1a1.1,1.1,0,0,1-.1,1.5l-.3.2-.3.2h-.9l-.6.2h-.3l-.5.2h-.3l-.4.3Zm.6-2.4h-.1a.8.8,0,0,0-.5.7.6.6,0,0,0,.1.4h.5l1-.4H43c.2-.1.4-.2.4-.3V120H40.3"/><path id="b6f73fa3-6333-4e31-bef2-ac9e11e22a96" data-name="Path 88" class="b1527458-dc8f-46ad-96a6-e3508a99d8f3" d="M42.9,120.8h0m0,0h-.1m1.1-1.3v-.2H40.7l-.4.3h-.1a.5.5,0,0,0-.4.2,1.2,1.2,0,0,0-.5,1,1.7,1.7,0,0,0,.3,1l.2.2H40l.4-.3h.4l.5-.2h.3l.6-.2h1.4a1,1,0,0,0,.5-.6.8.8,0,0,0-.2-.8m-.1.7a1.2,1.2,0,0,1-.5.5h-1l-.8.2-.9.3h-.7a1.1,1.1,0,0,1-.3-.8c.1-.3.3-.7.6-.8h.7l.5-.2.4-.2,1-.2h.7a.7.7,0,0,1,.2.6m-.9.7h0"/><path id="ea015d71-7abe-48f0-adfc-df1344798a41" data-name="Path 89" class="b1527458-dc8f-46ad-96a6-e3508a99d8f3" d="M39.8,122.8l-.3-.3a1.6,1.6,0,0,1-.5-1.4,1.3,1.3,0,0,1,.6-1.1l.3-.3h3.8v.2h.1a1.1,1.1,0,0,1-.1,1.5l-.3.2-.3.2h-.9l-.6.2h-.3l-.5.2h-.3l-.4.3Zm.6-2.4h-.1a.8.8,0,0,0-.5.7.6.6,0,0,0,.1.4h.5l1-.4H43c.2-.1.4-.2.4-.3V120H40.3"/><path id="af73d94a-a198-4011-a317-0f130c061a99" data-name="Path 90" class="b1527458-dc8f-46ad-96a6-e3508a99d8f3" d="M43.8,120.1c-.1.3-.3.5-.5.5h-1l-.8.3a1.6,1.6,0,0,0-.9.3h-.8a.7.7,0,0,1-.2-.7,1.1,1.1,0,0,1,.7-1h1l.5.2h1.8a.6.6,0,0,1,.1.6"/><path id="e21f2a89-d7c5-45ad-822a-c7d91207d973" data-name="Path 91" class="b1527458-dc8f-46ad-96a6-e3508a99d8f3" d="M39.8,122.2h-.2a1.7,1.7,0,0,1-.3-1,1.4,1.4,0,0,1,.9-1.1h.1l.4-.2h3.1a.9.9,0,0,1-.1,1.3l-.4.2H41.6l-.9.3H40Zm.6-1.8h0a.9.9,0,0,0-.6.8.6.6,0,0,0,.1.4h.5l.9-.3.5-.2H43l.4-.4v-.3H40.3"/><path id="ea056b5a-f64a-4d1a-8fa4-99a7230568b9" data-name="Path 92" class="b1527458-dc8f-46ad-96a6-e3508a99d8f3" d="M40.9,119.6h0m3.6-1.3c0-.1,0-.2-.1-.2H40.5a.1.1,0,0,0-.1.1h-.2c0,.1-.1.1-.1.2h-.2c0,.2-.1.3-.1.5a1.4,1.4,0,0,0,.1,1.1l.2.2h1.4l.3-.3,1-.2h1.3l.2-.2.2-.2a1.1,1.1,0,0,0,0-.8m-.3.7c-.1.2-.4.3-.7.4H40.6l-.3.4h-.1a.5.5,0,0,1-.2-.4V119l.3-.6.5-.2h3.5v.6m-3.4.8h0"/><path id="b4d0449d-1cc6-4af0-ae51-cff529450cb7" data-name="Path 93" class="b1527458-dc8f-46ad-96a6-e3508a99d8f3" d="M39.9,120.7l-.2-.2-.2-.2a2.2,2.2,0,0,1-.2-1.4c.1-.1.1-.3.2-.4l.2-.2v-.2h.3l.4-.2h4v.5a1.4,1.4,0,0,1,0,.9l-.2.3-.3.2H40.8l-.3.2h-.4Zm1.5-2.3h-.7l-.4.2-.3.4v.5h1.6l1.2-.2h.4a.7.7,0,0,0,.6-.3v-.2H41.3v0h0Z"/><path id="a7b531b1-f207-42f7-a8c9-3ae0bd0067a9" data-name="Path 94" class="b1527458-dc8f-46ad-96a6-e3508a99d8f3" d="M40.9,119.6h0m3.6-1.3c0-.1,0-.2-.1-.2H40.5a.1.1,0,0,0-.1.1h-.2c0,.1-.1.1-.1.2h-.2c0,.2-.1.3-.1.5a1.4,1.4,0,0,0,.1,1.1l.2.2h1.4l.3-.3,1-.2h1.3l.2-.2.2-.2a1.1,1.1,0,0,0,0-.8m-.3.7c-.1.2-.4.3-.7.4H40.6l-.3.4h-.1a.5.5,0,0,1-.2-.4V119l.3-.6.5-.2h3.5v.6m-3.4.8h0"/><path id="a0292f1b-1124-4db7-914c-73ec6288ccff" data-name="Path 95" class="b1527458-dc8f-46ad-96a6-e3508a99d8f3" d="M39.9,120.7l-.2-.2-.2-.2a2.2,2.2,0,0,1-.2-1.4c.1-.1.1-.3.2-.4l.2-.2v-.2h.3l.4-.2h4v.5a1.4,1.4,0,0,1,0,.9l-.2.3-.3.2H40.8l-.3.2h-.4Zm1.5-2.3h-.7l-.4.2-.3.4v.5h1.6l1.2-.2h.4a.7.7,0,0,0,.6-.3v-.2H41.3v0h0Z"/><path id="a228e60e-f115-4c74-835a-c7d09c2e394b" data-name="Path 96" class="b1527458-dc8f-46ad-96a6-e3508a99d8f3" d="M44.2,118.9c-.1.2-.3.3-.7.4H40.6l-.3.4h-.1c-.1-.2-.2-.3-.2-.5v-.4l.3-.5.5-.3h1.7l1.4.2h.4a.6.6,0,0,1,0,.6"/><path id="b0b7d30b-8000-405a-9203-9451b47e22b7" data-name="Path 97" class="b1527458-dc8f-46ad-96a6-e3508a99d8f3" d="M39.9,120.3v-.2a1.4,1.4,0,0,1-.2-.6,1.1,1.1,0,0,1,.5-1.1.5.5,0,0,1,.5-.3h3.7a.6.6,0,0,1,0,.8,1.5,1.5,0,0,1-.9.6h-1l-.6.3H40.3Zm1.5-1.9h-.6l-.4.2c-.2.1-.3.2-.3.4v.5h3.2a.9.9,0,0,0,.6-.3v-.3H41.3v0h0Z"/><path id="a9b3ce74-f363-4143-9420-157df9d2ba39" data-name="Path 98" class="b1527458-dc8f-46ad-96a6-e3508a99d8f3" d="M41.5,117.8h0m3.8-.6V117H44.2l-.7-.3-1.4-.3h-.8l-.3.2-.4.2c-.1.2-.1.3-.2.4a1.7,1.7,0,0,0-.1,1.2h4.3a.5.5,0,0,0,.4-.3.6.6,0,0,0,.1-.7m-.3.5-.8.3H40.5c0-.2-.1-.3,0-.5a.6.6,0,0,1,.1-.4c0-.1.1-.2.2-.3s.1-.1.2-.2h2.7l.4.2h.8v.6m-3.5,0h0"/><path id="b935d015-3928-4dd5-adf4-0241d34a3e5d" data-name="Path 99" class="b1527458-dc8f-46ad-96a6-e3508a99d8f3" d="M40.3,118.7l-.2-.3v-.2a3.3,3.3,0,0,1,0-1.4l.3-.4.4-.3.4-.2h1l1.3.3.8.3h1.2v.2h0a1.2,1.2,0,0,1-.2,1,.5.5,0,0,1-.5.3H41.4v0h-.9Zm1.9-2c-.2-.1-.3-.1-.4,0h-.6c-.1,0-.2,0-.2.1l-.2.2v.5h3.4c.3,0,.5,0,.6-.2h-.3l-.4-.2h-.8l-.4-.2h-.7"/><path id="befe3b18-9c03-4e6d-aee6-d9ad0425aa10" data-name="Path 100" class="b1527458-dc8f-46ad-96a6-e3508a99d8f3" d="M41.5,117.8h0m3.8-.6V117H44.2l-.7-.3-1.4-.3h-.8l-.3.2-.4.2c-.1.2-.1.3-.2.4a1.7,1.7,0,0,0-.1,1.2h4.3a.5.5,0,0,0,.4-.3.6.6,0,0,0,.1-.7m-.3.5-.8.3H40.5c0-.2-.1-.3,0-.5a.6.6,0,0,1,.1-.4c0-.1.1-.2.2-.3s.1-.1.2-.2h2.7l.4.2h.8v.6m-3.5,0h0"/><path id="ada3b6a4-f219-463e-a290-69e2ba03122e" data-name="Path 101" class="b1527458-dc8f-46ad-96a6-e3508a99d8f3" d="M40.3,118.7l-.2-.3v-.2a3.3,3.3,0,0,1,0-1.4l.3-.4.4-.3.4-.2h1l1.3.3.8.3h1.2v.2h0a1.2,1.2,0,0,1-.2,1,.5.5,0,0,1-.5.3H41.4v0h-.9Zm1.9-2c-.2-.1-.3-.1-.4,0h-.6c-.1,0-.2,0-.2.1l-.2.2v.5h3.4c.3,0,.5,0,.6-.2h-.3l-.4-.2h-.8l-.4-.2h-.7"/><path id="b758f577-5314-4bd9-8862-6214dfa2397b" data-name="Path 102" class="b1527458-dc8f-46ad-96a6-e3508a99d8f3" d="M45,117.5c0,.1,0,.2-.1.2a1.1,1.1,0,0,1-.8.3H40.7a.9.9,0,0,1-.1-.5.6.6,0,0,1,.1-.4l.2-.3h.2l.4-.2h1.9l.4.2H45v.4"/><path id="bd309681-5094-4e06-b48d-5dd3e42ed979" data-name="Path 103" class="b1527458-dc8f-46ad-96a6-e3508a99d8f3" d="M40.5,118.3V118a.7.7,0,0,1-.1-.5.9.9,0,0,1,.1-.5l.2-.3.3-.3h4.3v.6a.6.6,0,0,1-.1.4,1.3,1.3,0,0,1-1,.3H40.6Zm1.7-1.5h-1l-.2.2v.2a.5.5,0,0,0,0,.5h3.4c.3,0,.5,0,.6-.2h0v-.2h-.3l-.4-.2h-2"/><path id="eae2755b-d2a0-45da-83c3-5d36f810f179" data-name="Path 104" class="b1527458-dc8f-46ad-96a6-e3508a99d8f3" d="M46.4,116h-.5l-.5-.3-.7-.4-.9-.3H43a1.4,1.4,0,0,0-1.4.5,1.2,1.2,0,0,0-.3,1.2v.2h2.4l.5.2h1.6l.2-.2a.9.9,0,0,0,.3-.7v-.2m-.5.7-.5.2h-.9l-.3-.2-.8-.2a3.5,3.5,0,0,0-1.4-.3h-.4a.5.5,0,0,1,0-.5.8.8,0,0,1,.7-.7h3l.3.2h.4a1.4,1.4,0,0,1-.2.6"/><path id="a6534221-825b-4500-a0b9-8c575e787c62" data-name="Path 105" class="bb64e4b0-4569-4c85-bc90-a289ff706b1e" d="M46.4,116h-.5l-.5-.3-.7-.4-.9-.3H43a1.4,1.4,0,0,0-1.4.5,1.2,1.2,0,0,0-.3,1.2v.2h2.4l.5.2h1.6l.2-.2a.9.9,0,0,0,.3-.7Zm-.5.7-.4.2H44.2l-.8-.3-1.4-.3h-.4a.3.3,0,0,1,0-.4,1,1,0,0,1,.7-.8h1.3l.3.2h1.4l.3.2H46a.5.5,0,0,1-.2.6Z"/><path id="f25235f7-f7ca-4f6c-8280-bf166c93aaa1" data-name="Path 106" class="b1527458-dc8f-46ad-96a6-e3508a99d8f3" d="M46.4,116h-.5l-.5-.3-.7-.4-.9-.3H43a1.4,1.4,0,0,0-1.4.5,1.2,1.2,0,0,0-.3,1.2v.2h2.4l.5.2h1.6l.2-.2a.9.9,0,0,0,.3-.7v-.2m-.5.7-.5.2h-.9l-.3-.2-.8-.2a3.5,3.5,0,0,0-1.4-.3h-.4a.5.5,0,0,1,0-.5.8.8,0,0,1,.7-.7h3l.3.2h.4a1.4,1.4,0,0,1-.2.6"/><path id="a6bd5de0-65d6-4cf9-b74d-25c308796a73" data-name="Path 107" class="bb64e4b0-4569-4c85-bc90-a289ff706b1e" d="M46.4,116h-.5l-.5-.3-.7-.4-.9-.3H43a1.4,1.4,0,0,0-1.4.5,1.2,1.2,0,0,0-.3,1.2v.2h2.4l.5.2h1.6l.2-.2a.9.9,0,0,0,.3-.7Zm-.5.7-.4.2H44.2l-.8-.3-1.4-.3h-.4a.3.3,0,0,1,0-.4,1,1,0,0,1,.7-.8h1.3l.3.2h1.4l.3.2H46a.5.5,0,0,1-.2.6Z"/><path id="a9be453e-7620-4698-b3af-6ce1a9929cf2" data-name="Path 108" class="b1527458-dc8f-46ad-96a6-e3508a99d8f3" d="M45.9,116.8H44.2l-.8-.3-1.4-.3h-.4a.3.3,0,0,1,0-.4,1,1,0,0,1,.7-.8h1.2l.4.2H46a1.4,1.4,0,0,1-.2.7"/><path id="e1a4c21d-c5e2-4422-bd94-b93c133e3051" data-name="Path 109" class="b1527458-dc8f-46ad-96a6-e3508a99d8f3" d="M45.3,117.1H44.1l-.7-.2a3.5,3.5,0,0,0-1.4-.3h-.6v-.8l.3-.5c.1-.2.4-.3.6-.4h1.4l.3.2h2.2v.2a1.1,1.1,0,0,1-.3.8l-.6.2h-.2M42,115.6a2.8,2.8,0,0,1,1.3.3l.8.2h1.4c.1-.1.2-.2.2-.3h0l-.3-.2h-.2l-.6-.2H42.4a.5.5,0,0,0-.5.3v.3h.3"/><path id="e2ca5a1e-967b-4bd8-9424-c9f512e1d36f" data-name="Path 110" class="b1527458-dc8f-46ad-96a6-e3508a99d8f3" d="M47.7,114.9H47l-.3-.2h-.2l-.4-.3-.8-.5h-.2l-.5-.2h-.5a1.3,1.3,0,0,0-1.5,1.2v.5h2.7l.3.2h1.1l.6-.2a1.2,1.2,0,0,0,.5-.5v-.4Zm-.3.3a.9.9,0,0,1-.3.6H45.9l-.5-.2-.7-.4-.9-.4H43c0-.2,0-.3.1-.4a.5.5,0,0,1,.2-.4,1.5,1.5,0,0,1,1.1-.2h1l.5.4.7.4h.1l.4.2h.2"/><path id="b930285d-ff41-48fd-b9aa-aa6f941db93f" data-name="Path 111" class="bb64e4b0-4569-4c85-bc90-a289ff706b1e" d="M47.7,114.9H47l-.3-.2h-.2l-.4-.3-.8-.5h-.2l-.5-.2h-.5a1.3,1.3,0,0,0-1.5,1.2v.5h2.7l.3.2h1.1l.6-.2a1.2,1.2,0,0,0,.5-.5v-.4Zm-.3.3a.9.9,0,0,1-.3.6H45.9l-.5-.2-.7-.4-.9-.4H43c0-.2,0-.3.1-.4a.5.5,0,0,1,.2-.4,1.5,1.5,0,0,1,1.1-.2h1l.5.4.7.4h.1l.4.2h.3Z"/><path id="ee2509b7-f996-4c45-b7b6-c7bf596aa3a2" data-name="Path 112" class="b1527458-dc8f-46ad-96a6-e3508a99d8f3" d="M47.7,114.9H47l-.3-.2h-.2l-.4-.3-.8-.5h-.2l-.5-.2h-.5a1.3,1.3,0,0,0-1.5,1.2v.5h2.7l.3.2h1.1l.6-.2a1.2,1.2,0,0,0,.5-.5v-.4Zm-.3.3a.9.9,0,0,1-.3.6H45.9l-.5-.2-.7-.4-.9-.4H43c0-.2,0-.3.1-.4a.5.5,0,0,1,.2-.4,1.5,1.5,0,0,1,1.1-.2h1l.5.4.7.4h.1l.4.2h.2"/><path id="aba2fc13-11b5-40d3-ae68-4dbb7dd1c012" data-name="Path 113" class="bb64e4b0-4569-4c85-bc90-a289ff706b1e" d="M47.7,114.9H47l-.3-.2h-.2l-.4-.3-.8-.5h-.2l-.5-.2h-.5a1.3,1.3,0,0,0-1.5,1.2v.5h2.7l.3.2h1.1l.6-.2a1.2,1.2,0,0,0,.5-.5v-.4Zm-.3.3a.9.9,0,0,1-.3.6H45.9l-.5-.2-.7-.4-.9-.4H43c0-.2,0-.3.1-.4a.5.5,0,0,1,.2-.4,1.5,1.5,0,0,1,1.1-.2h1l.5.4.7.4h.1l.4.2h.3Z"/><path id="fd694a7e-a34a-4100-9309-2d2cae053eb5" data-name="Path 114" class="b1527458-dc8f-46ad-96a6-e3508a99d8f3" d="M47.4,115.3a.9.9,0,0,1-.3.6H45.9l-.5-.3-.7-.3-.9-.4H43a.9.9,0,0,1,.1-.5l.2-.3a1.1,1.1,0,0,1,1.1-.2h1l.5.3.7.5h0l.3.2h.3"/><path id="f7cbc29c-a6c3-46b3-a275-2e24bf4d2f2d" data-name="Path 115" class="b1527458-dc8f-46ad-96a6-e3508a99d8f3" d="M46.6,116.1a.2.2,0,0,1-.3,0h-.5l-.5-.2-.3-.2-.4-.2-.9-.4h-1v-.2a4.3,4.3,0,0,1,.1-.5l.3-.4a1.7,1.7,0,0,1,1.4-.3h.9l.6.4h.2l.4.3h.1l.4.2h.3v.4a1,1,0,0,1-.4.7,1,1,0,0,1-.7.2Zm-.3-.5h.3c.3,0,.5-.1.5-.4h-.2l-.3-.2h0l-.5-.3h-.2l-.5-.3h-.9a1,1,0,0,0-.9.1l-.2.3H44l.9.4.4.2.3.2.5.2h.2"/><path id="b6ad2848-6e0a-4ed3-9042-37fcdb14a84e" data-name="Path 116" class="b1527458-dc8f-46ad-96a6-e3508a99d8f3" d="M45.2,113.5h.1m3.9.6h-.3l-.2-.2-1-.7h-.2l-.5-.4-.3-.2-.4-.3h-.7a1.2,1.2,0,0,0-1,.2,1.5,1.5,0,0,0-.6.9v.2h1.3l.5.4.7.4h0l.4.2h.7a1,1,0,0,0,.9-.1,1,1,0,0,0,.5-.8v-.2h0Zm-.7.8H47.4l-.3-.2h-.4l-.2-.2-.4-.3-.8-.4h-.1l-.6-.3h-.1c0-.1.1-.2.2-.4l.2-.3a1.4,1.4,0,0,1,.9-.1h.3l.2.2h.3l.4.2.4.3.4.3H48l.2.2h.1a.5.5,0,0,0,.4.2h.2a.5.5,0,0,1-.4.6m-3.2-1.5h.1"/><path id="f8bbe35c-3e0e-4485-8eb2-e551697b7d40" data-name="Path 117" class="b1527458-dc8f-46ad-96a6-e3508a99d8f3" d="M48,115.6h-.3l-.4-.2H47l-.3-.2h0l-.5-.3H46l-.6-.4H44.1v-.5a1.4,1.4,0,0,1,.7-1.1,1.3,1.3,0,0,1,1.2-.2h.9l.4.3.5.3H48l1,.7h.7v.5a1.4,1.4,0,0,1-.7,1l-.8.2m-2.5-2.3.8.5h.4l.2.2.2.2h1.3c.1,0,.2-.1.2-.3h0l-.5-.2h0v-.2H48l-.4-.3-.4-.3-.4-.2h-.7a.9.9,0,0,0-.7,0,.2.2,0,0,0-.2.2h0l.5.2h0Z"/><path id="aedd5988-625a-4555-a280-50ac5277eda3" data-name="Path 118" class="b1527458-dc8f-46ad-96a6-e3508a99d8f3" d="M45.2,113.5h.1m3.9.6h-.3l-.2-.2-1-.7h-.2l-.5-.4-.3-.2-.4-.3h-.7a1.2,1.2,0,0,0-1,.2,1.5,1.5,0,0,0-.6.9v.2h1.3l.5.4.7.4h0l.4.2h.7a1,1,0,0,0,.9-.1,1,1,0,0,0,.5-.8v-.2h0Zm-.7.8H47.4l-.3-.2h-.4l-.2-.2-.4-.3-.8-.4h-.1l-.6-.3h-.1c0-.1.1-.2.2-.4l.2-.3a1.4,1.4,0,0,1,.9-.1h.3l.2.2h.3l.4.2.4.3.4.3H48l.2.2h.1a.5.5,0,0,0,.4.2h.2a.5.5,0,0,1-.4.6m-3.2-1.5h.1"/><path id="e153ad9b-bfda-4327-8f0e-3118a61b57b7" data-name="Path 119" class="b1527458-dc8f-46ad-96a6-e3508a99d8f3" d="M48,115.6h-.3l-.4-.2H47l-.3-.2h0l-.5-.3H46l-.6-.4H44.1v-.5a1.4,1.4,0,0,1,.7-1.1,1.3,1.3,0,0,1,1.2-.2h.9l.4.3.5.3H48l1,.7h.7v.5a1.4,1.4,0,0,1-.7,1l-.8.2m-2.5-2.3.8.5h.4l.2.2.2.2h1.3c.1,0,.2-.1.2-.3h0l-.5-.2h0v-.2H48l-.4-.3-.4-.3-.4-.2h-.7a.9.9,0,0,0-.7,0,.2.2,0,0,0-.2.2h0l.5.2h0Z"/><path id="b5f9dd0a-596f-43af-9aa6-8af50ff8cfd8" data-name="Path 120" class="b1527458-dc8f-46ad-96a6-e3508a99d8f3" d="M48.9,114.3c-.1.2-.2.5-.4.6H47.4l-.3-.2H47l-.3-.2h-.2l-.4-.3-.8-.4h-.2l-.5-.3h-.1a.8.8,0,0,1,.1-.4l.3-.3a1.3,1.3,0,0,1,.9-.1h.3l.2.2h.3l.4.2.4.3.4.3h.1l.2.2h0l.4.2h.2"/><path id="b030d730-9e57-41ad-bcd6-2f33edc0e9c0" data-name="Path 121" class="b1527458-dc8f-46ad-96a6-e3508a99d8f3" d="M48,115.3h-.4l-.3-.2h-.5l-.2-.2-.3-.2h-.1l-.3-.2-.7-.5H45l-.5-.2h-.3v-.2a.7.7,0,0,1,.1-.5.8.8,0,0,1,.4-.4,1.4,1.4,0,0,1,1.1-.1h.8l.4.3.4.3.4.3h.3l.4.3h.4a1,1,0,0,1-1.1.9M44.5,113l.5.2h.2l.8.5.3.2h.3l.3.2h1.2l.3-.2h-.1l-.5-.3h-.1l-.2-.2-.4-.2-.4-.3-.4-.3h-.7a.9.9,0,0,0-.7,0c-.1,0-.1.1-.2.2h0"/><path id="f22f7406-7b66-469a-8450-fb596bc314d3" data-name="Path 122" class="b1527458-dc8f-46ad-96a6-e3508a99d8f3" d="M47.6,113h0m3,.1h-.5c-.1-.1-.2-.1-.2-.2l-.6-.5-.2-.2-.3-.3-.6-.3h-.1l-.3-.2h-.5a1,1,0,0,0-.9.1c-.3.2-.6.5-.6.8v.2h.4l.2.2h.3l.4.2.4.3.4.3H48l.2.2h.1l.5.2h.4a1.1,1.1,0,0,0,1-.1,1.2,1.2,0,0,0,.6-.8v-.2h-.2Zm-.2.3a.8.8,0,0,1-1,.7h-.7l-1-.7h-.3l-.4-.3-.4-.2-.3-.3H46a1.2,1.2,0,0,1,.5-.7h1.6l.8.6.2.2.4.3h.1l.7.3h.1m-2.9-.3h.1v-.2"/><path id="e092d380-f49d-4737-9966-9123633ac4b3" data-name="Path 123" class="b1527458-dc8f-46ad-96a6-e3508a99d8f3" d="M49.4,114.7h-.9l-.5-.3h-.3l-.4-.3-.4-.3-.4-.3h-1v-.5a1.4,1.4,0,0,1,.7-1,1.5,1.5,0,0,1,1.1-.2l.4.2h.1l.4.2h.1l.5.3.4.3h.1l.7.5h.1l.3.2H51v.5a1.8,1.8,0,0,1-.7,1l-.8.2M47.8,113l1,.6h1c.2,0,.2-.1.3-.2l-.7-.4h-.1l-.2-.3h-.3l-.8-.5-.2-.2H46.6l-.2.3h.1l.3.2.3.2.5.4h.2"/><path id="f1497ee0-88cb-40f4-830c-698413d1b3ff" data-name="Path 124" class="b1527458-dc8f-46ad-96a6-e3508a99d8f3" d="M47.6,113h0m3,.1h-.5c-.1-.1-.2-.1-.2-.2l-.6-.5-.2-.2-.3-.3-.6-.3h-.1l-.3-.2h-.5a1,1,0,0,0-.9.1c-.3.2-.6.5-.6.8v.2h.4l.2.2h.3l.4.2.4.3.4.3H48l.2.2h.1l.5.2h.4a1.1,1.1,0,0,0,1-.1,1.2,1.2,0,0,0,.6-.8v-.2h-.2Zm-.2.3a.8.8,0,0,1-1,.7h-.7l-1-.7h-.3l-.4-.3-.4-.2-.3-.3H46a1.2,1.2,0,0,1,.5-.7h1.6l.8.6.2.2.4.3h.1l.7.3h.1m-2.9-.3h.1v-.2"/><path id="e4170e14-3fdc-4e94-b7ee-417fc42eb5b7" data-name="Path 125" class="b1527458-dc8f-46ad-96a6-e3508a99d8f3" d="M49.4,114.7h-.9l-.5-.3h-.3l-.4-.3-.4-.3-.4-.3h-1v-.5a1.4,1.4,0,0,1,.7-1,1.5,1.5,0,0,1,1.1-.2l.4.2h.1l.4.2h.1l.5.3.4.3h.1l.7.5h.1l.3.2H51v.5a1.8,1.8,0,0,1-.7,1l-.8.2M47.8,113l1,.6h1c.2,0,.2-.1.3-.2l-.7-.4h-.1l-.2-.3h-.3l-.8-.5-.2-.2H46.6l-.2.3h.1l.3.2.3.2.5.4h.2"/><path id="fdc8018e-95cd-47a1-b9df-9001157a3f3f" data-name="Path 126" class="b1527458-dc8f-46ad-96a6-e3508a99d8f3" d="M50.4,113.4a.8.8,0,0,1-1,.7h-.7l-1-.7h-.3l-.4-.3-.4-.2-.3-.3H46a1,1,0,0,1,.4-.7.9.9,0,0,1,1,0H48l.8.6.2.2.5.4.7.4h0"/><path id="a8a85f26-edcb-4fbf-b0ee-f5944c930ac2" data-name="Path 127" class="b1527458-dc8f-46ad-96a6-e3508a99d8f3" d="M49.5,114.4h-.7l-.3-.2-1-.7h-.1L47,113l-.4-.2-.2-.2H46v-.2a1,1,0,0,1,.5-.8,1.3,1.3,0,0,1,1.2,0h.5l.2.2.8.6h.1l.5.4.7.3h.2v.2a1.6,1.6,0,0,1-.5.8.8.8,0,0,1-.7.1M46.3,112h.4l.4.3.4.3h.3l.9.7h.4a.9.9,0,0,0,.7,0c.1,0,.2-.1.2-.3l-.6-.3-.6-.5h-.1l-.8-.5-.2-.2h-.4a1.1,1.1,0,0,0-.8,0l-.2.3Z"/><path id="a61f1163-8f5c-4cad-b707-003f3783fb7f" data-name="Path 128" class="b1527458-dc8f-46ad-96a6-e3508a99d8f3" d="M49.1,112.1l-.4-.3.4.3.2.2-.2-.2m3.2,0h-.4l-1.2-.8-.8-.5h-.7l-.4-.2a1.4,1.4,0,0,0-.9.1,1,1,0,0,0-.5.8v.2H48l.2.2.8.6h.2l.2.2h.4l.6.4h.4a1.2,1.2,0,0,0,1-.2c.3-.1.5-.5.6-.8v-.2Zm-.7,1a.9.9,0,0,1-1,0h-.2l-.3-.2H50a1.8,1.8,0,0,1-.7-.5h-.2l-.3-.3-.6-.4h-.1l-.3-.2h-.1c0-.2.2-.4.4-.6h1.2l.7.4.4.3.8.5h0l.7.3h0a.8.8,0,0,1-.4.7m-2.4-.9-.4-.3.4.3.2.2-.2-.2"/><path id="f07b77fb-0444-4dd1-af7d-4ec415a24990" data-name="Path 129" class="b1527458-dc8f-46ad-96a6-e3508a99d8f3" d="M50.9,113.8h-.2l-.4-.2h0l-.7-.4h-.3l-.2-.2H49l-.8-.5-.2-.2h-.5l-.3-.2v-.3a1.6,1.6,0,0,1,.7-1.1,1.1,1.1,0,0,1,1.1-.1h1l.7.5h.1l1.2.7h.7v.6a1.4,1.4,0,0,1-.7,1,1,1,0,0,1-.9.2m-1.5-1.7h0l.6.5h.2l.3.2h.9l.3-.4-.6-.2h-.1l-.7-.5h0l-.4-.3-.7-.5h-.8l-.2.3.4.2h.1l.5.4.4.3H50"/><path id="e44220b6-8f0e-41ac-9cf0-6242b97d1ff7" data-name="Path 130" class="b1527458-dc8f-46ad-96a6-e3508a99d8f3" d="M49.1,112.1l-.4-.3.4.3.2.2-.2-.2m3.2,0h-.4l-1.2-.8-.8-.5h-.7l-.4-.2a1.4,1.4,0,0,0-.9.1,1,1,0,0,0-.5.8v.2H48l.2.2.8.6h.2l.2.2h.4l.6.4h.4a1.2,1.2,0,0,0,1-.2c.3-.1.5-.5.6-.8v-.2Zm-.7,1a.9.9,0,0,1-1,0h-.2l-.3-.2H50a1.8,1.8,0,0,1-.7-.5h-.2l-.3-.3-.6-.4h-.1l-.3-.2h-.1c0-.2.2-.4.4-.6h1.2l.7.4.4.3.8.5h0l.7.3h0a.8.8,0,0,1-.4.7m-2.4-.9-.4-.3.4.3.2.2-.2-.2"/><path id="f631b4a0-f573-48ec-827c-0e1aed2b8226" data-name="Path 131" class="b1527458-dc8f-46ad-96a6-e3508a99d8f3" d="M50.9,113.8h-.2l-.4-.2h0l-.7-.4h-.3l-.2-.2H49l-.8-.5-.2-.2h-.5l-.3-.2v-.3a1.6,1.6,0,0,1,.7-1.1,1.1,1.1,0,0,1,1.1-.1h1l.7.5h.1l1.2.7h.7v.6a1.4,1.4,0,0,1-.7,1,1,1,0,0,1-.9.2m-1.5-1.7h0l.6.5h.2l.3.2h.9l.3-.4-.6-.2h-.1l-.7-.5h0l-.4-.3-.7-.5h-.8l-.2.3.4.2h.1l.5.4.4.3H50"/><path id="ea352f66-aa00-4586-8451-e393dfcabcbb" data-name="Path 132" class="b1527458-dc8f-46ad-96a6-e3508a99d8f3" d="M52,112.4a1.2,1.2,0,0,1-.5.7,1.7,1.7,0,0,1-1,0h-.1l-.3-.2h-.2l-.6-.5-.2-.2-.3-.3-.6-.3h-.1l-.3-.2h-.1a1,1,0,0,1,.4-.7,1.4,1.4,0,0,1,1.1.1h.1l.7.4.4.3.8.5h.1l.6.3h0"/><path id="adaa57cb-da5c-4d92-9eee-09b22d59e440" data-name="Path 133" class="b1527458-dc8f-46ad-96a6-e3508a99d8f3" d="M50.9,113.4h-.6l-.4-.2h-.1l-.7-.5h-.2l-.4-.3-.5-.4h-.7v-.2a1,1,0,0,1,.5-.8,1.2,1.2,0,0,1,1.3.1h.2l.8.5.3.3h0l.8.5h.1l.6.2h.4v.2a1,1,0,0,1-.5.8l-.7.2M47.8,111l.4.2h.1l.5.4.4.3h.2l.6.5h.6a.6.6,0,0,0,.8,0c.1,0,.2-.2.2-.3l-.5-.2H51l-.7-.6h0l-.4-.2-.7-.5H49c-.4-.2-.6-.2-.8-.1s-.2.2-.3.3"/><path id="a6e37366-2bd3-4bb0-9c7e-3a7b31f8a780" data-name="Path 134" class="b1527458-dc8f-46ad-96a6-e3508a99d8f3" d="M51.9,112h0m2-1h-.6l-.4-.2h-.2l-.5-.3-.8-.5h-.3l-.4-.2h-.4a1,1,0,0,0-.9.1,1.8,1.8,0,0,0-.5.7v.4h.4l.7.4.4.3.8.5h.1l.6.3h.4a1.3,1.3,0,0,0,1.5-.8c.1-.1.1-.3.2-.4V111m-.5.6-.3.3a1,1,0,0,1-.9.1h-.4l-1.2-.7-.8-.6h-.3l-.2-.2h-.3l.4-.6h1.2l.4.2.8.5.8.5h.9a.5.5,0,0,1-.2.4m-1.5.4h0"/><path id="b83773f1-267a-401b-947c-29675ea7215c" data-name="Path 135" class="b1527458-dc8f-46ad-96a6-e3508a99d8f3" d="M52.3,112.7h-.5l-.6-.3h-.1l-.8-.5h0l-.4-.2a1.8,1.8,0,0,0-.7-.5h-.4l-.3-.2v-.5a1.5,1.5,0,0,1,.6-.9,1.4,1.4,0,0,1,1.1-.2l.4.2.4.2h.3l.5.2.4.3.5.2h.1l.4.2h.9v.6c0,.2-.1.3-.1.5a1,1,0,0,1-.5.6,1.1,1.1,0,0,1-1.1.3m-.1-.8a.9.9,0,0,0,.7-.1c.1-.1.2-.2.2-.3h-.6l-.8-.5-.4-.2-.4-.3-.4-.2h-.9c-.1.1-.2.2-.2.3h.4l.7.5h.1a4.1,4.1,0,0,0,1.1.7h.4"/><path id="ea508110-d784-41c8-a5c0-154f1f63df21" data-name="Path 136" class="b1527458-dc8f-46ad-96a6-e3508a99d8f3" d="M51.9,112h0m2-1h-.6l-.4-.2h-.2l-.5-.3-.8-.5h-.3l-.4-.2h-.4a1,1,0,0,0-.9.1,1.8,1.8,0,0,0-.5.7v.4h.4l.7.4.4.3.8.5h.1l.6.3h.4a1.3,1.3,0,0,0,1.5-.8c.1-.1.1-.3.2-.4V111m-.5.6-.3.3a1,1,0,0,1-.9.1h-.4l-1.2-.7-.8-.6h-.3l-.2-.2h-.3l.4-.6h1.2l.4.2.8.5.8.5h.9a.5.5,0,0,1-.2.4m-1.5.4h0"/><path id="bedd1ad4-6fcc-4fdb-bf12-389b4a32a9ab" data-name="Path 137" class="b1527458-dc8f-46ad-96a6-e3508a99d8f3" d="M52.3,112.7h-.5l-.6-.3h-.1l-.8-.5h0l-.4-.2a1.8,1.8,0,0,0-.7-.5h-.4l-.3-.2v-.5a1.5,1.5,0,0,1,.6-.9,1.4,1.4,0,0,1,1.1-.2l.4.2.4.2h.3l.5.2.4.3.5.2h.1l.4.2h.9v.6c0,.2-.1.3-.1.5a1,1,0,0,1-.5.6,1.1,1.1,0,0,1-1.1.3m-.1-.8a.9.9,0,0,0,.7-.1c.1-.1.2-.2.2-.3h-.6l-.8-.5-.4-.2-.4-.3-.4-.2h-.9c-.1.1-.2.2-.2.3h.4l.7.5h.1a4.1,4.1,0,0,0,1.1.7h.4"/><path id="ec877c43-48a3-469c-ad12-d0f6028ef766" data-name="Path 138" class="b1527458-dc8f-46ad-96a6-e3508a99d8f3" d="M53.5,111.2c0,.2,0,.3-.1.4s-.2.3-.3.3a.8.8,0,0,1-.9.2h-.4l-1.2-.7-.8-.6h-.7a.9.9,0,0,1,.3-.6h1.2l.4.2.8.5.8.4h.2l.4.2h.3"/><path id="fa087440-eeac-4e3f-9389-3f40ff6b43cf" data-name="Path 139" class="b1527458-dc8f-46ad-96a6-e3508a99d8f3" d="M52.4,112.4h-.7l-1.2-.8h-.1l-.7-.4h-.6v-.2a.9.9,0,0,1,1.1-.9H51l.3.2.5.3.4.2.8.4h.1l.4.2H54v.2c0,.2-.1.3-.1.5s-.2.3-.4.4a1.1,1.1,0,0,1-.8.2m-.5-.6h.3a.6.6,0,0,0,.7-.1.2.2,0,0,0,.2-.2h-.1l-.4-.2h-.2l-.8-.4-.3-.3-.5-.2-.4-.2h-.6a.2.2,0,0,0-.3,0l-.3.2h.1l.3.2H50l.7.4h.1l1.2.7h.2Z"/><path id="a5e65546-caa9-4093-9c99-25e0f36512f3" data-name="Path 140" class="b1527458-dc8f-46ad-96a6-e3508a99d8f3" d="M55.3,109.8v-.3H53.8l-.4-.2-.4-.2h-.5l-.4-.2H50.6a1.1,1.1,0,0,0-.3.8c-.1.1-.1.1,0,.2h.2l.3.2h.3l.9.6.8.4h1.8l.4-.3.2-.2v-.2h0v-.4h0m-.4.5-.3.3a.8.8,0,0,1-.9.3H52.5l-.6-.3-.8-.5h-.3l-.4-.2h0a.9.9,0,0,1,.3-.6h1.5l.9.4.8.3h.9v.5"/><path id="bb5f57f6-e04b-45b9-9251-75c88efaa59a" data-name="Path 141" class="bb64e4b0-4569-4c85-bc90-a289ff706b1e" d="M55.3,109.8v-.3H53.8l-.4-.2-.4-.2h-.5l-.4-.2H50.6a1.1,1.1,0,0,0-.3.8c-.1.1-.1.1,0,.2h.2l.3.2h.3l.9.6.8.4h1.8l.4-.3.2-.2v-.2h0v-.4Zm-.4.4-.2.4a1.7,1.7,0,0,1-1,.3h-.5l-.4-.2h-.2l-.5-.3-.8-.4H51l-.4-.2h0a.4.4,0,0,1,.2-.6l.5-.2H52l.3.2h0l.9.4.9.3H55v.4Z"/><path id="b8b07f49-8732-40cc-813a-5269dc35e25a" data-name="Path 142" class="b1527458-dc8f-46ad-96a6-e3508a99d8f3" d="M55.3,109.8v-.3H53.8l-.4-.2-.4-.2h-.5l-.4-.2H50.6a1.1,1.1,0,0,0-.3.8c-.1.1-.1.1,0,.2h.2l.3.2h.3l.9.6.8.4h1.8l.4-.3.2-.2v-.2h0v-.4h0m-.4.5-.3.3a.8.8,0,0,1-.9.3H52.5l-.6-.3-.8-.5h-.3l-.4-.2h0a.9.9,0,0,1,.3-.6h1.5l.9.4.8.3h.9v.5"/><path id="a2dc378b-34aa-4bf9-9f33-9f8b7b9a8bfc" data-name="Path 143" class="bb64e4b0-4569-4c85-bc90-a289ff706b1e" d="M55.3,109.8v-.3H53.8l-.4-.2-.4-.2h-.5l-.4-.2H50.6a1.1,1.1,0,0,0-.3.8c-.1.1-.1.1,0,.2h.2l.3.2h.3l.9.6.8.4h1.8l.4-.3.2-.2v-.2h0v-.4Zm-.4.4-.2.4a1.7,1.7,0,0,1-1,.3h-.5l-.4-.2h-.2l-.5-.3-.8-.4H51l-.4-.2h0a.4.4,0,0,1,.2-.6l.5-.2H52l.3.2h0l.9.4.9.3H55v.4Z"/><path id="e2827210-d61c-479c-a429-3e83802469fb" data-name="Path 144" class="b1527458-dc8f-46ad-96a6-e3508a99d8f3" d="M54.9,110.2l-.2.4a1.7,1.7,0,0,1-1,.3h-.5l-.4-.2h-.2l-.5-.3-.8-.5H51l-.4-.2h0a1.1,1.1,0,0,1,.2-.6l.5-.2H52l.3.2h0l.9.4.9.3H55a.6.6,0,0,1-.1.4"/><path id="a3017e8d-cc25-4e33-8ab3-01bf0d428abe" data-name="Path 145" class="b1527458-dc8f-46ad-96a6-e3508a99d8f3" d="M53.8,111.1H52.6l-.5-.3-.4-.2-.5-.3H51l-.4-.2h-.2v-.5a.9.9,0,0,1,.4-.8l.6-.2h.8l.3.2h.4l.5.2a1.6,1.6,0,0,0,.9.3l.3.2h.7v.7l-.3.4a1.2,1.2,0,0,1-1.1.4m-3-1.9.3.2h.3l.5.2.4.2.5.3H53l.4.2h.2v0h.2a.9.9,0,0,0,.7-.3.2.2,0,0,0,.2-.2v-.2H54l-.9-.3-.5-.2-.4-.2v0H50.9c-.1,0-.2.1-.2.3"/><path id="b9e2e7c8-a92b-43c4-8e63-13ae0c072e50" data-name="Path 146" class="b1527458-dc8f-46ad-96a6-e3508a99d8f3" d="M54.6,109.4h0m-.9-.2h0m2.8-1.1h0v-.4H53.6l-.8-.2h-.9a.2.2,0,0,0-.2.2,1.1,1.1,0,0,0-.3.8h0v.2h.9l.9.4.8.3h1.6l.4-.2c0-.1.1-.1.1-.2h.2a1.8,1.8,0,0,0,.2-1m-.3.4v.2c-.1.1-.1.1-.1.2a1.4,1.4,0,0,1-1,.5h-.9l-.4.2h-.1l-.4-.2-.5-.2-.4-.2h-.8a1.1,1.1,0,0,1,.2-.6l.4-.2h1.2l.9.2h1.9v.5m-2.5.6h0m.9.2h0"/><path id="a0f14c2e-96a7-4f25-ad9b-e00834154ef0" data-name="Path 147" class="b1527458-dc8f-46ad-96a6-e3508a99d8f3" d="M54.7,110h-.8l-.8-.3-.6-.2-.3-.2v0l-.4-.2h-.6v-.5a1,1,0,0,1,.3-.9l.3-.2h4.8v1.2a1.1,1.1,0,0,1-.3.7.3.3,0,0,1-.1.2c-.1.1-.2.1-.2.2l-.4.3h-1m0-.9h.8l.4-.3v-.2h0v-.2h-4a.4.4,0,0,0-.1.3h1.1l.4.2.4.2h.9Z"/><path id="e5d791f5-9bf6-42e9-8a67-968f49b50f76" data-name="Path 148" class="b1527458-dc8f-46ad-96a6-e3508a99d8f3" d="M54.6,109.4h0m-.9-.2h0m2.8-1.1h0v-.4H53.6l-.8-.2h-.9a.2.2,0,0,0-.2.2,1.1,1.1,0,0,0-.3.8h0v.2h.9l.9.4.8.3h1.6l.4-.2c0-.1.1-.1.1-.2h.2a1.8,1.8,0,0,0,.2-1m-.3.4v.2c-.1.1-.1.1-.1.2a1.4,1.4,0,0,1-1,.5h-.9l-.4.2h-.1l-.4-.2-.5-.2-.4-.2h-.8a1.1,1.1,0,0,1,.2-.6l.4-.2h1.2l.9.2h1.9v.5m-2.5.6h0m.9.2h0"/><path id="f9874b5c-92c7-4f12-9bbd-bed7bcfb2189" data-name="Path 149" class="b1527458-dc8f-46ad-96a6-e3508a99d8f3" d="M54.7,110h-.8l-.8-.3-.6-.2-.3-.2v0l-.4-.2h-.6v-.5a1,1,0,0,1,.3-.9l.3-.2h4.8v1.2a1.1,1.1,0,0,1-.3.7.3.3,0,0,1-.1.2c-.1.1-.2.1-.2.2l-.4.3h-1m0-.9h.8l.4-.3v-.2h0v-.2h-4a.4.4,0,0,0-.1.3h1.1l.4.2.4.2h.9Z"/><path id="aabbf18c-4c7c-4995-b99b-ab28f4285a4b" data-name="Path 150" class="b1527458-dc8f-46ad-96a6-e3508a99d8f3" d="M56.2,108.5v.2l-.2.2a.7.7,0,0,1-.5.4c-.1.1-.2.1-.4,0H53.7l-.4-.2-.5-.2h-.4l-.4-.2h-.4a1.1,1.1,0,0,1,.2-.6.4.4,0,0,1,.4-.2h1.2l.9.2h1.9v.5"/><path id="b00d1cf3-07b0-496f-81b4-1c9c4f66630d" data-name="Path 151" class="b1527458-dc8f-46ad-96a6-e3508a99d8f3" d="M54.8,109.7H53.6l-.4-.2-.4-.2h-.5l-.4-.2h-.5a.8.8,0,0,1,.2-.8.9.9,0,0,1,.6-.3h1.5l.6.2h2V109a1.8,1.8,0,0,1-.7.5h-.7Zm-3-1.5h.3l.4.2h.4l.4.2h2.1a.5.5,0,0,0,.4-.3h.1v-.2H54.2l-.6-.2H52c-.1.1-.2.2-.1.3"/><path id="b3aec0e2-752f-45e3-b225-e546c1bccd80" data-name="Path 152" class="b1527458-dc8f-46ad-96a6-e3508a99d8f3" d="M55.2,107.8h0m2.1-1.7v-.2H52.6c-.1,0-.1.1-.2.2v.6h0v.2h1l.9.3H56l.4-.2h.3l.3-.3.3-.3a2,2,0,0,0,0-1.1m-.3.9-.2.3-.3.2-.4.2h-2l-.6-.2h-.8a.6.6,0,0,1,0-.6h4.2a1.1,1.1,0,0,1,0,.8m-1.8.7h0"/><path id="b0a1135f-3b1e-4db2-82dc-54c6f231dfc6" data-name="Path 153" class="b1527458-dc8f-46ad-96a6-e3508a99d8f3" d="M55.3,108.4h-.9l-.7-.2H52.4c-.1-.1-.1-.1,0-.1h0c-.1-.1-.1-.1,0-.2s-.1-.1,0-.1a.2.2,0,0,1,0-.3,1.3,1.3,0,0,1,.1-.6l.3-.2h4.7l.2.3a.3.3,0,0,0,.1.2,2.9,2.9,0,0,1,0,1.3l-.2.3h-.1l-.3.3-.4.2H55.5m-2.4-1.3.7.2h.9l.9.2h.8l.3-.2h.2a.3.3,0,0,0,.1-.2.5.5,0,0,0,0-.5H53.2a.2.2,0,0,0,0,.3"/><path id="aeb4b7be-ae56-42d3-85bd-51a20e17dda6" data-name="Path 154" class="b1527458-dc8f-46ad-96a6-e3508a99d8f3" d="M55.2,107.8h0m2.1-1.7v-.2H52.6c-.1,0-.1.1-.2.2v.6h0v.2h1l.9.3H56l.4-.2h.3l.3-.3.3-.3a2,2,0,0,0,0-1.1m-.3.9-.2.3-.3.2-.4.2h-2l-.6-.2h-.8a.6.6,0,0,1,0-.6h4.2a1.1,1.1,0,0,1,0,.8m-1.8.7h0"/><path id="a5a1f8db-bae5-4a05-9718-01901aba0086" data-name="Path 155" class="b1527458-dc8f-46ad-96a6-e3508a99d8f3" d="M55.3,108.4h-.9l-.7-.2H52.4c-.1-.1-.1-.1,0-.1h0c-.1-.1-.1-.1,0-.2s-.1-.1,0-.1a.2.2,0,0,1,0-.3,1.3,1.3,0,0,1,.1-.6l.3-.2h4.7l.2.3a.3.3,0,0,0,.1.2,2.9,2.9,0,0,1,0,1.3l-.2.3h-.1l-.3.3-.4.2H55.5m-2.4-1.3.7.2h.9l.9.2h.8l.3-.2h.2a.3.3,0,0,0,.1-.2.5.5,0,0,0,0-.5H53.2a.2.2,0,0,0,0,.3"/><path id="badfc320-1d58-4caa-a3d3-5a3acb87399b" data-name="Path 156" class="b1527458-dc8f-46ad-96a6-e3508a99d8f3" d="M57,107.1a15922629181314.7,15922629181314.7,0,0,0-.4.4l-.5.2H53.5l-.7-.2h0a.6.6,0,0,1,0-.6h4.1a.6.6,0,0,1,0,.8"/><path id="a564b4dd-c93c-495f-b8f4-ad9a611eca16" data-name="Path 157" class="b1527458-dc8f-46ad-96a6-e3508a99d8f3" d="M55.2,108H53.4l-.7-.2h-.3a1.1,1.1,0,0,1,0-.8v-.2H57v.2a2.1,2.1,0,0,1,0,1.1l-.2.3-.3.3H55.2m-2.4-.9.7.2h2.6l.4-.2h.1l.2-.2v-.5H53a.2.2,0,0,0,0,.3"/><path id="a524ca94-0354-4f77-85e5-b36ab911dc13" data-name="Path 158" class="b1527458-dc8f-46ad-96a6-e3508a99d8f3" d="M56.9,105.9h0m-.9.1h-.1m1.9-1.8c0-.1-.1-.1-.1-.2h-.5l-.7.2H53.7a1,1,0,0,0-.6.5v.7h0v.2h3.7l.3-.2a1.3,1.3,0,0,0,.7-.8,1.4,1.4,0,0,0-.1-1.1m-.2,1a.9.9,0,0,1-.6.6H53.3v-.2h0v-.2c.2-.2.4-.4.6-.4h1.9l1.1-.2h.7a.8.8,0,0,1,.1.4c.1.2.1.3,0,.4m-1.6.9h0m.9-.2h0"/><path id="fec27eb9-63c3-4e53-be88-bcd322e1ed90" data-name="Path 159" class="b1527458-dc8f-46ad-96a6-e3508a99d8f3" d="M53.1,106.6l-.2-.2h0v-.9a1.8,1.8,0,0,1,.8-.7h3.8l.3-.2.2.3c.1,0,.1.1.1.2a1.6,1.6,0,0,1,.2,1.2,1.6,1.6,0,0,1-.8,1l-.4.2v0H53.4Zm1-1.5H54a.9.9,0,0,0-.5.3h3.4a.8.8,0,0,0,.5-.5v-.3H54.1Z"/><path id="f287284a-d81b-4702-886b-5aa666d78448" data-name="Path 160" class="b1527458-dc8f-46ad-96a6-e3508a99d8f3" d="M56.9,105.9h0m-.9.1h-.1m1.9-1.8c0-.1-.1-.1-.1-.2h-.5l-.7.2H53.7a1,1,0,0,0-.6.5v.7h0v.2h3.7l.3-.2a1.3,1.3,0,0,0,.7-.8,1.4,1.4,0,0,0-.1-1.1m-.2,1a.9.9,0,0,1-.6.6H53.3v-.2h0v-.2c.2-.2.4-.4.6-.4h1.9l1.1-.2h.7a.8.8,0,0,1,.1.4c.1.2.1.3,0,.4m-1.6.9h0m.9-.2h0"/><path id="a5218984-084b-40a5-9e67-e1d719e3025b" data-name="Path 161" class="b1527458-dc8f-46ad-96a6-e3508a99d8f3" d="M53.1,106.6l-.2-.2h0v-.9a1.8,1.8,0,0,1,.8-.7h3.8l.3-.2.2.3c.1,0,.1.1.1.2a1.6,1.6,0,0,1,.2,1.2,1.6,1.6,0,0,1-.8,1l-.4.2v0H53.4Zm1-1.5H54a.9.9,0,0,0-.5.3h3.4a.8.8,0,0,0,.5-.5v-.3H54.1Z"/><path id="f258fab9-5bb4-43ad-bbc9-13fd7f40890a" data-name="Path 162" class="b1527458-dc8f-46ad-96a6-e3508a99d8f3" d="M57.7,105.1a1.1,1.1,0,0,1-.6.7H53.4v-.2h0v-.2h0a.8.8,0,0,1,.7-.5h1.7l1.1-.2h.7c0,.2.1.3.1.4s.1.3,0,.4"/><path id="a2cc4abb-e5f7-486b-8b10-387dbc45021e" data-name="Path 163" class="b1527458-dc8f-46ad-96a6-e3508a99d8f3" d="M53.2,106.3v-1a1.1,1.1,0,0,1,.9-.6h1.8l1-.2h.9v.2l.2.5a1.3,1.3,0,0,1-.8,1.3H53.2Zm4.2-1.7h-.6l-1,.2H54.1l-.6.3h0c0,.1.1.1.1,0h3.3a.8.8,0,0,0,.5-.5v-.3h0"/><path id="ab33bc9b-26f0-4bef-a2b0-0159ec1256af" data-name="Path 164" class="b1527458-dc8f-46ad-96a6-e3508a99d8f3" d="M58.5,103.1v-.3l-.3-.5v-.2H58l-.3.2H54.4l-.3.2h-.2l-.4.5a1,1,0,0,0,.2.9h3.7l.3-.2c.3-.2.6-.5.6-.8v-.2h0m-.3.2a.5.5,0,0,1-.3.5l-.4.2h-.2l-.6.2H53.9a.8.8,0,0,1-.2-.7c.1,0,.1-.1.1-.2l.2-.2.4-.2h1.7l.7-.2h1l.2.4h0v.2"/><path id="b06e6429-c5cc-4c9e-ba7c-951e013857e1" data-name="Path 165" class="bb64e4b0-4569-4c85-bc90-a289ff706b1e" d="M58.5,103.1v-.3l-.3-.5v-.2H58l-.3.2H54.4l-.3.2h-.2l-.4.5a1,1,0,0,0,.2.9h3.7l.3-.2c.3-.2.6-.5.6-.8v-.2Zm-.4.2a.5.5,0,0,1-.3.5.5.5,0,0,1-.4.2h-.1l-.7.2H54a.8.8,0,0,1-.2-.7c.1,0,.1-.1.1-.2s.1-.1.2-.2l.4-.2h1.7l.7-.2H58l.2.4h0v.5Z"/><path id="ad9fb3ff-0372-4793-9401-5085fa87dab6" data-name="Path 166" class="b1527458-dc8f-46ad-96a6-e3508a99d8f3" d="M58.5,103.1v-.3l-.3-.5v-.2H58l-.3.2H54.4l-.3.2h-.2l-.4.5a1,1,0,0,0,.2.9h3.7l.3-.2c.3-.2.6-.5.6-.8v-.2h0m-.3.2a.5.5,0,0,1-.3.5l-.4.2h-.2l-.6.2H53.9a.8.8,0,0,1-.2-.7c.1,0,.1-.1.1-.2l.2-.2.4-.2h1.7l.7-.2h1l.2.4h0v.2"/><path id="b1b430e3-e47b-473f-a98f-e976e7e5781a" data-name="Path 167" class="bb64e4b0-4569-4c85-bc90-a289ff706b1e" d="M58.5,103.1v-.3l-.3-.5v-.2H58l-.3.2H54.4l-.3.2h-.2l-.4.5a1,1,0,0,0,.2.9h3.7l.3-.2c.3-.2.6-.5.6-.8v-.2Zm-.4.2a.5.5,0,0,1-.3.5.5.5,0,0,1-.4.2h-.1l-.7.2H54a.8.8,0,0,1-.2-.7c.1,0,.1-.1.1-.2s.1-.1.2-.2l.4-.2h1.7l.7-.2H58l.2.4h0v.5Z"/><path id="fc27b37d-c6cf-4e9b-b605-42ddbfea8069" data-name="Path 168" class="b1527458-dc8f-46ad-96a6-e3508a99d8f3" d="M58.1,103.3c0,.2-.1.3-.3.5l-.4.2h-.1l-.7.2H54a.8.8,0,0,1-.2-.7c.1,0,.1-.1.1-.2s.2-.1.2-.2l.4-.2h1.7l.7-.2h1l.2.4h0v.2"/><path id="b5dcf8c6-4866-4544-afa4-2283a15f7402" data-name="Path 169" class="b1527458-dc8f-46ad-96a6-e3508a99d8f3" d="M53.8,104.9h0a1.5,1.5,0,0,1-.2-.9l.2-.3.2-.2.4-.2h.8l.8-.2h2.2a.8.8,0,0,1,.2.5v.4a.7.7,0,0,1-.4.6c-.1.2-.2.3-.4.3h-.2l-.7.2H53.8Zm.7-1.3-.3.2H54v.2a.2.2,0,0,0,0,.3h2.4l.7-.2h.2l.3-.2.2-.3v-.2H55.9l-.7.2h-.7Z"/><path id="a57e4c53-3075-4cd1-9327-95d5ed097d9c" data-name="Path 170" class="b1527458-dc8f-46ad-96a6-e3508a99d8f3" d="M58.5,100.5h-.3a4.8,4.8,0,0,1-1.8.5c-1.2.2-2.4.5-2.6,1.4a2.9,2.9,0,0,0,.2.9h1.2l1-.2h2a1.6,1.6,0,0,0,.6-.8,1.5,1.5,0,0,0-.4-1.1m-.5,1.7H54.8l-.3.2h-.1a.5.5,0,0,1-.2-.4v-.3c.1-.7,1.3-1,2.3-1.1l1.8-.5a1,1,0,0,1,.2.7,1.3,1.3,0,0,1-.6.7"/><path id="f3d65d39-de9b-4a01-8f27-abbfe1e3dec0" data-name="Path 171" class="bb64e4b0-4569-4c85-bc90-a289ff706b1e" d="M58.5,100.5h-.3a4.8,4.8,0,0,1-1.8.5c-1.2.2-2.4.5-2.6,1.4a2.9,2.9,0,0,0,.2.9h1.2l1-.2h2a1.6,1.6,0,0,0,.6-.8A1.4,1.4,0,0,0,58.5,100.5Zm-.6,1.7H54.4l-.2-.3V102c.1-.7,1.3-.9,2.3-1.1a5.3,5.3,0,0,0,1.8-.5,1.1,1.1,0,0,1,.2.8.9.9,0,0,1-.6.6Z"/><path id="aa68c788-ca09-417a-8640-e1c1542755d9" data-name="Path 172" class="b1527458-dc8f-46ad-96a6-e3508a99d8f3" d="M41.4,121.3c-5.6-.4-10.3.5-10.4,2.1l-.6,6.4a32.2,32.2,0,0,1,20.3,1.8l.6-6.4c.1-1.7-4.3-3.4-9.9-3.9"/><path id="aa1267c3-b3ea-4770-a5d7-8f4d5f4bb98f" data-name="Path 173" class="b1527458-dc8f-46ad-96a6-e3508a99d8f3" d="M74,104.2l-.6-.4-.9-.7-1.2-.9-1.4-1-.7-.6-.4-.3-.4-.3L67,98.6a3.8,3.8,0,0,1-.9-1.5s-140991.7-.4,0-.4v-.3l.3-.7a4.9,4.9,0,0,1,1.2-1.3l.4-.3.4-.3.7-.5,1.5-.9,1.3-.7.9-.6H73l.7-.2H66.1l-2-.2a2.4,2.4,0,0,1-1.5-.9,3.3,3.3,0,0,1-.7-1.7,6.6,6.6,0,0,1-.1-2V84.9a3.8,3.8,0,0,1,.1-1,11,11,0,0,1,.2-1.8,6.1,6.1,0,0,1,.2-1.5,2.2,2.2,0,0,1,.1-.9v-.3a1.7,1.7,0,0,1,.1-.8c.1-.2,0-.3,0-.3l-.2.2-.5.7-.6,1-.9,1.2-.5.8-.5.8-.5.8-.6.8L57,86.1a6.9,6.9,0,0,1-1.3,1.1H52.9l-1.7-.9-1.5-.9-1.4-.7-1-.6-.8-.3h-.2l.2.2.4.7L48.4,87l.9,1.5a8.9,8.9,0,0,1,.8,1.7,1.9,1.9,0,0,1,.2.8.6.6,0,0,1,0,.6.9.9,0,0,1-.1.5c-.1.2-.3.3-.4.4a5.5,5.5,0,0,1-1.5.8l-1,.4-.9.3-1.9.5-1.8.5-2.7.8-.7.3h.8l2.9.3,3.8.4,2,.4a3.7,3.7,0,0,1,1.6.7l.5.4c.1.1.1.3.2.5v.6c-.1.3-.1.6-.2.9a8.5,8.5,0,0,1-.6,1.7l-.8,1.7-.7,1.3-.6,1.1-.4.7v.3H48l.6-.5,1.8-1.5.6-.4.3-.2.4-.3.3-.2.4-.2.4-.2.4-.2.8-.4.8-.2h1.5a6,6,0,0,1,1.3.9l1,1.5a7.1,7.1,0,0,1,.8,1.5c.2.4.4,1,.6,1.5l.5,1.2a6.9,6.9,0,0,1,.4,1l.3.9a2.7,2.7,0,0,1,.2-.9,4.5,4.5,0,0,1,.1-1.1,5.3,5.3,0,0,0,.1-1.3c.1-.5.2-1.1.3-1.5a10.5,10.5,0,0,1,.4-1.7,5.5,5.5,0,0,1,.8-1.5,2,2,0,0,1,1.2-.8,4.7,4.7,0,0,1,1.7-.3l1.7.2.9.2.9.2.8.3.7.2,1.3.4,1.1.3.6.2h.3l-.2-.2m-7-3.2H66a4.7,4.7,0,0,0-4.2,1.8,7.2,7.2,0,0,0-.9,2,12.3,12.3,0,0,0-.2,1.9v.2c-.1-.1-.1-.1,0-.2a13.4,13.4,0,0,0-.7-1.8,17.4,17.4,0,0,0-1.1-1.8,5.6,5.6,0,0,0-2-1.4,4.9,4.9,0,0,0-2.4-.1l-.5.2-.6.2h-.3l.3-.5c.1-.5.3-.9.4-1.3V98.8a3.6,3.6,0,0,0-.7-1.7A4.3,4.3,0,0,0,51.9,96a3.3,3.3,0,0,0-1-.6l.7-.5a3.8,3.8,0,0,0,1-1.2,3.7,3.7,0,0,0,.5-1.7,4,4,0,0,0-.3-1.5v-.2h.7l.7.2h1.6l.7-.2.4-.2.3-.2a7.2,7.2,0,0,0,2.1-1.8l.3-.5.4-.5.3-.6v2.1a1.3,1.3,0,0,0,.1.6v1l.2.3a1.5,1.5,0,0,0,.4.6l.3.3.3.2c.1.2.4.3.6.4l.3.2h.3l.7.2h2.4a7.6,7.6,0,0,0,2.1-.3h.3l-.9.5-.4.2-.5.3-.4.4h-.2l-.5.4-.2.3-.2.2-.2.3a4.3,4.3,0,0,0-.5,1.2v1.4c0,.2.1.3.1.4v.3a1,1,0,0,0,.4.5,3.6,3.6,0,0,0,.7,1l1.7,1.4h-.5"/><path id="fc9aea68-39f2-4c20-b490-21ae33fbf465" data-name="Path 174" class="b1527458-dc8f-46ad-96a6-e3508a99d8f3" d="M64.4,99.3h-.9a3.3,3.3,0,0,0-1.4.1,3.1,3.1,0,0,0-1.1.9,2.7,2.7,0,0,0-.6,1.2,4.5,4.5,0,0,0-.1,1.1v0l-.4-1a4.1,4.1,0,0,0-.7-1.1,2,2,0,0,0-1.2-.8,2.8,2.8,0,0,0-1.8,0h-.5l.2-.4a1.9,1.9,0,0,0,.2-.7,1.7,1.7,0,0,0,0-1,1.8,1.8,0,0,0-.4-.9,2.7,2.7,0,0,0-.7-.8l-.6-.3.4-.3a1.3,1.3,0,0,0,.6-.7,1.9,1.9,0,0,0,.3-1,2.9,2.9,0,0,0-.2-.9v-.2h2.7l1.2-1.1.2-.3.2-.3a.8.8,0,0,1,.2-.4v2.1h0v.2l.2.4.2.2h.2l.3.2h2.2l1.3-.2h.2l-.5.3h-.3l-.3.2-.2.2h-.2l-.2.3h-.3v.2l-.3.7v1.3l.2.3.4.6,1,.8"/><path id="bdef4a76-42ba-446a-9eec-305760953087" data-name="Path 175" class="b1527458-dc8f-46ad-96a6-e3508a99d8f3" d="M74.2,163.2A39,39,0,0,0,62.4,141l-.2-.2A36.7,36.7,0,0,0,.5,173.6v.3a39,39,0,0,0,11.8,22.3l.3.2a36.7,36.7,0,0,0,61.7-32.8v-.3M52.8,197.6c-1.3.6-4.5-.6-9-5a65,65,0,0,1-6.5-7.4l13.8-7.4a68.4,68.4,0,0,1,2.6,9.6c1.1,6.1.3,9.5-1,10.2m-18.5-17c-1.6-2.4-3.1-5.1-4.6-7.8a77.5,77.5,0,0,1-3.9-8.3l14.9-7.9c1.5,2.5,3.1,5.1,4.6,7.9s2.7,5.5,3.9,8.2Zm-24.9,3A37,37,0,0,1,6.1,175l14.8-7.9c1.2,2.8,2.6,5.5,4,8.2s3,5.4,4.6,7.9l-14.8,7.9a32.4,32.4,0,0,1-5.4-7.5M22,139.7c1.2-.7,4.5.6,9,4.9a67.3,67.3,0,0,1,6.5,7.5l-13.8,7.3a61.7,61.7,0,0,1-2.6-9.6c-1.1-6.1-.3-9.5.9-10.1m23.3,14.4,14.8-7.9a34.6,34.6,0,0,1,8.6,16.1l-14.9,7.9c-1.2-2.8-2.5-5.5-3.9-8.2s-3-5.4-4.6-7.9m10.4-11.7-13.5,7.2a51.7,51.7,0,0,0-12.3-12.8,32.1,32.1,0,0,1,25.8,5.6m-40.5,2.2A54.2,54.2,0,0,0,19,161.9L5.5,169.1a31.8,31.8,0,0,1,9.8-24.5m3.9,50.3,13.5-7.2a52.6,52.6,0,0,0,12.2,12.7,32.1,32.1,0,0,1-25.8-5.5m40.5-2.3a54.1,54.1,0,0,0-3.7-17.3l13.5-7.2a32.2,32.2,0,0,1-9.8,24.5"/></g></g></g></g></svg>