<svg id="b483cef3-7a49-49d7-a2b4-8e5d33b0e23c" data-name="Layer 1" xmlns="http://www.w3.org/2000/svg" viewBox="0 0 50 50"><path d="M14.5,9.4a17.5,17.5,0,0,1,4,.4A7.7,7.7,0,0,1,21.6,11a6.8,6.8,0,0,1,2,2.4,9.2,9.2,0,0,1,.7,3.6,7.1,7.1,0,0,1-1.1,3.9,7.9,7.9,0,0,1-3.1,2.5,6.9,6.9,0,0,1,4.2,2.9,8.6,8.6,0,0,1,1.4,4.9,8.4,8.4,0,0,1-.9,4A8.1,8.1,0,0,1,22.4,38a10.2,10.2,0,0,1-3.5,1.6,13.3,13.3,0,0,1-4,.5H0V9.4ZM35.3,34.7a5.4,5.4,0,0,0,4,1.4,4.8,4.8,0,0,0,3.1-1,3.7,3.7,0,0,0,1.7-1.9h5.4a10.4,10.4,0,0,1-4,5.7,11.1,11.1,0,0,1-6.4,1.7,12.4,12.4,0,0,1-4.8-.8,10.9,10.9,0,0,1-3.5-2.4,9.3,9.3,0,0,1-2.3-3.7,14,14,0,0,1-.8-4.7,11.4,11.4,0,0,1,.9-4.6,10.5,10.5,0,0,1,2.3-3.8,13.6,13.6,0,0,1,3.6-2.5,11.6,11.6,0,0,1,4.7-.9,10.7,10.7,0,0,1,4.9,1.1,9.9,9.9,0,0,1,3.5,2.9,12.8,12.8,0,0,1,1.9,4.3,15.7,15.7,0,0,1,.5,4.9H33.9a6.2,6.2,0,0,0,1.5,4.3h-.1ZM14,34.8a5.5,5.5,0,0,0,1.8-.2,3.4,3.4,0,0,0,1.6-.6,3.2,3.2,0,0,0,1.1-1.2,4,4,0,0,0,.4-2,4,4,0,0,0-1.3-3.4,5.6,5.6,0,0,0-3.5-1H6.7v8.5H14ZM42.3,23a4.4,4.4,0,0,0-3.4-1.2,6.2,6.2,0,0,0-2.5.5,4.4,4.4,0,0,0-1.5,1.2,3.5,3.5,0,0,0-.8,1.6,4,4,0,0,0-.3,1.5h9.9a5.6,5.6,0,0,0-1.4-3.5h0ZM13.6,21.8a4.9,4.9,0,0,0,3-.9,3.5,3.5,0,0,0,1.1-2.8,2.9,2.9,0,0,0-.4-1.7,2.2,2.2,0,0,0-1-1.1,3.3,3.3,0,0,0-1.5-.5,5.5,5.5,0,0,0-1.8-.2H6.7v7.2ZM32.5,11.4H45v3.1H32.5V11.4Z"/></svg>