<svg id="ad0a0c8d-e360-45e8-8791-8c47453abcad" data-name="Layer 1" xmlns="http://www.w3.org/2000/svg" viewBox="0 0 50 50"><path d="M46.6,12.5A24.6,24.6,0,0,0,25,0,23.7,23.7,0,0,0,12.5,3.4,24.6,24.6,0,0,0,0,25,24.3,24.3,0,0,0,3.4,37.6a23.8,23.8,0,0,0,9.1,9A23.7,23.7,0,0,0,25,50a24.3,24.3,0,0,0,12.6-3.4,25.3,25.3,0,0,0,9.1-9A25.2,25.2,0,0,0,50,25,23.7,23.7,0,0,0,46.6,12.5ZM25,4.2A20.8,20.8,0,0,1,38.3,8.9c-2.3,3-5.7,5.4-10.3,7.3A57.4,57.4,0,0,0,19.9,4.8,22.2,22.2,0,0,1,25,4.2ZM8.8,12a20.7,20.7,0,0,1,6.8-5.6,53.3,53.3,0,0,1,8.3,11.3A54.8,54.8,0,0,1,8.1,19.9H4.8A21.4,21.4,0,0,1,8.8,12ZM4.2,25V24H7.1a61.5,61.5,0,0,0,18.6-2.8,32.6,32.6,0,0,1,1.5,3.2A25.1,25.1,0,0,0,17,29.8a27.3,27.3,0,0,0-7.6,9A20.3,20.3,0,0,1,4.2,25ZM25,45.9a20.7,20.7,0,0,1-12.8-4.4,30.5,30.5,0,0,1,7-8.6,21.3,21.3,0,0,1,9.3-5,77.7,77.7,0,0,1,3.9,16.5A21.2,21.2,0,0,1,25,45.9ZM42.7,36a20.9,20.9,0,0,1-6.4,6.5,71.4,71.4,0,0,0-3.5-15.2c2.3-.2,4.4-.2,6.3-.2s4.2,0,6.6.2A21,21,0,0,1,42.7,36ZM39.6,23.5q-4.4,0-8.1.3a28.3,28.3,0,0,0-1.7-4c5.2-2.3,8.9-5.1,11-8.3a19.7,19.7,0,0,1,4.9,12.1Z"/></svg>