<svg id="a1054e69-53ca-4c02-b1b6-eaf7bb2c45e3" data-name="Layer 1" xmlns="http://www.w3.org/2000/svg" viewBox="0 0 50 50"><path d="M38.8,20.6h-.5a1.5,1.5,0,0,1-1.1-1.4,1.4,1.4,0,0,1,.6-1.1h0a10.7,10.7,0,0,0,3.4-8c0-4.8-3.1-8.1-8-8.1A8,8,0,0,0,26.5,5a8.5,8.5,0,0,1,5.2,8.3,12.2,12.2,0,0,1-3.9,9.1h0a1.5,1.5,0,0,0-.7,1.2,1.7,1.7,0,0,0,1.3,1.6H29c7.2,1.2,12.6,4.2,12.6,8.9A8.2,8.2,0,0,1,40,38.6c5.7-2,9.9-6.3,9.9-10.2S45.1,21.5,38.8,20.6ZM25.4,26.4h-.6a1.5,1.5,0,0,1-1.2-1.5,1.3,1.3,0,0,1,.6-1.2h0a12.4,12.4,0,0,0,4-9.1c0-5.3-3.6-9-9.3-9s-9.2,3.7-9.2,9a12.3,12.3,0,0,0,3.9,9.1h0a1.4,1.4,0,0,1,.7,1.3,1.6,1.6,0,0,1-1.2,1.5h-.7C5.4,27.6.1,30.7.1,35.3S9,48.1,19.1,48.1,38,41.2,38,35.3,32.6,27.5,25.4,26.4Z"/></svg>