<svg id="a1568641-51b7-4f11-9f18-92120af6c0d0" data-name="f5c487ba-e4d5-45f3-a26a-e269ab7f236e" xmlns="http://www.w3.org/2000/svg" viewBox="0 0 50 50"><path d="M33,24.9a8.1,8.1,0,0,1-7.4,8.7A7.9,7.9,0,0,1,17,26.2a2.8,2.8,0,0,1,0-1.3,8,8,0,0,1,16,0Zm17-11V36A14,14,0,0,1,36,50H13.9A14,14,0,0,1-.1,36V13.9a14,14,0,0,1,14-14H36A14,14,0,0,1,50,13.9Zm-13,11A12.1,12.1,0,1,0,24.9,37h0A12,12,0,0,0,37,25.1ZM41,12a3.1,3.1,0,0,0-3-3.1h0A3,3,0,0,0,35,12h0a2.9,2.9,0,0,0,2.9,2.9H38a2.9,2.9,0,0,0,3-2.8Z"/></svg>