<svg id="ac3b6184-0ea4-4994-a8db-839978ff95e2" data-name="Layer 1" xmlns="http://www.w3.org/2000/svg" viewBox="0 0 50 50"><defs><style>.ff106a3e-d1e9-4290-9802-effb01a50a3e{fill-rule:evenodd;}</style></defs><g id="a7816cfa-6de1-4b39-8af7-d2f84ca74cf7" data-name="brand"><g id="a639a2c1-6ffd-4842-905a-4fb0f53547e7" data-name="pinterest"><path id="e9a1d898-18c2-4e11-9cd7-c248896ac7e2" data-name="Shape" class="ff106a3e-d1e9-4290-9802-effb01a50a3e" d="M25,0a25,25,0,0,0-9.1,48.3,24.9,24.9,0,0,1,.1-7.2c.4-1.9,2.9-12.4,2.9-12.4a9.5,9.5,0,0,1-.7-3.7c0-3.5,2-6.1,4.5-6.1s3.1,1.6,3.1,3.5-1.3,5.4-2,8.3a3.7,3.7,0,0,0,3.7,4.6c4.4,0,7.8-4.7,7.8-11.5S31,13.6,24.9,13.6A10.9,10.9,0,0,0,13.6,24.5a9.5,9.5,0,0,0,1.9,5.7.6.6,0,0,1,.1.7c-.1.8-.6,2.5-.7,2.9s-.3.5-.8.3C11,32.6,9,28.1,9,24.4,9,16.5,14.8,9.3,25.6,9.3,34.2,9.3,41,15.5,41,23.7S35.5,39.3,28,39.3c-2.5,0-4.9-1.4-5.7-2.9l-1.6,5.9a30.9,30.9,0,0,1-3.1,6.6A25.5,25.5,0,0,0,25,50,25,25,0,0,0,25,0"/></g></g></svg>