<svg id="ff7f299c-c176-4dfd-8e05-a9e1529111b6" data-name="Layer 1" xmlns="http://www.w3.org/2000/svg" viewBox="0 0 50 50"><path d="M25.4,1.7A13.2,13.2,0,0,1,37.8,9.6c1.1,2.5.8,6.7.6,10.1h0a3.7,3.7,0,0,1-.1,1.1l.9.2a6.8,6.8,0,0,0,2.1-.6l1-.3,1.1.2a2,2,0,0,1,1.5,1.8c0,.9-.8,1.7-2.5,2.4l-.8.3c-.9.2-2.3.7-2.7,1.6a2.2,2.2,0,0,0,.2,1.9h0c.2.3,3.2,7.2,10,8.3a1.1,1.1,0,0,1,.9,1.1.9.9,0,0,1-.1.5c-.5,1.2-2.6,2-6.5,2.6a3.4,3.4,0,0,0-.4,1.2,5.3,5.3,0,0,1-.3,1.2,1,1,0,0,1-1.1.8H40.4a10.6,10.6,0,0,0-2.7-.3H35.8a9.7,9.7,0,0,0-3.6,1.9c-1.7,1.2-3.8,2.7-6.8,2.7h-.7a10.6,10.6,0,0,1-6.8-2.7,10.1,10.1,0,0,0-3.6-1.8l-1.9-.2a9.6,9.6,0,0,0-2.7.4H8.6a1.1,1.1,0,0,1-1.2-.9L7.1,42a8.1,8.1,0,0,0-.3-1.1c-4-.5-6.2-1.4-6.7-2.6a4.3,4.3,0,0,1-.1-.5,1,1,0,0,1,.9-1c6.8-1.1,9.8-8.1,10-8.4h0a1.7,1.7,0,0,0,.2-1.8c-.4-.9-1.8-1.3-2.7-1.7l-.8-.2c-2.3-.9-2.6-1.9-2.5-2.7a2.5,2.5,0,0,1,2.5-1.6h.8a4.6,4.6,0,0,0,2.3.7,3,3,0,0,0,.9-.2V19.7c-.3-3.4-.5-7.6.6-10.1A13,13,0,0,1,24.4,1.7h1Z"/></svg>