<svg xmlns="http://www.w3.org/2000/svg" viewBox="0 0 246.76 149.66"><defs><style>.cls-1{fill:#e18e3c;}</style></defs><g id="Layer_2" data-name="Layer 2"><g id="Layer_1-2" data-name="Layer 1"><path id="Path_29" data-name="Path 29" class="cls-1" d="M143.82,107a44.62,44.62,0,0,0,5.13-4.06A115.52,115.52,0,0,0,157.37,94l-.05,0L134.87,99.3a62.17,62.17,0,0,0,8.95,7.64"/><path id="Path_30" data-name="Path 30" class="cls-1" d="M156.91,115.08a27.18,27.18,0,0,0,10.6-3.3,21,21,0,0,0,5.36-4.93l-2.08-3.46A70,70,0,0,1,162.13,98,74.17,74.17,0,0,1,151,111.4a59.94,59.94,0,0,0,5.5,2.6Z"/><path id="Path_31" data-name="Path 31" class="cls-1" d="M159.83,134.18a25.13,25.13,0,0,0,2.68,2.58,95.86,95.86,0,0,1,10.62-19.06,34.68,34.68,0,0,1-17.81,4.46l-2.12,4.34c2.26,2.5,4.31,5.15,6.62,7.67"/><path id="Path_32" data-name="Path 32" class="cls-1" d="M158.35,142.83a50.49,50.49,0,0,1-8.35-9.75l-1.25,2.56L142.62,134a8.51,8.51,0,0,0-9.17,4.25c-1.36,2.5-2.94,5.52-4.19,8.39h29.29s.38-1.08,1.06-2.86a12.21,12.21,0,0,1-1.25-1"/><path id="Path_33" data-name="Path 33" class="cls-1" d="M95.67,109.92l-9.53,21.23a8.26,8.26,0,0,1,5.72,6.06c-.93,3.48-3.08,10-6.19,11.5h7.87c7.85-12.86,5.6-29.4,2.13-38.79"/><path id="Path_34" data-name="Path 34" class="cls-1" d="M79.62,125.76a57,57,0,0,1-5.31-6.19,51.52,51.52,0,0,1-5,21.11l-12.51-2.45a13.17,13.17,0,0,0-6.25,11.43H77.42l7.5-18.94c-2-1.68-3.75-3.42-5.31-5"/><path id="Path_35" data-name="Path 35" class="cls-1" d="M201.58,93.73c-11-4.16-16-8.91-15.74-22.87,0,0,.59,7.13,9.5,12.47,3.8,2.28,8.24,4.13,12.31,6.32a64.82,64.82,0,0,1-.11-12.38A81.16,81.16,0,0,0,200,60.43c2.43-.23,4.74-.54,7-.9q-1.92-5.18-3.77-10.37a2.32,2.32,0,0,1,0-1.68,154.89,154.89,0,0,1-18.53-4.63A50.55,50.55,0,0,0,178,38.39a36.13,36.13,0,0,1-7.55,7.82A35.12,35.12,0,0,0,156.75,62a31.31,31.31,0,0,1,7.72-17.53c4-4.31,6.3-5.66,7.82-8.54a45.24,45.24,0,0,0-23.53-1.47l-1.25.21c-4.18,2.64-10,8.37-11.25,20.2-2.11,19-10.12,29.69-29.73,32.66,0,0,15.74-5.64,21.09-21.09,4.22-12.19,1.61-21,8.91-30.65-4.45.23-9,.24-13.34.08a26.41,26.41,0,0,0-3,14c.66,13.51-7.55,23.39-19.94,24.77a23.3,23.3,0,0,0,13.66-16.18c1.29-7.09.45-15.71,1.34-23-2-.17-4-.37-5.8-.59-.84,15.89-8.57,22.13-8.57,22.13a43.84,43.84,0,0,0,2.55-23,18.81,18.81,0,0,1-8.58-2.73,7.09,7.09,0,0,0-1.25-1.43,18.81,18.81,0,0,0-4.41,10.75C87.7,55,70.77,60.94,70.77,60.94A40.29,40.29,0,0,0,83.26,43.42c1.64-5.57,2-11.22,4.3-15.87h-12a19,19,0,0,0-3,17.75C74.35,52.43,67.42,57,67.42,57s3.17-3-1-14.06a19,19,0,0,1,.26-14.32l-5.18,1.18c-5,6.49-2.72,13.7,1.35,21.85a15.33,15.33,0,0,1-1.58,17,38.25,38.25,0,0,0-6.14-22.77,18.57,18.57,0,0,1-3.27-13.8l-5.19,1.28L42.6,37.05a9.47,9.47,0,0,0,.81-9.6C36.06,32.56,11,42.36,11,42.36l-1,4.83A28.17,28.17,0,0,1,0,51.68a18,18,0,0,0,9.12,8.84l1.5-4c7.5-.68,7.9,8.85,7.9,8.85l-6.13-1.5A21.65,21.65,0,0,1,17,74.27L27.5,66.1l9.66.55C46.28,58.89,38.66,48,38.66,48c9,8.31,2.86,19.19,2.86,19.19a33.55,33.55,0,0,1,7.85,4.21,13.6,13.6,0,0,0,1.2-10.06C48.39,51.05,44.44,46.89,48.2,40a21.32,21.32,0,0,0,4.55,16.25A21.77,21.77,0,0,1,56.39,77.4a53.78,53.78,0,0,1,4.69,5.31l5.17-12.25L62.19,86.51l3.45,6.43a44.39,44.39,0,0,0,6.72-18.53C73.85,61.34,91.67,62.54,97,44.71c0,0,.31,14-8,19A21.62,21.62,0,0,0,78,85.4c.74,5.2-2.92,13.41-5.78,18.84,3.89,4.58,7,10.22,11.15,14.44q2.22,2.23,4.63,4.26l6-15.19L90.76,92.24c2.45-.82,7.35-9,7.35-9a49.11,49.11,0,0,1-4.9,9.26l2.72,13.06,7.93-1.79A20.25,20.25,0,0,1,114.34,95C122.26,92.24,129,81.15,129,81.15s-2.19,11.48-8.52,14.26a14.47,14.47,0,0,0-6.15,6l6.34-1.43a35.46,35.46,0,0,0,17.22-23C142,55.13,146.79,47.9,155,42.27c0,0-10.79,17.11-9.34,32.62.71,7.52-3,15.14-7,21L156.08,92a84.68,84.68,0,0,1,1.64-19.32s.82,16.33,1.36,17.15a28.25,28.25,0,0,0,8.53,8.3A38.23,38.23,0,0,1,165,80.35c2-15,13.07-18.21,14.65-28.51a26.5,26.5,0,0,1-1.57,14.65c-2.73,5.47-12.24,15.67,1.77,36.2a28.47,28.47,0,0,0,4.52.43l5.28,3.77c1.09-.31,2.13-.62,3.08-1a45.65,45.65,0,0,0,15-8.83,25,25,0,0,0-6.23-3.36"/><path id="Path_36" data-name="Path 36" class="cls-1" d="M210.28,124.19c.84.16,1.8.31,3,.47a42.17,42.17,0,0,0,13.36-.06,27.71,27.71,0,0,0,1.08-5.7c-.55-.81-7.89-.27-15-12.25-.47-.8-.89-1.63-1.29-2.47a44,44,0,0,1-12.48,8.36c-.28.13-.57.24-.85.36l11.82,8.44Z"/><path id="Path_37" data-name="Path 37" class="cls-1" d="M220.68,133.87a39,39,0,0,1-9.21-.62l.69,5.23a40.66,40.66,0,0,0-9.8-1.63C191.77,140.38,192,147.74,192,147.74H220.6s1.92-7.06,3.75-14.2c-1.22.15-2.45.26-3.68.32"/><path id="Path_38" data-name="Path 38" class="cls-1" d="M216.82,47.75a37.64,37.64,0,0,1-8.81.31q2.09,5.22,4.23,10.43c2.27-.52,4.43-1.11,6.46-1.77a78.64,78.64,0,0,0-1.87-9"/><path id="Path_39" data-name="Path 39" class="cls-1" d="M234.82,1.54A17.34,17.34,0,0,0,221,1.34a16,16,0,0,0-3.8,2.46,3,3,0,0,0,3.13,4.94,15.14,15.14,0,0,1,9.24-.66,27,27,0,0,1,5.25-6.54"/><path id="Path_40" data-name="Path 40" class="cls-1" d="M235.45,10.94a13.68,13.68,0,0,1,5.13,9.9,29.69,29.69,0,0,1,6.14,1.07v-.18a21.64,21.64,0,0,0-5.65-15.87,24.12,24.12,0,0,0-5.63,5.08"/><path id="Path_41" data-name="Path 41" class="cls-1" d="M239.44,28.21a29.31,29.31,0,0,1-3.75,7.08,51.93,51.93,0,0,1,3.57,8.29A32.71,32.71,0,0,0,245.74,30a25.06,25.06,0,0,0-6.29-1.82"/><path id="Path_42" data-name="Path 42" class="cls-1" d="M233.35,48.65a62.91,62.91,0,0,0-2.16-8.11,26.78,26.78,0,0,1-8.44,5.53,67.53,67.53,0,0,1,2.44,8.11,43.4,43.4,0,0,0,8.24-5c0-.19-.06-.37-.1-.56"/></g></g></svg>