<svg id="b733f28d-a554-4a66-bb9f-e42e27cf093f" data-name="b9a33793-2c02-4787-8855-b3ca7d36cb57" xmlns="http://www.w3.org/2000/svg" xmlns:xlink="http://www.w3.org/1999/xlink" viewBox="0 0 295 295"><defs><style>.f3a05ae4-1fb9-4766-b8a6-85ef749e382e{fill:none;}.bb58d398-4b08-4abb-a285-33bb93eee0bf{clip-path:url(#ffb624d1-50d9-4feb-a2e8-d3fd7404d527);}.b26c9c54-a0f1-4a11-b758-b0af2c405de0{fill:#1a1818;}.f1aa1e3a-f3de-412f-b711-4b477b7e86f2{fill:#e51e26;}</style><clipPath id="ffb624d1-50d9-4feb-a2e8-d3fd7404d527"><rect class="f3a05ae4-1fb9-4766-b8a6-85ef749e382e" x="-1.3" y="15" width="297.7" height="264.96"/></clipPath></defs><rect class="f3a05ae4-1fb9-4766-b8a6-85ef749e382e" width="295" height="295.04"/><g class="bb58d398-4b08-4abb-a285-33bb93eee0bf"><g id="bbe81c88-f6f0-46be-ab07-9032da269340" data-name="be128233-6059-49aa-8a89-99ad7e607c2e"><path class="b26c9c54-a0f1-4a11-b758-b0af2c405de0" d="M5.9,261v-4.4l4.8-.8V221.6l-4.7-1v-4.4H26.3v4.4l-4.9,1v14.1H37.3V221.5l-4.8-.9v-4.4H52.6v4.4l-4.7,1v34.1l4.7.8V261h-20v-4.5l4.7-.8v-15H21.4v15l5,.8V261Z"/><path class="b26c9c54-a0f1-4a11-b758-b0af2c405de0" d="M57.1,261v-4.4l5.1-.9V221.6l-5.1-1v-4.4H77.9v4.4l-5.1.9v34.2l5.1.8V261Z"/><path class="b26c9c54-a0f1-4a11-b758-b0af2c405de0" d="M98.2,261.7a30.4,30.4,0,0,1-5.2-.4,32.9,32.9,0,0,1-4.3-.9l-3.2-.9a8.5,8.5,0,0,0-2.2-.4l.6-11.4h5.9l1.3,7.4.9.7,1.3.7,1.9.5,2.2.2a9.5,9.5,0,0,0,3.3-.5,4.8,4.8,0,0,0,2.3-1.3,4.5,4.5,0,0,0,1.1-1.9,8.3,8.3,0,0,0,.3-2.2,5.8,5.8,0,0,0-.6-2.6,10.6,10.6,0,0,0-1.9-2.3,21.1,21.1,0,0,0-3.1-2.1l-4.1-2.2L91,240a16.4,16.4,0,0,1-3.5-2.9,13.8,13.8,0,0,1-2.8-4,12.8,12.8,0,0,1-1-5.5,10.6,10.6,0,0,1,3.9-8.3,12.9,12.9,0,0,1,4.9-2.6,20.8,20.8,0,0,1,7-1,28.3,28.3,0,0,1,4.1.3l3.7.6,3.2.8,2,.4-.4,10.3h-5.9l-1.1-6.6-.7-.5-1.2-.5-1.5-.3-1.5-.2a10.3,10.3,0,0,0-3,.4,7.2,7.2,0,0,0-1.9,1.1,3.6,3.6,0,0,0-1.1,1.6,6.3,6.3,0,0,0-.3,1.9,6.8,6.8,0,0,0,.8,3.1,12.6,12.6,0,0,0,2.2,2.4,23.9,23.9,0,0,0,3.4,2.1l4,2.1,3.7,2.1a19.3,19.3,0,0,1,3.6,2.8,18.3,18.3,0,0,1,2.6,3.6,9.1,9.1,0,0,1,1,4.6,15.6,15.6,0,0,1-.8,4.8,12,12,0,0,1-2.9,4.5,13.6,13.6,0,0,1-5.2,3.3A22.2,22.2,0,0,1,98.2,261.7Z"/><path class="b26c9c54-a0f1-4a11-b758-b0af2c405de0" d="M125.5,261v-4.4l8.4-.9V220.9l-7.5.7-2.2,12.8h-6.1l.8-18.2h40.3l1,18.2h-6.1l-2.2-12.8-7.2-.7v34.8l8.8.8V261Z"/><path class="b26c9c54-a0f1-4a11-b758-b0af2c405de0" d="M182.9,261.7a23.5,23.5,0,0,1-9.1-1.5,16.2,16.2,0,0,1-6.4-4.5,19.3,19.3,0,0,1-3.7-7.1,37.3,37.3,0,0,1-1.2-9.4,31.1,31.1,0,0,1,1.5-9.6,21.3,21.3,0,0,1,4.2-7.5,20.5,20.5,0,0,1,15.6-6.4,22.3,22.3,0,0,1,9.2,1.6,15,15,0,0,1,6.2,4.4,18.1,18.1,0,0,1,3.6,7.2,33.1,33.1,0,0,1,1.1,9.4,28.9,28.9,0,0,1-1.4,9.7,23.6,23.6,0,0,1-4.2,7.4,20.8,20.8,0,0,1-6.7,4.7A21.7,21.7,0,0,1,182.9,261.7Zm.4-41.8a6.4,6.4,0,0,0-3.8,1.2,8.5,8.5,0,0,0-2.9,3.6,26.9,26.9,0,0,0-1.9,6.1,56.9,56.9,0,0,0-.6,8.3,65.1,65.1,0,0,0,.6,8.8,15.5,15.5,0,0,0,1.9,5.6,6.8,6.8,0,0,0,2.8,3,8.5,8.5,0,0,0,3.8.9,6.4,6.4,0,0,0,3.8-1.2,9,9,0,0,0,2.8-3.6,21,21,0,0,0,1.9-6,38.2,38.2,0,0,0,.6-8.3,42.5,42.5,0,0,0-.6-8.7,19,19,0,0,0-1.8-5.7,7.6,7.6,0,0,0-2.9-3,7.8,7.8,0,0,0-3.7-.9Z"/><path class="b26c9c54-a0f1-4a11-b758-b0af2c405de0" d="M207.7,261v-4.4l4.8-.8V221.5l-4.7-.9v-4.4h20.5a39.4,39.4,0,0,1,7.7.7,13.8,13.8,0,0,1,5.1,2.3,8,8,0,0,1,2.7,3.6,14.8,14.8,0,0,1,.9,5.1,15.8,15.8,0,0,1-.5,3.8,11.4,11.4,0,0,1-1.5,3.6,9.7,9.7,0,0,1-2.7,3,9.9,9.9,0,0,1-4,1.9,6.7,6.7,0,0,1,3,1.9,22.6,22.6,0,0,1,2.3,3.1l1.8,3.6,1.5,3.4a21,21,0,0,0,1.3,2.6,2.4,2.4,0,0,0,1.5,1.3l2.5.8v4.4h-12c-.5,0-1-.4-1.4-1.2a18.7,18.7,0,0,1-1.5-3.2l-1.6-4.3c-.5-1.5-1.1-3-1.7-4.4a26.4,26.4,0,0,0-1.8-3.8,6.6,6.6,0,0,0-2.1-2.3h-5v13.8l4.9.8V261Zm15.2-23.7h4a6.1,6.1,0,0,0,5.1-2.2,10.8,10.8,0,0,0,1.8-7.2,8.1,8.1,0,0,0-1.8-6,7.8,7.8,0,0,0-5.7-1.8h-3.4Z"/><path class="b26c9c54-a0f1-4a11-b758-b0af2c405de0" d="M257.3,261v-4.4l6.8-.9V243.4l-12.9-21.9-3.4-.9v-4.4h19.4v4.4l-3.9.9,7.4,14.7,1.2,3.7,1.4-3.5,6.9-14.8-4.9-1v-4.4h15.4v4.4l-4.3,1-10.8,21.8v12.3l7.3.8V261Z"/></g><path id="ee524cb2-91a1-421d-9f4e-368df3f4fbb7" data-name="ab0a611c-d57f-48f8-be59-bd49c8bc33f3" class="f1aa1e3a-f3de-412f-b711-4b477b7e86f2" d="M90.7,187.6c-.4-5.3-.9-10.4-1.6-15.4a265.2,265.2,0,0,0-15.9-59.3c-2.8-7.1-5.5-13.1-7.7-17.6l-2.4-4.8q-1.4-2.7-2.1-3.9l-.7-1.2-.6,1.2c-.5.8-1.2,2.2-2.1,3.9s-1.6,3-2.4,4.8c-2.1,4.2-4.5,9.5-7.1,15.8a258.3,258.3,0,0,0-18.2,76.5c0,1.4-.2,2.8-.2,4.1H91c0-1.3-.2-2.7-.3-4.1m-42-68.5h24v68.5h-24Z"/><path id="af950592-ecf1-4695-b5c0-8df912d48eb9" data-name="ac49e9b5-2f9d-4a6a-9365-3f7d496ce940" class="f1aa1e3a-f3de-412f-b711-4b477b7e86f2" d="M66,85.3a5.8,5.8,0,0,1-5.8,5.8h0a5.8,5.8,0,0,1-5.8-5.6h0a5.8,5.8,0,0,1,5.7-5.9h.1A5.8,5.8,0,0,1,66,85.3"/><path id="aa36456c-0bd9-4c81-8e28-f4aca2a352ee" data-name="bf8c0a8f-8887-4c5d-a104-c3e3adfcf06d" class="f1aa1e3a-f3de-412f-b711-4b477b7e86f2" d="M58.7,85l.6-23.7a.9.9,0,0,1,.9-.9h0a.9.9,0,0,1,.9.9h0L61.9,85a1.7,1.7,0,0,1-3.3.1h0"/><path id="f7674b4d-7d0d-4d9c-9262-11d99d8668b8" data-name="a493dcf1-2a38-40e3-81d8-c5b7108e9475" class="f1aa1e3a-f3de-412f-b711-4b477b7e86f2" d="M63.7,76c0,1-1.5,1.8-3.4,1.8S57,77,57,76s1.5-1.8,3.3-1.8,3.4.8,3.4,1.8"/><path id="ab5a2645-0d8d-4175-9da5-dfb94647ada1" data-name="ea1bbfc6-3040-474f-ad53-ec486382a1cc" class="f1aa1e3a-f3de-412f-b711-4b477b7e86f2" d="M235.6,117.7a33.5,33.5,0,0,0-16.7,4,253.4,253.4,0,0,1,13.3-31.3c.9-1.7,1.6-3.1,2.1-3.9a4.1,4.1,0,0,1,.7-1.1l.7,1.1c.4.9,1.2,2.2,2.1,3.9a264.8,264.8,0,0,1,12.7,29.5,53.6,53.6,0,0,0-14.9-2.1"/><path id="b9af5a96-18e0-46df-8f24-c561447652d7" data-name="a2fd8cb7-d297-4ab2-a4e7-2efb273d909e" class="f1aa1e3a-f3de-412f-b711-4b477b7e86f2" d="M235.4,134.6a45.1,45.1,0,0,1,20.2,6.3l1.1-2.1c1.3,4.7,2.6,9.6,3.7,14.7-4.5-4.5-11.5-7.1-19.5-9.3s-11.2-3.5-11.2-6.1v-.3c0-1.9,1.9-3.2,5.6-3.2"/><path id="ea12f75e-d012-4b19-9498-40823b5811f5" data-name="fdc7a092-830d-42ec-b3fa-efc143b85fa9" class="f1aa1e3a-f3de-412f-b711-4b477b7e86f2" d="M206.3,176.7l-.7,1.2c.2-2,.4-3.8.7-5.7,1.1-7.7,2.5-15.1,4.2-22.1,3.8,6.7,12.1,9.8,21.9,12.4,7.2,2,11,3.2,11,5.8v.4c0,2.4-1.9,3.6-6,3.6a44,44,0,0,1-23.5-7.8Z"/><path id="eb646ca2-9ae7-4646-8a5d-0591401aa78c" data-name="ba07d2f7-9c22-474d-90e4-3688b2930250" class="f1aa1e3a-f3de-412f-b711-4b477b7e86f2" d="M265.7,191.7H204.4c0-1.4.1-2.8.2-4.1s.5-5.6.8-8.3l.9.6a54.3,54.3,0,0,0,17.6,7.7,59.6,59.6,0,0,0,13.3,1.5,45.6,45.6,0,0,0,11.6-1.5A21.5,21.5,0,0,0,264,174c.6,4.4,1.1,8.9,1.4,13.6l.3,4.1"/><path id="f079e351-fde0-4d44-bd56-8e7cb082f03a" data-name="ee47474b-8093-4a8d-9296-b401568edd15" class="f1aa1e3a-f3de-412f-b711-4b477b7e86f2" d="M240.8,85.3a5.8,5.8,0,0,1-5.8,5.8h0a5.8,5.8,0,0,1,0-11.6h0a5.8,5.8,0,0,1,5.8,5.8h0"/><path id="bcef5e3c-7406-41ec-a92a-e37f25b30125" data-name="e43419c4-4caf-442e-bd98-d0e1f1dc1364" class="f1aa1e3a-f3de-412f-b711-4b477b7e86f2" d="M233.4,85l.7-23.7a1.1,1.1,0,0,1,.9-.9h0a.9.9,0,0,1,.9.9l.7,23.7a1.6,1.6,0,0,1-1.5,1.7h0a1.7,1.7,0,0,1-1.7-1.6h0"/><path id="f118a16d-01e8-408e-8232-3e866ee89c33" data-name="ac34e414-b62b-4801-b436-8157559b02f5" class="f1aa1e3a-f3de-412f-b711-4b477b7e86f2" d="M238.4,76c0,1-1.5,1.8-3.4,1.8s-3.3-.8-3.3-1.8,1.5-1.8,3.3-1.8,3.4.8,3.4,1.8"/><path id="a3b5e2e7-cf1d-423e-99f5-d803ea63cdfe" data-name="a075a2a7-64fe-4171-b5ad-d8afc1a14de2" class="f1aa1e3a-f3de-412f-b711-4b477b7e86f2" d="M136.6,36.8c-6.4,9.8-13.4,23.9-14.9,39.8h51.9c-1.4-15.9-8.5-30-14.9-39.8Z"/><path id="a8d8c07d-a514-449e-ba60-668ce48df9fd" data-name="a2b20dc5-e89c-4123-a130-a8a1c991d55b" class="f1aa1e3a-f3de-412f-b711-4b477b7e86f2" d="M154,25.9c3-8.5-6.3-10.8-6.3-10.8s-9.1,2.2-6.3,10.8Z"/><path id="b2bde11f-75ef-4af7-926e-70a7a7ae826b" data-name="a8ddae58-564a-4131-af03-f69854dd87be" class="f1aa1e3a-f3de-412f-b711-4b477b7e86f2" d="M204.5,151.5a66.7,66.7,0,0,1-3.1-7.8v43.9H177.3V150.4c0-7.5-3.6-11.4-9.3-11.4s-9.9,3.9-9.9,11.4v37.2h-24V150.4c0-7.5-3.7-11.4-9.4-11.4s-9.7,3.9-9.7,11.4v37.2H91V151.5H89.1v40.2H206.3V179.8l-.9-.6-.5-.3.7-1.1.7-1.2V151.5ZM173.3,79.1H122.1c-6.9,3.4-14,22.1-20.1,40h12.9v9.4c4.5-5.7,10.7-10.9,20.4-10.9s16,4.1,19.7,11.2c5.9-6.7,12.9-11.2,22.9-11.2a23.3,23.3,0,0,1,16.8,6.2c-6.4-19.3-14-41-21.5-44.6"/><path id="abee538e-2fbb-417a-8f93-986f4b450fc4" data-name="a0210644-1453-4c7d-9dac-c1109e98d609" class="f1aa1e3a-f3de-412f-b711-4b477b7e86f2" d="M161,36.8a2.3,2.3,0,0,1-2.3,2.3h-22a2.4,2.4,0,0,1-2.1-2.6,2.3,2.3,0,0,1,2.1-2.1h21.9a2.3,2.3,0,0,1,2.4,2.2h0"/><path id="ef9138cd-d94a-4328-a3e7-1e9fbfbb4e3a" data-name="b464dae6-c5d4-4083-a42b-ebde5c45a98d" class="f1aa1e3a-f3de-412f-b711-4b477b7e86f2" d="M158.4,32.6a2.5,2.5,0,0,1-2.4,2.2H139.4a2.5,2.5,0,0,1-2.3-2.5,2.4,2.4,0,0,1,2.1-2.2H156a2.4,2.4,0,0,1,2.4,2.2h0"/><path id="ed423d94-bcbc-49d6-ac2f-3c29fc71964b" data-name="ac0d772e-123c-4c89-9760-c7003695ab6e" class="f1aa1e3a-f3de-412f-b711-4b477b7e86f2" d="M155.7,28.1a2.2,2.2,0,0,1-2.2,2.2H142a2.4,2.4,0,0,1-2.2-2.5,2.4,2.4,0,0,1,2.1-2.2h11.5a2.3,2.3,0,0,1,2.3,2.3h0"/><path id="b0b04f97-7c5e-450d-a1db-82e04995b1be" data-name="fd88ebcb-436d-4ebc-ab66-c4f33bb553aa" class="f1aa1e3a-f3de-412f-b711-4b477b7e86f2" d="M296.4,187.6v8.2H-.9v-8.2H224a60.5,60.5,0,0,0,13.4,1.5,45.6,45.6,0,0,0,11.6-1.5Z"/></g></svg>