<svg xmlns="http://www.w3.org/2000/svg" width="99.087" height="94.35" viewBox="0 0 99.087 94.35">
  <g id="Autodesk-Logo.wine" transform="translate(0 -0.001)" style="mix-blend-mode: normal;isolation: isolate">
    <path id="Path_364" data-name="Path 364" d="M113.576,163.657c-2.685,0-4.08-1.013-5.419-3.365l-12.235-22.68a5.649,5.649,0,0,1-.857-3.338l19.228.848,4.4,4.4h38.569L125.24,159.361c-1.561.923-7.5,4.3-11.663,4.3Z" transform="translate(-95.066 -69.305)" fill="#707070"/>
    <path id="Path_365" data-name="Path 365" d="M118.712,90.213H102.08c-5.024,0-7.015-2.627-7.015-5.248,0-1.659.534-2.563,1.272-4.406L120.575,22.7l.26-.508.336-.521.7-.68,1.024-.547,1.483-.327,2.552.066,16.843,6.26-5.7,17.96Z" transform="translate(-95.066 -19.996)" fill="#707070"/>
    <path id="Path_366" data-name="Path 366" d="M186.945,114.256,148.687,23.685c-.659-1.542-1.716-3.532-4.45-3.532a4.358,4.358,0,0,0-4.265,2.455,4.213,4.213,0,0,1,4.35-2.7h26.405a4.175,4.175,0,0,1,4.133,2.745l38.689,91.6Z" transform="translate(-114.462 -19.908)" fill="#707070" fill-rule="evenodd"/>
  </g>
</svg>
