<svg xmlns="http://www.w3.org/2000/svg" width="129.049" height="128.835" viewBox="0 0 129.049 128.835">
  <g id="Reliance_Jio_Logo__October_2015_" data-name="Reliance_Jio_Logo_(October_2015)" transform="translate(0 -0.001)">
    <path id="Path_340" data-name="Path 340" d="M72.661-882.738a8.739,8.739,0,0,1-1.619.221,7.648,7.648,0,0,0-1.619.221,6.493,6.493,0,0,1-1.236.221,66.54,66.54,0,0,0-9.906,2.591,2.231,2.231,0,0,1-.751.206.554.554,0,0,0-.4.132,1.163,1.163,0,0,1-.545.25,3.475,3.475,0,0,0-.707.206c-.118.059-.486.221-.81.353s-.78.353-1,.471a1.97,1.97,0,0,1-.692.206.707.707,0,0,0-.442.221.672.672,0,0,1-.442.221.673.673,0,0,0-.442.221.707.707,0,0,1-.456.221.9.9,0,0,0-.486.221.745.745,0,0,1-.442.221.43.43,0,0,0-.309.132,3.462,3.462,0,0,1-.854.53c-.412.206-.868.427-.986.515s-.81.471-1.546.9a9.323,9.323,0,0,0-1.369.9.248.248,0,0,1-.206.118,28.783,28.783,0,0,0-3.5,2.311,1.486,1.486,0,0,1-.471.339,6.759,6.759,0,0,0-1.56,1.192.294.294,0,0,1-.265.133c-.118,0-.206.059-.206.118a2.161,2.161,0,0,1-.648.589,37.1,37.1,0,0,0-4.578,4.224c-3.238,3.253-4.048,4.122-4.048,4.313a.219.219,0,0,1-.118.206,4.92,4.92,0,0,0-.692.78,8.051,8.051,0,0,1-.765.854.37.37,0,0,0-.191.265.768.768,0,0,1-.147.324,25.538,25.538,0,0,0-1.619,2.237,1.235,1.235,0,0,1-.265.383,3.046,3.046,0,0,0-.486.692,6.906,6.906,0,0,1-.574.912,11.01,11.01,0,0,0-.883,1.4c-.088.162-.28.486-.442.736a5.256,5.256,0,0,0-.427.765,1.417,1.417,0,0,1-.294.412.469.469,0,0,0-.162.383c0,.147-.059.28-.147.28s-.177.162-.236.368a1.159,1.159,0,0,1-.294.53.594.594,0,0,0-.206.427.673.673,0,0,1-.221.442.644.644,0,0,0-.221.4.751.751,0,0,1-.221.427.9.9,0,0,0-.221.486.707.707,0,0,1-.221.456.8.8,0,0,0-.221.53c0,.191-.059.353-.147.353s-.191.177-.236.4a2.831,2.831,0,0,1-.294.707,1.188,1.188,0,0,0-.206.6c0,.177-.074.353-.162.383a.522.522,0,0,0-.206.412,2.95,2.95,0,0,1-.28.81,1.9,1.9,0,0,0-.236.633,1.223,1.223,0,0,1-.132.442,59.584,59.584,0,0,0-2.3,8.052c-.132.648-.339,1.56-.456,2.017a7.278,7.278,0,0,0-.206,1.4,4.308,4.308,0,0,1-.162,1.074,13.491,13.491,0,0,0-.28,2.135c-.074.883-.206,2.075-.28,2.65a77.367,77.367,0,0,0,0,9.421c.074.486.191,1.6.265,2.5a12.106,12.106,0,0,0,.294,2.031,3.673,3.673,0,0,1,.162,1.075,8.425,8.425,0,0,0,.206,1.575c.118.5.324,1.443.456,2.09a63.723,63.723,0,0,0,1.943,6.948,2.555,2.555,0,0,1,.191.677,1.911,1.911,0,0,0,.221.633,2.085,2.085,0,0,1,.221.677c0,.147.074.265.147.265s.147.191.147.427a.9.9,0,0,0,.221.6,1.452,1.452,0,0,1,.309.677c.044.28.147.5.221.5s.132.162.132.353a.8.8,0,0,0,.221.53.707.707,0,0,1,.221.456.9.9,0,0,0,.221.486.818.818,0,0,1,.221.5.71.71,0,0,0,.221.471.673.673,0,0,1,.221.442.673.673,0,0,0,.221.442.71.71,0,0,1,.221.471.4.4,0,0,0,.221.353.422.422,0,0,1,.221.353.437.437,0,0,0,.162.368,1.42,1.42,0,0,1,.294.412,6.158,6.158,0,0,0,.427.766,6.066,6.066,0,0,1,.427.736,7.258,7.258,0,0,0,.486.81c.191.28.4.618.456.736.236.471,1.84,2.929,2.017,3.091.044.044.324.456.648.913a3.133,3.133,0,0,0,.692.854c.074,0,.132.088.132.177a2.113,2.113,0,0,0,.486.736c.25.294.574.677.692.854.662.957,8.066,8.537,8.346,8.537.088,0,.191.1.25.221a.352.352,0,0,0,.294.221.294.294,0,0,1,.265.132,64.046,64.046,0,0,0,6.536,4.725,4.626,4.626,0,0,1,.677.442,2.5,2.5,0,0,0,.81.442c.1,0,.191.059.191.118a2.9,2.9,0,0,0,.81.53,3.938,3.938,0,0,1,.883.545.54.54,0,0,0,.383.132c.147,0,.28.059.28.118a2.315,2.315,0,0,0,.81.486,2.489,2.489,0,0,1,.81.456c0,.074.074.118.162.118a25.116,25.116,0,0,1,2.826,1.266c.221.118.456.191.53.147s.206.015.309.132a.591.591,0,0,0,.353.221,16.367,16.367,0,0,1,2.223.809,76.768,76.768,0,0,0,8.39,2.429,6.224,6.224,0,0,1,1.148.28,3.918,3.918,0,0,0,1.119.162,1.708,1.708,0,0,1,.854.162,4.211,4.211,0,0,0,1.384.236,5.9,5.9,0,0,1,1.516.235,58.449,58.449,0,0,0,7.963.442,53.247,53.247,0,0,0,7.831-.456,3.465,3.465,0,0,1,1.251-.177,6.016,6.016,0,0,0,1.516-.221,4.264,4.264,0,0,1,1.222-.221,3.789,3.789,0,0,0,1.163-.221,2.946,2.946,0,0,1,.9-.221,5.391,5.391,0,0,0,1.119-.206c.412-.118,1.619-.456,2.664-.765a39.689,39.689,0,0,0,4.961-1.619,1.622,1.622,0,0,1,.662-.206,1.072,1.072,0,0,0,.545-.221,1.213,1.213,0,0,1,.589-.221,1.115,1.115,0,0,0,.589-.221,1.172,1.172,0,0,1,.559-.221c.147,0,.265-.073.265-.147a.151.151,0,0,1,.162-.147,37.291,37.291,0,0,0,4.4-2.046,6.228,6.228,0,0,1,.736-.427c.368-.191.868-.471,1.1-.618s.574-.353.736-.442.5-.28.736-.442a8.017,8.017,0,0,1,.78-.456c.177-.1.324-.235.324-.309a.135.135,0,0,1,.147-.118,19.064,19.064,0,0,0,2.8-1.84,24.615,24.615,0,0,0,2.576-1.914c.088-.088.442-.4.81-.677a37.457,37.457,0,0,0,4.328-4.063c3.5-3.5,4.063-4.107,4.063-4.284a.219.219,0,0,1,.118-.206,13.968,13.968,0,0,0,1.4-1.663c.059-.074.545-.751,1.06-1.472s1.148-1.6,1.384-1.943a2.81,2.81,0,0,0,.456-.78.148.148,0,0,1,.147-.147c.074,0,.177-.162.236-.368s.147-.368.221-.368.206-.147.28-.338a7.544,7.544,0,0,1,.442-.765,6.162,6.162,0,0,0,.427-.766,1.417,1.417,0,0,1,.294-.412.437.437,0,0,0,.162-.368.422.422,0,0,1,.221-.353.409.409,0,0,0,.221-.368.447.447,0,0,1,.221-.368.4.4,0,0,0,.221-.353.71.71,0,0,1,.221-.471.672.672,0,0,0,.221-.442.673.673,0,0,1,.221-.442.607.607,0,0,0,.221-.339,6.78,6.78,0,0,1,.456-1.119c.471-1.016.515-1.1,1.016-2.3.177-.412.368-.869.442-1.03.427-1.03,1.693-4.843,2.3-6.918.132-.486.339-1.177.442-1.531a4.4,4.4,0,0,0,.206-1.06,3.027,3.027,0,0,1,.221-.913,3.814,3.814,0,0,0,.221-1.192,2.757,2.757,0,0,1,.221-1.06,3.727,3.727,0,0,0,.221-1.325,2.367,2.367,0,0,1,.162-1.045,8.557,8.557,0,0,0,.294-2.061c.074-1.03.191-2.252.265-2.694a70.723,70.723,0,0,0,0-8.832c-.088-.442-.191-1.6-.265-2.576a10.189,10.189,0,0,0-.28-2.09,3.056,3.056,0,0,1-.177-1.148,4.49,4.49,0,0,0-.221-1.354,3.427,3.427,0,0,1-.221-1.1,3.591,3.591,0,0,0-.221-1.1,2.968,2.968,0,0,1-.221-.883,5.672,5.672,0,0,0-.206-1.06c-.118-.368-.324-1.045-.442-1.487a67.9,67.9,0,0,0-3.253-9.156,1.658,1.658,0,0,1-.221-.618c0-.132-.059-.235-.147-.235s-.147-.133-.147-.28a.8.8,0,0,0-.191-.486,1.454,1.454,0,0,1-.309-.6c-.044-.221-.162-.4-.236-.4s-.147-.132-.147-.28a.9.9,0,0,0-.221-.515.762.762,0,0,1-.221-.412.6.6,0,0,0-.162-.368,4.689,4.689,0,0,1-.736-1.266c-.088-.221-.221-.4-.294-.4s-.132-.132-.132-.294a.422.422,0,0,0-.206-.383.582.582,0,0,1-.294-.324,3.848,3.848,0,0,0-.383-.692,8.026,8.026,0,0,1-.456-.78c-.1-.177-.236-.324-.309-.324s-.118-.088-.118-.191a8.746,8.746,0,0,0-.957-1.5c-.515-.736-1.03-1.443-1.133-1.59-.191-.265-.53-.721-.854-1.089a.769.769,0,0,1-.147-.324.392.392,0,0,0-.177-.265,6.386,6.386,0,0,1-.78-.854,4.913,4.913,0,0,0-.692-.78.219.219,0,0,1-.118-.206,3.442,3.442,0,0,0-.618-.81c-1.339-1.4-5.373-5.387-5.991-5.9-.339-.294-.971-.839-1.4-1.178s-.927-.81-1.148-1a1.881,1.881,0,0,0-.471-.353,11.545,11.545,0,0,1-1.251-.854c-1.634-1.178-2.841-1.987-4.136-2.8-.618-.383-1.236-.78-1.4-.883s-.427-.25-.589-.324-.486-.28-.736-.442-.971-.559-1.619-.883-1.281-.662-1.4-.721c-.9-.486-1.178-.6-1.384-.6-.132,0-.236-.059-.236-.147s-.177-.191-.4-.236a2.268,2.268,0,0,1-.559-.206,2.146,2.146,0,0,0-.589-.206,1.171,1.171,0,0,1-.53-.25c-.044-.088-.265-.162-.486-.191a1.036,1.036,0,0,1-.559-.206.611.611,0,0,0-.383-.177,2.141,2.141,0,0,1-.662-.206,6.5,6.5,0,0,0-.765-.28c-.162-.044-.751-.25-1.325-.442a63.231,63.231,0,0,0-12-2.767A16.672,16.672,0,0,1,86.2-882.8,125.881,125.881,0,0,0,72.661-882.738Zm6.609,30.264a7.648,7.648,0,0,1,2.458,1.178,5.94,5.94,0,0,1,2.355,3.356,14.509,14.509,0,0,1-.015,4.916,6.925,6.925,0,0,1-4.269,4.445c-.633.235-1.133.28-3.533.28h-2.8l-1.1-.53a5.872,5.872,0,0,1-1.884-1.325,6.006,6.006,0,0,1-1.413-1.958,8.88,8.88,0,0,1,.162-7.139,8.359,8.359,0,0,1,2.679-2.65.684.684,0,0,0,.4-.147,2.842,2.842,0,0,1,.883-.353A25.565,25.565,0,0,1,79.27-852.474Zm-21.152,5.8a7.61,7.61,0,0,1,4.563,2.355,6.566,6.566,0,0,1,1.4,1.972l.412.824.044,14.425c.015,9.936-.015,14.749-.132,15.456a16,16,0,0,1-1.03,4.4.773.773,0,0,0-.132.427,1.691,1.691,0,0,1-.206.662c-.1.221-.442.9-.736,1.5a11.774,11.774,0,0,1-1.737,2.8,17.1,17.1,0,0,1-7.33,5.52,22.367,22.367,0,0,1-7.8,1.487c-5.564.309-11.687-1.5-14.764-4.342s-3.915-5.947-2.458-9.082a4.241,4.241,0,0,1,.6-1.06.231.231,0,0,0,.132-.206,17.145,17.145,0,0,1,2.4-2.944c1.443-1.4,1.678-1.428,2.547-.235a10.9,10.9,0,0,0,4.916,3.415,15.594,15.594,0,0,0,1.884.4,5.752,5.752,0,0,0,2.5-.044c1.928-.368,2.355-.559,3.268-1.443,1.133-1.1,1.443-1.84,1.619-3.96.074-.942.162-7.433.221-14.44.088-14.322,0-13.38,1.222-14.94a8.731,8.731,0,0,1,5.329-2.944A7.193,7.193,0,0,1,58.118-846.674Zm53.771,11.084a15.4,15.4,0,0,1,1.546.28c.28.088.913.28,1.4.412a20.582,20.582,0,0,1,12.423,10.3c.28.559.589,1.207.692,1.428a1.691,1.691,0,0,1,.206.662.68.68,0,0,0,.147.427,2.428,2.428,0,0,1,.28.795c.088.368.221.957.309,1.325a14.31,14.31,0,0,1,.545,3.827,15.018,15.018,0,0,1-.1,2.87c-.088.559-.221,1.369-.294,1.8a9.467,9.467,0,0,1-.28,1.251,24.757,24.757,0,0,1-1.663,4.313,22.394,22.394,0,0,1-6.874,7.448,20.849,20.849,0,0,1-3.945,2.046,2.4,2.4,0,0,0-.662.206,19.836,19.836,0,0,1-3.4.883,28.446,28.446,0,0,1-7.419,0,20.052,20.052,0,0,1-6.226-2.1,22.034,22.034,0,0,1-8.847-8.994c-.957-1.972-1.163-2.473-1.163-2.811a1.465,1.465,0,0,0-.177-.618,5.408,5.408,0,0,1-.294-1.06c-.059-.412-.177-1.03-.25-1.4a29.857,29.857,0,0,1,.074-6.771,19.46,19.46,0,0,1,.883-3.209A2.6,2.6,0,0,0,89-822.9a16.247,16.247,0,0,1,1.384-2.841,3.945,3.945,0,0,0,.383-.648,15.981,15.981,0,0,1,1.119-1.457,20.28,20.28,0,0,1,10.215-7.021c.442-.133,1.163-.339,1.6-.456a6.05,6.05,0,0,1,1.472-.25,7.061,7.061,0,0,0,1.119-.132A32.254,32.254,0,0,1,111.889-835.59Zm-32.751.81a6.807,6.807,0,0,1,4.946,4.651c.162.559.206,3.077.206,14.661,0,14.941.015,14.661-.736,16.118a9.684,9.684,0,0,1-2.34,2.576c-1.59.854-2.591,1.016-5.608.913-2.605-.088-3.121-.235-4.445-1.236a7.182,7.182,0,0,1-2.605-4.063c-.118-.486-.162-4.725-.162-14.234,0-14.661-.015-14.322.81-15.971a6.938,6.938,0,0,1,2.061-2.37c1.266-.942,2.34-1.207,5-1.207A18.831,18.831,0,0,1,79.137-834.781Z" transform="translate(-15.125 882.953)" fill="#bdbdbd"/>
    <path id="Path_341" data-name="Path 341" d="M603.8-479.6a6.084,6.084,0,0,0-2.164.78.612.612,0,0,1-.368.177,10.107,10.107,0,0,0-2.4,2.37,4.2,4.2,0,0,1-.28.574,9.356,9.356,0,0,0-.692,6.33,7.436,7.436,0,0,0,5.461,5.623,7.64,7.64,0,0,0,6.933-1.619,8.122,8.122,0,0,0,2.591-5.152,6.446,6.446,0,0,0-.059-2.591,7.319,7.319,0,0,0-2.252-4.431,6.739,6.739,0,0,0-3.827-2.075A6.025,6.025,0,0,0,603.8-479.6Z" transform="translate(-511.896 539.134)" fill="#bdbdbd"/>
  </g>
</svg>
