<svg xmlns="http://www.w3.org/2000/svg" width="171.512" height="76.106" viewBox="0 0 171.512 76.106">
  <g id="Macromedia-Logo.wine" transform="translate(0)" style="mix-blend-mode: normal;isolation: isolate">
    <path id="Path_367" data-name="Path 367" d="M21.873,76V68.379c0-2.687-1.045-5.534-5.168-5.534A5.6,5.6,0,0,0,11.642,65.4a4.75,4.75,0,0,0-4.49-2.559,5.777,5.777,0,0,0-4.7,2.219V62.949H0V76H2.453V67.726A4.076,4.076,0,0,1,6.5,64.777a3.414,3.414,0,0,1,3.393,3.679V76h2.323V68.456a3.688,3.688,0,0,1,3.863-3.679c2.427,0,3.367,1.644,3.367,3.757V76h2.427Zm17.983-.079V74.355c-.078.028-.73,0-.94,0-.6-.023-.836-.416-.836-1.461V67.177c0-2.975-2.115-4.357-5.872-4.357a5.144,5.144,0,0,0-.6.023V64.62h.5c2.583,0,3.472.86,3.472,1.983,0,.494-.522.965-3.967,1.306V69.4c.131,0,.234-.026.366-.026,1.957-.183,3.158-.494,3.706-.965-.027.732-.027,2.271-.1,3.211-.131,1.358-1.618,2.611-3.967,2.845v1.567A7.5,7.5,0,0,0,35.836,74.2,1.843,1.843,0,0,0,37.9,76.052c.653,0,1.436-.078,1.957-.131ZM31.608,62.844a7.652,7.652,0,0,0-5.794,2.689l1.409,1.175a5.548,5.548,0,0,1,4.385-2.088Zm0,5.066h-.183C28.215,68.2,25,69.006,25,72.191c0,2.452,1.723,3.915,5.012,3.915.522,0,1.07-.026,1.592-.078V74.461c-.261.026-.522.026-.809.026-2.3,0-3.262-.757-3.262-2.245,0-1.931,1.749-2.582,4.071-2.845Zm24.639,4.306-2.375-.393c-.887,1.853-2.323,2.531-4.515,2.531a4.564,4.564,0,0,1-4.8-4.828c0-3.263,2.062-4.958,4.776-4.958a4.569,4.569,0,0,1,4.438,2.454l2.453-.444c-.862-2.271-3.314-3.757-6.917-3.757-4.359,0-7.23,2.5-7.23,6.654,0,4.516,3.185,6.6,7.282,6.6,3.393,0,5.82-1.046,6.89-3.863Zm11.066-7.284V62.845h-.234A5.861,5.861,0,0,0,61.911,65.3V62.976H59.458V76h2.453V67.78A4.912,4.912,0,0,1,66.584,64.8,3.074,3.074,0,0,1,67.314,64.933Zm16.862,4.542c0-4.306-3.21-6.654-7.57-6.654h-.026v1.722h.026c2.583,0,5.116,1.512,5.116,4.933,0,2.949-1.932,4.88-5.116,4.88h-.026V76.1h.026C80.965,76.1,84.176,73.6,84.176,69.475Zm-7.6-6.654c-4.515,0-7.57,2.582-7.57,6.654,0,4.228,2.949,6.63,7.57,6.63v-1.75c-2.688,0-5.116-1.539-5.116-4.88a4.813,4.813,0,0,1,5.116-4.933ZM109.572,76V68.379c0-2.687-1.018-5.534-5.168-5.534A5.52,5.52,0,0,0,99.366,65.4a4.789,4.789,0,0,0-4.515-2.559,5.764,5.764,0,0,0-4.674,2.219V62.949H87.725V76h2.453V67.726a4.029,4.029,0,0,1,4.046-2.949,3.409,3.409,0,0,1,3.367,3.679V76h2.323V68.456a3.712,3.712,0,0,1,3.888-3.679c2.428,0,3.341,1.644,3.341,3.757V76h2.428Zm17.984-6.03c.026-4.594-2.793-7.128-7.308-7.151V64.49c2.453.026,4.41,1.123,4.829,3.967h-4.829v1.514h7.308ZM120.247,76.1c3.576,0,5.926-1.594,6.917-3.812l-2.375-.416c-.731,1.617-2.323,2.533-4.542,2.533Zm0-13.284h-.078c-4.02,0-7.256,2.582-7.256,6.471,0,4.569,2.975,6.813,7.282,6.813h.052v-1.7h-.052a4.491,4.491,0,0,1-4.829-4.438h4.881V68.456h-4.829a4.618,4.618,0,0,1,4.776-3.967h.052ZM144.573,76V57.312h-2.427v7.672a6.362,6.362,0,0,0-4.8-2.14v1.672h.131c2.453,0,4.49,1.669,4.646,3.341,0,.1.026.965.026,1.512,0,.576-.026,1.463-.026,1.567-.051,1.7-1.854,3.522-4.62,3.522h-.157v1.619c2.558-.078,4.176-1.175,4.829-2.193V76h2.4Zm-7.23-13.157h-.365c-3.759,0-6.891,2.4-6.891,6.6,0,4.281,2.951,6.63,6.944,6.63h.312V74.459a4.607,4.607,0,0,1-4.775-5.011,4.574,4.574,0,0,1,4.775-4.933Zm13.939-1.852v-2.5H148.75v2.5ZM151.255,76V62.949H148.8V76h2.454Zm17.983-.079V74.355c-.077.028-.73,0-.94,0-.6-.023-.835-.416-.835-1.461V67.177c0-2.975-2.115-4.357-5.873-4.357a4.919,4.919,0,0,0-.6.023V64.62h.5c2.583,0,3.471.86,3.471,1.983,0,.494-.522.965-3.967,1.306V69.4c.1,0,.235-.026.366-.026,1.956-.183,3.157-.494,3.705-.965-.026.732-.026,2.271-.1,3.211-.129,1.358-1.617,2.611-3.967,2.845v1.567a7.5,7.5,0,0,0,4.228-1.827,1.843,1.843,0,0,0,2.062,1.853c.655,0,1.438-.078,1.96-.131Zm-8.247-13.078a7.654,7.654,0,0,0-5.794,2.689l1.409,1.175a5.55,5.55,0,0,1,4.386-2.088V62.844Zm0,5.066h-.183c-3.21.286-6.42,1.1-6.42,4.281,0,2.452,1.722,3.915,5.011,3.915.522,0,1.07-.026,1.592-.078V74.461c-.26.026-.522.026-.809.026-2.3,0-3.263-.757-3.263-2.245,0-1.931,1.749-2.582,4.071-2.845V67.91ZM98.967,4.346a14.811,14.811,0,0,1,0,20.959L72.761,51.483A14.811,14.811,0,1,1,51.8,30.551l26.2-26.2a14.808,14.808,0,0,1,20.96,0Z" transform="translate(0 0)" fill="#707070" fill-rule="evenodd"/>
    <path id="Path_368" data-name="Path 368" d="M131.667,4.51l26.2,25.839a14.83,14.83,0,0,1-20.986,20.96L121.173,35.256l-15.74,16.053A14.811,14.811,0,1,1,84.5,30.349L110.682,4.51a14.837,14.837,0,0,1,20.985,0Z" transform="translate(9.295 0.019)" fill="#707070" fill-rule="evenodd"/>
    <text id="_" data-name="®" transform="translate(149.718 10.457)" fill="#707070" font-size="10" font-family="Myriad Pro"><tspan x="0" y="0">®</tspan></text>
  </g>
</svg>
