<svg xmlns="http://www.w3.org/2000/svg" width="264.216" height="56.894" viewBox="0 0 264.216 56.894">
  <g id="g1377" transform="translate(0 0.001)" style="mix-blend-mode: luminosity;isolation: isolate">
    <path id="path1363" d="M1318.818,718.5a12.371,12.371,0,0,0-12.589,12.626,12.884,12.884,0,0,0,3.527,9.024,12.4,12.4,0,0,0,8.948,3.678,12.371,12.371,0,0,0,12.588-12.626,12.886,12.886,0,0,0-3.526-9.024A12.623,12.623,0,0,0,1318.818,718.5Zm6.673,14.143a9.161,9.161,0,0,1-.379,1.365,7.242,7.242,0,0,1-.607,1.213,5.281,5.281,0,0,1-.8,1.024,10.447,10.447,0,0,1-.986.834,6.9,6.9,0,0,1-1.176.607,5.321,5.321,0,0,1-1.327.379,8.755,8.755,0,0,1-1.4.114,5.681,5.681,0,0,1-1.4-.152,7.637,7.637,0,0,1-1.327-.379,6.9,6.9,0,0,1-1.176-.607,6.76,6.76,0,0,1-.986-.834,5.286,5.286,0,0,1-.8-1.024,7.242,7.242,0,0,1-.607-1.213,6.123,6.123,0,0,1-.379-1.365,9.73,9.73,0,0,1-.114-1.479,6.531,6.531,0,0,1,.152-1.479,9.191,9.191,0,0,1,.379-1.365,7.283,7.283,0,0,1,.607-1.213,5.287,5.287,0,0,1,.8-1.024,10.4,10.4,0,0,1,.986-.834,6.89,6.89,0,0,1,1.175-.607,5.321,5.321,0,0,1,1.327-.379,8.751,8.751,0,0,1,1.4-.114,5.687,5.687,0,0,1,1.4.152,7.637,7.637,0,0,1,1.327.379,6.893,6.893,0,0,1,1.176.607,6.768,6.768,0,0,1,.986.834,5.282,5.282,0,0,1,.8,1.024,7.246,7.246,0,0,1,.607,1.213,6.111,6.111,0,0,1,.379,1.365,9.732,9.732,0,0,1,.114,1.479C1325.6,731.692,1325.567,732.147,1325.491,732.64Z" transform="translate(-1188.156 -702.298)" fill="#7d7d7d"/>
    <path id="path1365" d="M949.181,664.488a28.416,28.416,0,0,0-11.261-5.5,34.988,34.988,0,0,0-7.166-.91c-1.782-.076-3.6-.038-5.384-.038H899.851c-1.782,0-3.6,0-5.384.038a35.327,35.327,0,0,0-7.167.91,28.241,28.241,0,0,0,.038,54.98,34.983,34.983,0,0,0,7.166.91c1.782.076,3.6.038,5.384.038h25.518c1.782,0,3.6,0,5.384-.038a35.324,35.324,0,0,0,7.166-.91,28.231,28.231,0,0,0,11.223-49.482Zm-12.475,29.651a9.76,9.76,0,0,1-4.133,1.63,29.449,29.449,0,0,1-4.474.19H897.2a29.241,29.241,0,0,1-4.474-.19,9.569,9.569,0,0,1-4.133-1.63,9.308,9.308,0,0,1,0-15.318,9.76,9.76,0,0,1,4.133-1.63A29.456,29.456,0,0,1,897.2,677h30.9a29.251,29.251,0,0,1,4.474.19,9.571,9.571,0,0,1,4.133,1.63,9.335,9.335,0,0,1,4.019,7.659A9.144,9.144,0,0,1,936.706,694.139Z" transform="translate(-865.536 -658.033)" fill="#7d7d7d"/>
    <path id="path1367" d="M1686.681,731.684c0,.683,0,1.365-.038,2.01-.038.417-.076.872-.152,1.289a6.643,6.643,0,0,1-.834,2.237,5.806,5.806,0,0,1-4.854,2.541,5.282,5.282,0,0,1-4.815-2.5,7.162,7.162,0,0,1-.834-2.275,18.931,18.931,0,0,1-.265-3.261c0-.72-.038-1.4-.038-2.123v-9.4h-5.763v9.821c0,.948,0,1.9.038,2.844.038.683.038,1.4.114,2.085a13.83,13.83,0,0,0,1.175,4.74,9.671,9.671,0,0,0,7.773,5.233,12.314,12.314,0,0,0,4.854-.417,9.533,9.533,0,0,0,4.209-2.389c.038.758.114,1.593.152,2.351h5.043V720.2h-5.763Z" transform="translate(-1453.795 -703.541)" fill="#7d7d7d"/>
    <path id="path1369" d="M1794.494,731.949a8.126,8.126,0,0,0-5.043-4.626,25.864,25.864,0,0,0-3.716-1.062c-.569-.114-1.1-.228-1.668-.379a10.04,10.04,0,0,1-1.4-.455,3.609,3.609,0,0,1-1.327-.91,1.514,1.514,0,0,1-.379-1.251,2.121,2.121,0,0,1,.8-1.327,3.366,3.366,0,0,1,.948-.531,6.009,6.009,0,0,1,1.365-.341,8.687,8.687,0,0,1,2.806.152,12.117,12.117,0,0,1,3.906,1.593c.948-1.327,1.934-2.616,2.882-3.943a14.859,14.859,0,0,0-6.446-2.654,13.76,13.76,0,0,0-3.944-.038,11.382,11.382,0,0,0-2.957.8,8.1,8.1,0,0,0-3.261,2.389,6.928,6.928,0,0,0-1.365,2.616,6.169,6.169,0,0,0,1.858,6.408c1.782,1.555,4.323,2.123,6.484,2.578.759.152,1.517.3,2.275.531a7.318,7.318,0,0,1,1.782.72,3.55,3.55,0,0,1,1.1,1.024,1.947,1.947,0,0,1-.152,2.313,3.5,3.5,0,0,1-1.1.872,5.949,5.949,0,0,1-1.782.493,9.778,9.778,0,0,1-2.578-.038,12.434,12.434,0,0,1-6.408-2.73l-3.072,4.095a17.4,17.4,0,0,0,6.181,3.3,16.466,16.466,0,0,0,3.867.607,17.545,17.545,0,0,0,3.147-.19,10.791,10.791,0,0,0,3.83-1.365,8.548,8.548,0,0,0,2.237-1.972,7.485,7.485,0,0,0,1.479-3.526A6.852,6.852,0,0,0,1794.494,731.949Z" transform="translate(-1530.668 -700.507)" fill="#7d7d7d"/>
    <path id="path1371" d="M1430.093,737.829a7.91,7.91,0,0,1-4.095-.151,6.5,6.5,0,0,1-3.3-2.389,7.477,7.477,0,0,1-1.289-3.867,7.767,7.767,0,0,1,.834-4.019,5.844,5.844,0,0,1,3-2.73,7.037,7.037,0,0,1,1.744-.493,7.883,7.883,0,0,1,2.313-.038,8.884,8.884,0,0,1,3.867,1.441c1.175-1.479,2.313-2.958,3.488-4.4a12.922,12.922,0,0,0-6.787-2.768,13.776,13.776,0,0,0-7.28,1.176,11.777,11.777,0,0,0-5.308,5.043,14,14,0,0,0-1.555,7.2,13.208,13.208,0,0,0,2.313,6.977,11.456,11.456,0,0,0,5.877,4.361,13.859,13.859,0,0,0,7.356.417,12.61,12.61,0,0,0,6.446-3.526c-1.327-1.365-2.616-2.73-3.943-4.095a8.906,8.906,0,0,1-3.678,1.858Z" transform="translate(-1268.301 -702.178)" fill="#7d7d7d"/>
    <path id="rect1373" d="M1623.234,672.22h6.066v37.159h-6.066Z" transform="translate(-1420.227 -668.42)" fill="#7d7d7d"/>
    <path id="path1375" d="M1528.744,731.684c0,.683,0,1.365-.038,2.01-.038.417-.076.872-.152,1.289a6.644,6.644,0,0,1-.834,2.237,5.806,5.806,0,0,1-4.853,2.541,5.282,5.282,0,0,1-4.816-2.5,7.162,7.162,0,0,1-.834-2.275,18.907,18.907,0,0,1-.266-3.261c0-.72-.038-1.4-.038-2.123v-9.4h-5.763v9.821c0,.948,0,1.9.038,2.844.038.683.038,1.4.114,2.085a13.824,13.824,0,0,0,1.175,4.74,9.671,9.671,0,0,0,7.773,5.233,12.313,12.313,0,0,0,4.853-.417,9.533,9.533,0,0,0,4.209-2.389c.038.758.114,1.593.152,2.351h4.891V720.2h-5.612Z" transform="translate(-1338.174 -703.541)" fill="#7d7d7d"/>
  </g>
</svg>
