<svg xmlns="http://www.w3.org/2000/svg" xmlns:xlink="http://www.w3.org/1999/xlink" width="171.112" height="171.112" viewBox="0 0 171.112 171.112">
  <defs>
    <clipPath id="clip-path">
      <path id="Path_352" data-name="Path 352" d="M0-1365.33H171.112v171.112H0Z" transform="translate(0 1365.33)" fill="#7d7d7d"/>
    </clipPath>
  </defs>
  <g id="Unreal_Engine-Logo.wine" transform="translate(0 0.001)" style="mix-blend-mode: luminosity;isolation: isolate">
    <path id="Path_349" data-name="Path 349" d="M886.422,869.318V857.444h-4.494v15.384H897v-3.509Z" transform="translate(-748.28 -731.962)" fill="#7d7d7d"/>
    <g id="Group_219" data-name="Group 219" transform="translate(0 -0.001)" clip-path="url(#clip-path)">
      <path id="Path_350" data-name="Path 350" d="M244.714-1064.856h3.356c.083.885-.178,1.332-.9,1.4s-1.439.127-2.159.129c-2.992.007-3.312-.343-3.131-3.331,0-.055,0-.111.011-.166.112-1.114.522-1.536,1.639-1.588.861-.04,1.724-.014,2.586-.022.9-.007,1.755.056,1.973,1.107h2.205c.311-1.764-.267-2.725-1.962-2.824a57.306,57.306,0,0,0-6.566.014,2.259,2.259,0,0,0-2.307,2.385,32.717,32.717,0,0,0,0,3.749,2.278,2.278,0,0,0,1.995,2.326c.48.123.967.215,1.45.322h4.345c.349-.074.7-.153,1.048-.222.938-.185,1.861-.488,2.049-1.551a32.149,32.149,0,0,0,.258-3.261h-5.89Zm-17.278-10.6v-15.272h-4.415v11.663l-9.063-11.734H207.04v15.362h4.4v-11.422l.2-.052,8.964,11.454Zm7.95-7.625v-4.4h6.021c.278,0,.555.008.833.01,2.473.017,2.733.739,2.484,3.172a1.309,1.309,0,0,1-1.388,1.2c-2.629.045-5.258.018-7.95.018m9.432,5.582c.06.679.092,1.36.137,2.055h4.41c0-.962.037-1.848-.008-2.73-.1-1.94-.383-2.8-2.272-3.124a2,2,0,0,1-.419-.237,3.226,3.226,0,0,0,2.67-3.376,13.423,13.423,0,0,0-.081-2.5c-.268-2-1-2.786-2.968-3.156a17,17,0,0,0-2.982-.291c-3.813-.033-7.626-.015-11.439-.011-.3,0-.595.037-.943.06v15.354h4.434v-4.236c1.009,0,1.923-.018,2.836,0,1.612.04,3.232.014,4.831.189,1.309.143,1.678.676,1.794,1.994m12.22-4.137h11.494v-3.1H257.019v-2.771h12.174v-3.261H252.518v15.331H269.4v-3.374h-12.36Zm-53.324-8.7a1.56,1.56,0,0,0-.142-.453h-4.4c0,2.724.009,5.365-.006,8.006a21.391,21.391,0,0,1-.129,2.161,1.777,1.777,0,0,1-1.74,1.727,52.631,52.631,0,0,1-6.074.045c-1.624-.106-2.151-.835-2.17-2.489-.032-2.84-.017-5.681-.031-8.522a9.245,9.245,0,0,0-.1-.948h-4.4c0,3.818-.132,7.523.045,11.214.123,2.565,1.186,3.576,3.775,4.009a36.108,36.108,0,0,0,11.309.044c2.869-.427,3.842-1.492,3.969-4.356.154-3.474.078-6.959.091-10.439m74.849,8.918,3.261-6.41,3.3,6.41Zm.468-9.409-8.351,15.4H275.5l1.394-2.658h9.915l1.4,2.648h4.874l-8.4-15.386Zm-44.268,26.962-.206.049-5.016-6.467h-3.91v8.677h2.412v-6.331l.246-.087,5.061,6.431h3.9v-8.671h-2.49Zm31.414,0-.2.052-4.925-6.357h-3.894v8.543h2.469v-6.551l5.162,6.589h3.845v-8.554h-2.457Zm-49.336-1.217h6.546v-1.791h-6.546v-1.612h6.9v-1.809h-9.4v8.678h9.575v-1.844h-7.081Zm56.633,0H279.9v-1.745h-6.4v-1.61h6.779v-1.721h-9.331v8.539h9.482v-1.83h-6.955Zm-20.935,3.486h2.39v-8.554h-2.39Zm-38.953-81.462s-1.748-8.689,7.5-19.212,16.186-14.349,23.679-16.342l-.013.007.028-.007s-5.887,3.428-5.887,8.609a7.507,7.507,0,0,0,.572,3.228,1.94,1.94,0,0,0,1.766,1.232,3.982,3.982,0,0,0,1.506-.474v28.061a2.466,2.466,0,0,0,.478.989,3.864,3.864,0,0,0,3.231,1.721c2.946-.019,6.651-3.346,6.651-3.346v-22.72a7.752,7.752,0,0,0-3.407-6.059s.239-.015.626-.015c1.157,0,3.64.132,5.024,1.189a32.835,32.835,0,0,1,17.624-9.623l-.005.006.03-.006s-6.1,7.188-8.018,10.752c-.34.02-.39,6.763-.333,13.5.055,6.5.209,13,.3,13.453a2.776,2.776,0,0,0,2.31.976c1.871.01,5.024-1.2,9.966-6.4h0s-.13.3-.393.82c-1.416,2.83-6.68,12.319-16.029,17.834h0l-6.064-5.129-.155-.129-6.614,7.013h-.011s-15.078-1.275-21.376-10.363l.03.011-.008-.011a6.648,6.648,0,0,0,2.03.391,2.26,2.26,0,0,0,2.585-2.545V-1157a2.264,2.264,0,0,0-2.4-2.31c-1.483,0-3.612,1-6.519,3.984a44.987,44.987,0,0,0-8.688,12.277l0-.023-.01.023m33.495,36.22a43.744,43.744,0,0,0,31.136-12.9,43.745,43.745,0,0,0,12.9-31.136,43.745,43.745,0,0,0-12.9-31.136,43.744,43.744,0,0,0-31.136-12.9,43.744,43.744,0,0,0-31.136,12.9,43.745,43.745,0,0,0-12.9,31.136,43.745,43.745,0,0,0,12.9,31.136,43.744,43.744,0,0,0,31.136,12.9" transform="translate(-161.358 1216.258)" fill="#7d7d7d"/>
      <path id="Path_351" data-name="Path 351" d="M353.4-1220.21a46.06,46.06,0,0,1,46.06,46.06,46.06,46.06,0,0,1-46.06,46.06,46.06,46.06,0,0,1-46.06-46.06,46.06,46.06,0,0,1,46.06-46.06m0,93.43a47.059,47.059,0,0,0,33.5-13.875,47.059,47.059,0,0,0,13.874-33.5,47.06,47.06,0,0,0-13.874-33.5,47.06,47.06,0,0,0-33.5-13.874,47.059,47.059,0,0,0-33.5,13.874,47.061,47.061,0,0,0-13.874,33.5,47.06,47.06,0,0,0,13.874,33.5,47.059,47.059,0,0,0,33.5,13.874" transform="translate(-267.676 1239.543)" fill="#7d7d7d"/>
    </g>
  </g>
</svg>
