<svg xmlns="http://www.w3.org/2000/svg" width="244.217" height="64.758" viewBox="0 0 244.217 64.758">
  <g id="Vulkan__API_-Logo.wine" data-name="Vulkan_(API)-Logo.wine" transform="translate(0)" style="mix-blend-mode: normal;isolation: isolate">
    <path id="Path_353" data-name="Path 353" d="M1072.83,269.894h-1.592v4.166h-1.4v-4.166h-1.592v-1.2h4.6v1.2Zm.632-1.2h2.072l.916,3.577h.022l.916-3.577h2.072v5.366h-1.309v-4.079h-.022L1077,274.06h-1.069l-1.134-4.079h-.022v4.079h-1.309Z" transform="translate(-835.244 -210.087)" fill="#707070"/>
    <g id="Group_220" data-name="Group 220" transform="translate(0 0)">
      <path id="Path_354" data-name="Path 354" d="M262.947,133.59h-8.856V105.3a34.114,34.114,0,0,1,8.856,7.263Zm-74.662,0H177.248l-14.4-44.5h10.033l9.9,31.3h.131l10.033-31.3h10.1Zm44.431,0H224.3V129.1h-.2a9.863,9.863,0,0,1-4.362,4.057,12.921,12.921,0,0,1-5.475,1.243,15.2,15.2,0,0,1-5.824-.938,8.452,8.452,0,0,1-3.577-2.639,10.248,10.248,0,0,1-1.832-4.166,26.293,26.293,0,0,1-.523-5.453V101.374h8.856v18.191a11.322,11.322,0,0,0,1.243,5.955c.829,1.309,2.312,1.963,4.428,1.963,2.4,0,4.166-.72,5.235-2.159,1.091-1.44,1.614-3.8,1.614-7.067V101.374h8.856V133.59Zm43.951,0L264.408,114.2l-.022-1.243,11.168-11.6h10.47L273.875,113.2,287.4,133.59Zm12.345-22.314a10.338,10.338,0,0,1,1.57-5.169,10.5,10.5,0,0,1,3.49-3.294,15.238,15.238,0,0,1,4.777-1.767,27.346,27.346,0,0,1,5.322-.523,34.495,34.495,0,0,1,4.929.349,15.83,15.83,0,0,1,4.559,1.331,9.078,9.078,0,0,1,3.359,2.77,7.735,7.735,0,0,1,1.309,4.711v16.773a36.014,36.014,0,0,0,.24,4.166,7.625,7.625,0,0,0,.872,2.988h-8.986a12.133,12.133,0,0,1-.414-1.527,12.731,12.731,0,0,1-.218-1.592,11.544,11.544,0,0,1-4.995,3.054,19.813,19.813,0,0,1-5.867.872,15.984,15.984,0,0,1-4.3-.567,9.909,9.909,0,0,1-3.49-1.745,7.893,7.893,0,0,1-2.334-2.988,10,10,0,0,1-.851-4.3,9.489,9.489,0,0,1,.96-4.515,8.294,8.294,0,0,1,2.487-2.836,11.347,11.347,0,0,1,3.49-1.592c1.309-.349,2.617-.633,3.948-.851,1.33-.2,2.639-.371,3.926-.5a22.856,22.856,0,0,0,3.424-.567,5.872,5.872,0,0,0,2.378-1.091,2.38,2.38,0,0,0,.807-2.094,4.44,4.44,0,0,0-.48-2.268,3.272,3.272,0,0,0-1.243-1.309,5.085,5.085,0,0,0-1.81-.633,13.978,13.978,0,0,0-2.2-.153,6.8,6.8,0,0,0-4.122,1.112,4.982,4.982,0,0,0-1.745,3.73h-8.79Zm20.46,6.544a4.314,4.314,0,0,1-1.4.785,13.662,13.662,0,0,1-1.81.48c-.633.131-1.309.218-2.029.305-.7.087-1.418.2-2.116.305a16.209,16.209,0,0,0-1.963.5,5.528,5.528,0,0,0-1.68.851,3.991,3.991,0,0,0-1.156,1.331,4.391,4.391,0,0,0-.436,2.05,4.174,4.174,0,0,0,.436,1.985A3.349,3.349,0,0,0,298.5,127.7a5.371,5.371,0,0,0,1.745.654,10.709,10.709,0,0,0,2.05.2,7.786,7.786,0,0,0,4.057-.872,5.9,5.9,0,0,0,2.116-2.094,6.785,6.785,0,0,0,.851-2.465,15.839,15.839,0,0,0,.153-1.985Zm14.57-16.468h8.419v4.493h.2a10.041,10.041,0,0,1,4.362-4.079,12.66,12.66,0,0,1,5.475-1.287,15.166,15.166,0,0,1,5.824.96,8.715,8.715,0,0,1,3.577,2.683,10.247,10.247,0,0,1,1.832,4.166,26.292,26.292,0,0,1,.523,5.453v19.827H345.4V115.377a11.322,11.322,0,0,0-1.243-5.955c-.829-1.309-2.312-1.963-4.428-1.963q-3.6,0-5.235,2.159c-1.091,1.44-1.614,3.8-1.614,7.067v16.882H324.02V101.352ZM238.583,95.79v37.778h8.856V100.676Q243.152,98.059,238.583,95.79Z" transform="translate(-127.331 -69.661)" fill="#707070"/>
      <path id="Path_355" data-name="Path 355" d="M20.95,27.743C26.076,12.715,56.766,7.2,89.462,15.441c19.631,4.929,35.662,14.5,46.132,23.971-4.733-12.564-27.767-30.449-59.5-36.579C40.21-4.1,4.831,1.983.447,17.906-2.715,29.4,11.179,42.881,32.663,52.085,23,44.277,18.311,35.508,20.95,27.743Zm114.687,6.195V19.411h-8.856v4.406A49.4,49.4,0,0,1,135.637,33.938Z" transform="translate(0 0)" fill="#707070"/>
    </g>
  </g>
</svg>
