<svg id="fd8d59ce-feb1-4cd9-a745-a7bf51615ab9" data-name="Layer 1" xmlns="http://www.w3.org/2000/svg" xmlns:xlink="http://www.w3.org/1999/xlink" viewBox="0 0 295 295"><defs><style>.e04dfbeb-32c2-49e3-a8ba-259d09192af6{fill:none;}.a7dff498-9976-44f3-a718-ba03f24d3807{fill:#e18e3c;}.e3d29115-7386-48b9-8bef-74cd1c668ef2{clip-path:url(#ed53d255-0a68-49be-a8ad-1a7c9eee341c);}.f2ca4181-1728-46d1-9f98-6e6eb0e837c0{fill:#1a1818;}.a4af8e64-23f1-463f-9e68-46214a4117ce{fill:#fff;}</style><clipPath id="ed53d255-0a68-49be-a8ad-1a7c9eee341c"><rect class="e04dfbeb-32c2-49e3-a8ba-259d09192af6" x="33" width="229" height="295.04"/></clipPath></defs><rect class="e04dfbeb-32c2-49e3-a8ba-259d09192af6" width="295" height="295.04"/><g id="b641c9c8-5a62-4ee4-84bf-df353b13ee7e" data-name="Group 12"><rect id="a94a46cb-6f95-43e4-af15-7c3701b4eefc" data-name="Rectangle 10" class="a7dff498-9976-44f3-a718-ba03f24d3807" x="33" width="225.4" height="225.39"/><g id="b816c253-d277-45f5-9a2c-044b72eb67af" data-name="Group 9"><g class="e3d29115-7386-48b9-8bef-74cd1c668ef2"><g id="bcda3245-57e5-421e-a2a0-23fada557c58" data-name="Group 8"><g id="a86cd457-7fcd-4873-91ed-b720fe01b1dd" data-name="SCIENCE"><path class="f2ca4181-1728-46d1-9f98-6e6eb0e837c0" d="M63,247.6v5.9H45.8c-3,0-4.4,1.6-4.4,3.9s1.1,4,5,4h7.9c9.1,0,11.3,5,11.3,10s-3.1,9.9-10.7,9.9H36.2v-5.9H55.1c3.2,0,4.6-1.7,4.6-4.1s-1.1-4.2-5.3-4.2H46.6c-8.9,0-11-5-11-9.7s3-9.6,10.4-9.6Z"/><path class="f2ca4181-1728-46d1-9f98-6e6eb0e837c0" d="M98.8,247.6v5.9h-13c-6.4,0-9.3,3.2-9.3,10.9s2.8,10.9,9.3,10.9h13v5.9h-13c-9.8,0-15.1-5.6-15.1-16.8s5.4-16.8,15.1-16.8Z"/><path class="f2ca4181-1728-46d1-9f98-6e6eb0e837c0" d="M111.7,247.6v33.6h-5.9V247.6Z"/><path class="f2ca4181-1728-46d1-9f98-6e6eb0e837c0" d="M146.5,247.6v5.9H129.7c-3.5,0-4.9,1.6-4.9,4.2s1.7,4,5.1,4h16.3V267H129.6c-3.4,0-5.1,1.3-5.1,4.1s1.6,4.2,4.9,4.2h17v5.9h-17c-7.9,0-11.2-4-11.2-9.2a7.7,7.7,0,0,1,4.9-7.7,7.5,7.5,0,0,1-4.8-7.5c0-5.3,3.4-9.1,11.3-9.1Z"/><path class="f2ca4181-1728-46d1-9f98-6e6eb0e837c0" d="M160,281.2h-5.9V254.3c0-4.4,2.5-7.3,7.7-7.3s6.8,2.5,8.2,6.2l9.8,21.4a2,2,0,0,0,2.1,1.4,1.8,1.8,0,0,0,2-1.6V247.6h5.9v26.8a6.8,6.8,0,0,1-6.1,7.5h-1.6a7.9,7.9,0,0,1-8.2-6.2l-9.8-21.4a1.9,1.9,0,0,0-2.1-1.4,1.8,1.8,0,0,0-2,1.5v26.9Z"/><path class="f2ca4181-1728-46d1-9f98-6e6eb0e837c0" d="M224.8,247.6v5.9h-13c-6.5,0-9.3,3.2-9.3,10.9s2.8,10.9,9.3,10.9h13v5.9h-13c-9.8,0-15.2-5.6-15.2-16.8s5.5-16.8,15.2-16.8Z"/><path class="f2ca4181-1728-46d1-9f98-6e6eb0e837c0" d="M258.6,247.6v5.9H241.8c-3.6,0-5,1.6-5,4.2s1.7,4,5.1,4h16.5V267H241.8c-3.4,0-5.2,1.3-5.2,4.1s1.7,4.2,5,4.2h17v5.9h-17c-7.9,0-11.2-4-11.2-9.2a7.7,7.7,0,0,1,4.8-7.7,7.5,7.5,0,0,1-4.7-7.5c0-5.3,3.4-9.1,11.3-9.1Z"/></g></g></g></g><g id="e8c5d905-4e12-4145-b58e-eaa7bdf65b96" data-name="ims"><path class="a4af8e64-23f1-463f-9e68-46214a4117ce" d="M45.6,142.6V126.1H65.1v16.5Zm.5,72.4V149.7H64.6V215Z"/><path class="a4af8e64-23f1-463f-9e68-46214a4117ce" d="M163.1,215V178.7a14.8,14.8,0,0,0-2.8-10,9.8,9.8,0,0,0-8-3.3,10.5,10.5,0,0,0-8.2,3.3,14.5,14.5,0,0,0-3,10V215H122.6V178.7a16,16,0,0,0-2.8-10,10,10,0,0,0-8.1-3.3,10.5,10.5,0,0,0-8.2,3.3,14.5,14.5,0,0,0-3,10V215H82V149.7h18.5v9.4a45.5,45.5,0,0,1,3.5-4,27.2,27.2,0,0,1,4.2-3.4,18.7,18.7,0,0,1,5.2-2.3,24.2,24.2,0,0,1,17.5,1.8,17.8,17.8,0,0,1,7.2,7.7,30,30,0,0,1,9.6-7.7,25.9,25.9,0,0,1,11.9-2.7,21.7,21.7,0,0,1,16.2,6.1c3.9,4.1,5.8,10,5.8,17.9V215Z"/><path class="a4af8e64-23f1-463f-9e68-46214a4117ce" d="M243.6,204.6a17.4,17.4,0,0,1-5.2,6.5,21.9,21.9,0,0,1-8,3.8,32.6,32.6,0,0,1-9.8,1.3,45.9,45.9,0,0,1-28-9.9l7.9-12.2a43.8,43.8,0,0,0,10.6,5.8,28.7,28.7,0,0,0,10,2,11.1,11.1,0,0,0,5.9-1.3,4.4,4.4,0,0,0,1.9-3.6v-.2a3.6,3.6,0,0,0-1.1-2.5,11.7,11.7,0,0,0-3-1.9,31.2,31.2,0,0,0-4.3-1.5l-5.1-1.6a51.3,51.3,0,0,1-6.9-2.5,24.5,24.5,0,0,1-6.3-3.6,16.4,16.4,0,0,1-4.5-5.6,15.9,15.9,0,0,1-1.8-8v-.2a19.1,19.1,0,0,1,7-15.4,20.9,20.9,0,0,1,7.5-4,28.8,28.8,0,0,1,9.2-1.3,41,41,0,0,1,12.6,2,45.4,45.4,0,0,1,11.8,5.5L236.9,169a54.6,54.6,0,0,0-9.5-4.4,24.9,24.9,0,0,0-8.1-1.7,8.3,8.3,0,0,0-5.1,1.3,3.7,3.7,0,0,0-1.7,3.2v.3a2.9,2.9,0,0,0,1.1,2.5,12.1,12.1,0,0,0,2.9,1.9,37.9,37.9,0,0,0,4.2,1.8l5,1.7c2.2.7,4.6,1.6,6.9,2.6a28.2,28.2,0,0,1,6.3,3.7,18.7,18.7,0,0,1,4.7,5.4,15.5,15.5,0,0,1,1.8,7.6v.3A21.9,21.9,0,0,1,243.6,204.6Z"/></g></g></svg>