<svg id="Group_389" data-name="Group 389" xmlns="http://www.w3.org/2000/svg" xmlns:xlink="http://www.w3.org/1999/xlink" width="89.772" height="79.888" viewBox="0 0 89.772 79.888">
  <defs>
    <clipPath id="clip-path">
      <rect id="Rectangle_14" data-name="Rectangle 14" width="89.772" height="79.888" fill="none"/>
    </clipPath>
  </defs>
  <g id="Group_13" data-name="Group 13" clip-path="url(#clip-path)">
    <text id="HISTORY" transform="translate(1.491 73.002)" fill="#1e1e1e" font-size="17" font-family="MerriweatherUltraBold"><tspan x="0" y="0">HISTORY</tspan></text>
    <path id="Path_60" data-name="Path 60" d="M45.2,91.491c-.112-1.575-.279-3.122-.492-4.624a79.533,79.533,0,0,0-4.788-17.91c-.849-2.148-1.662-3.94-2.323-5.3-.269-.559-.517-1.048-.726-1.456-.272-.527-.489-.926-.632-1.18-.129-.231-.2-.349-.2-.349s-.07.119-.2.349c-.143.258-.36.657-.632,1.184-.213.409-.458.894-.726,1.453-.608,1.25-1.341,2.86-2.113,4.778a77.453,77.453,0,0,0-5.49,23.058c-.028.412-.056.824-.077,1.24H45.276c-.021-.416-.049-.828-.077-1.24M32.521,70.864h7.244V91.491H32.521Z" transform="translate(-17.44 -39.48)" fill="#e60019"/>
    <path id="Path_61" data-name="Path 61" d="M51.74,57.417A1.743,1.743,0,1,1,50,55.674a1.743,1.743,0,0,1,1.743,1.743" transform="translate(-31.401 -36.23)" fill="#e60019"/>
    <path id="Path_62" data-name="Path 62" d="M51.84,46.6l.221-7.116a.27.27,0,0,1,.54,0l.221,7.116a.491.491,0,1,1-.981.03c0-.01,0-.021,0-.03" transform="translate(-33.734 -25.523)" fill="#e60019"/>
    <path id="Path_63" data-name="Path 63" d="M52.38,51.629c0,.294-.448.532-1,.532s-1-.238-1-.532.448-.532,1-.532,1,.237,1,.532" transform="translate(-32.782 -33.251)" fill="#e60019"/>
    <path id="Path_64" data-name="Path 64" d="M195.15,70.441a10.264,10.264,0,0,0-5.05,1.184,77.325,77.325,0,0,1,4.048-9.426c.272-.527.489-.926.632-1.18.129-.231.2-.349.2-.349s.07.119.2.349c.143.258.36.657.632,1.184a76.324,76.324,0,0,1,3.852,8.871,16.857,16.857,0,0,0-4.512-.632" transform="translate(-123.707 -39.48)" fill="#e60019"/>
    <path id="Path_65" data-name="Path 65" d="M201.22,103.169a13.96,13.96,0,0,1,6.1,1.907l.339-.622c.395,1.4.772,2.881,1.111,4.415-1.331-1.348-3.454-2.123-5.871-2.8-2.172-.646-3.356-1.03-3.356-1.83v-.077c0-.569.573-.992,1.68-.992" transform="translate(-129.85 -67.137)" fill="#e60019"/>
    <path id="Path_66" data-name="Path 66" d="M178.84,124.6l-.22.356c.066-.573.14-1.139.22-1.7.325-2.326.758-4.558,1.257-6.667,1.16,2.036,3.674,2.969,6.629,3.741,2.176.611,3.318.953,3.318,1.753v.077c0,.726-.569,1.107-1.83,1.107a13.392,13.392,0,0,1-7.09-2.364Z" transform="translate(-116.236 -75.87)" fill="#e60019"/>
    <path id="Path_67" data-name="Path 67" d="M196.1,142.526H177.62c.021-.416.049-.828.077-1.24.059-.838.136-1.666.224-2.483.087.066.178.126.269.185a16.02,16.02,0,0,0,5.333,2.3,17.524,17.524,0,0,0,4,.458,12.5,12.5,0,0,0,3.5-.458,6.385,6.385,0,0,0,4.579-4.1c.178,1.338.321,2.7.419,4.1.028.412.056.824.077,1.24" transform="translate(-115.585 -89.275)" fill="#e60019"/>
    <path id="Path_68" data-name="Path 68" d="M202.569,57.417a1.743,1.743,0,1,1-1.743-1.743,1.743,1.743,0,0,1,1.743,1.743" transform="translate(-129.552 -36.23)" fill="#e60019"/>
    <path id="Path_69" data-name="Path 69" d="M202.668,46.6l.221-7.116a.27.27,0,0,1,.54,0l.221,7.116a.491.491,0,1,1-.981.03c0-.01,0-.021,0-.03" transform="translate(-131.885 -25.523)" fill="#e60019"/>
    <path id="Path_70" data-name="Path 70" d="M203.209,51.629c0,.294-.448.532-1,.532s-1-.238-1-.532.448-.532,1-.532,1,.237,1,.532" transform="translate(-130.933 -33.251)" fill="#e60019"/>
    <path id="Path_71" data-name="Path 71" d="M110.757,18.816a26.645,26.645,0,0,0-4.488,11.976h15.64a26.641,26.641,0,0,0-4.488-11.976Z" transform="translate(-69.154 -12.244)" fill="#e60019"/>
    <path id="Path_72" data-name="Path 72" d="M126.73,3.252C127.625.69,124.826,0,124.826,0s-2.731.656-1.9,3.252Z" transform="translate(-79.889)" fill="#e60019"/>
    <path id="Path_73" data-name="Path 73" d="M112.87,77.164a23.477,23.477,0,0,1-.943-2.35V88.029H104.68V76.818c0-2.249-1.1-3.43-2.822-3.43s-2.972,1.18-2.972,3.43V88.029H91.642V76.818c0-2.249-1.107-3.43-2.822-3.43s-2.937,1.18-2.937,3.43V88.029H78.639V77.1c-.01.021-.021.045-.031.066H78.07V89.269h35.338V85.731c-.091-.059-.182-.119-.269-.185-.052-.035-.1-.07-.157-.108l.206-.332.22-.356V77.164Zm-9.426-21.815H88.031c-2.092,1-4.219,6.639-6.028,12.053h3.88V70.22a7.577,7.577,0,0,1,6.14-3.28A6.328,6.328,0,0,1,97.971,70.3a8.677,8.677,0,0,1,6.9-3.356,6.908,6.908,0,0,1,5.057,1.858c-1.9-5.8-4.212-12.371-6.486-13.45" transform="translate(-50.804 -36.018)" fill="#e60019"/>
    <path id="Path_74" data-name="Path 74" d="M125.2,17.495a.709.709,0,0,1-.709.709h-6.6a.709.709,0,0,1,0-1.418h6.6a.708.708,0,0,1,.709.709" transform="translate(-76.256 -10.923)" fill="#e60019"/>
    <path id="Path_75" data-name="Path 75" d="M125.882,13.746a.708.708,0,0,1-.708.709h-5.017a.709.709,0,1,1,0-1.418h5.017a.709.709,0,0,1,.708.709" transform="translate(-77.73 -8.484)" fill="#e60019"/>
    <path id="Path_76" data-name="Path 76" d="M126.571,9.882a.708.708,0,0,1-.709.709H122.44a.709.709,0,1,1,0-1.418h3.422a.709.709,0,0,1,.709.709" transform="translate(-79.216 -5.969)" fill="#e60019"/>
    <path id="Path_77" data-name="Path 77" d="M90,148.919V151.4H.35v-2.483H68.165a17.525,17.525,0,0,0,4,.458,12.5,12.5,0,0,0,3.5-.458Z" transform="translate(-0.228 -96.908)" fill="#e60019"/>
  </g>
</svg>
