<svg id="Group_64" data-name="Group 64" xmlns="http://www.w3.org/2000/svg" xmlns:xlink="http://www.w3.org/1999/xlink" width="154.723" height="23.579" viewBox="0 0 154.723 23.579">
  <defs>
    <clipPath id="clip-path">
      <rect id="Rectangle_36" data-name="Rectangle 36" width="154.723" height="23.579" fill="none"/>
    </clipPath>
  </defs>
  <rect id="Rectangle_35" data-name="Rectangle 35" width="6.196" height="22.244" transform="translate(0 0.953)" fill="#dc7929"/>
  <path id="Path_192" data-name="Path 192" d="M43.4,3.587h6.515L55.224,12.2l5.307-8.612h6.514V25.831H60.912V13.056l-5.688,8.707H55.1L49.44,13.12V25.831H43.4Z" transform="translate(-31.867 -2.633)" fill="#dc7929"/>
  <g id="Group_63" data-name="Group 63" transform="translate(0 0)">
    <g id="Group_62" data-name="Group 62" transform="translate(0 0)" clip-path="url(#clip-path)">
      <path id="Path_193" data-name="Path 193" d="M145.631,21.472l3.432-4.1a11.459,11.459,0,0,0,7.214,2.669c1.652,0,2.542-.572,2.542-1.525v-.064c0-.922-.731-1.43-3.75-2.129-4.735-1.08-8.389-2.415-8.389-6.991V9.269c0-4.131,3.273-7.118,8.612-7.118a14,14,0,0,1,9.152,2.955L161.361,9.46a11.157,11.157,0,0,0-6.229-2.193c-1.494,0-2.225.635-2.225,1.43v.064c0,1.017.763,1.462,3.845,2.161,5.116,1.112,8.294,2.765,8.294,6.928v.064c0,4.544-3.591,7.245-8.993,7.245a15.538,15.538,0,0,1-10.423-3.686" transform="translate(-106.926 -1.579)" fill="#dc7929"/>
      <path id="Path_194" data-name="Path 194" d="M238.139,38.858a8.542,8.542,0,0,1-4.131.874,8.931,8.931,0,0,1-3.543-.7,8.561,8.561,0,0,1-4.656-4.687,8.809,8.809,0,0,1-.667-3.416v-.064a8.931,8.931,0,0,1,.667-3.432,8.828,8.828,0,0,1,1.843-2.828,8.571,8.571,0,0,1,2.812-1.907,9.089,9.089,0,0,1,3.607-.7,9.247,9.247,0,0,1,4,.763,8.992,8.992,0,0,1,2.8,2.1l-2.955,3.178a7.91,7.91,0,0,0-1.7-1.367,4.279,4.279,0,0,0-2.177-.508,3.749,3.749,0,0,0-1.668.365,4.132,4.132,0,0,0-1.3,1,4.55,4.55,0,0,0-.858,1.478,5.268,5.268,0,0,0-.3,1.8v.064a5.5,5.5,0,0,0,.3,1.843,4.357,4.357,0,0,0,.874,1.493,4.134,4.134,0,0,0,1.366,1,4.207,4.207,0,0,0,1.78.365,4.349,4.349,0,0,0,2.113-.493,8.9,8.9,0,0,0,1.8-1.319l2.828,2.86a10.858,10.858,0,0,1-2.828,2.24" transform="translate(-165.305 -16.153)" fill="#262626"/>
      <path id="Path_195" data-name="Path 195" d="M292.1,0h5.085V4.29H292.1Zm.127,6.165h4.83V23.2h-4.83Z" transform="translate(-214.467 0)" fill="#262626"/>
      <path id="Path_196" data-name="Path 196" d="M336.655,31.915q-.016.255-.047.6H324.755a4.066,4.066,0,0,0,1.446,2.494,4.325,4.325,0,0,0,2.717.842,5.384,5.384,0,0,0,2.161-.413,7.346,7.346,0,0,0,1.97-1.335l2.765,2.447a8.573,8.573,0,0,1-2.923,2.336,9.069,9.069,0,0,1-4.036.842,9.714,9.714,0,0,1-3.543-.635,8.2,8.2,0,0,1-2.828-1.812,8.377,8.377,0,0,1-1.859-2.781,9.223,9.223,0,0,1-.667-3.575v-.064a9.531,9.531,0,0,1,.62-3.432,8.719,8.719,0,0,1,1.732-2.828A8.077,8.077,0,0,1,328.377,22a8.3,8.3,0,0,1,3.686.763,7.5,7.5,0,0,1,2.59,2.05,8.535,8.535,0,0,1,1.525,2.955,12.228,12.228,0,0,1,.493,3.48v.064q0,.35-.016.6m-5.831-5.037a3.167,3.167,0,0,0-2.447-1,3.245,3.245,0,0,0-2.463.985,4.946,4.946,0,0,0-1.223,2.638h7.277a4.705,4.705,0,0,0-1.144-2.622" transform="translate(-234.92 -16.153)" fill="#262626"/>
      <path id="Path_197" data-name="Path 197" d="M402.348,39.351V29.873a3.822,3.822,0,0,0-.762-2.583,2.719,2.719,0,0,0-2.161-.872,2.869,2.869,0,0,0-2.209.872,3.671,3.671,0,0,0-.81,2.583v9.478h-4.83V22.319h4.83v2.435a10.363,10.363,0,0,1,.905-1.04,6.314,6.314,0,0,1,1.1-.88,5.437,5.437,0,0,1,1.335-.608A5.629,5.629,0,0,1,401.395,22a5.443,5.443,0,0,1,4.274,1.684,6.7,6.7,0,0,1,1.51,4.639V39.351Z" transform="translate(-287.506 -16.154)" fill="#262626"/>
      <path id="Path_198" data-name="Path 198" d="M471.169,38.858a8.544,8.544,0,0,1-4.131.874,8.932,8.932,0,0,1-3.543-.7,8.561,8.561,0,0,1-4.656-4.687,8.808,8.808,0,0,1-.667-3.416v-.064a8.93,8.93,0,0,1,.667-3.432,8.832,8.832,0,0,1,1.843-2.828,8.574,8.574,0,0,1,2.812-1.907A9.09,9.09,0,0,1,467.1,22a9.247,9.247,0,0,1,4,.763,8.992,8.992,0,0,1,2.8,2.1l-2.955,3.178a7.917,7.917,0,0,0-1.7-1.367,4.279,4.279,0,0,0-2.177-.508,3.747,3.747,0,0,0-1.668.365,4.129,4.129,0,0,0-1.3,1,4.556,4.556,0,0,0-.858,1.478,5.268,5.268,0,0,0-.3,1.8v.064a5.5,5.5,0,0,0,.3,1.843,4.365,4.365,0,0,0,.874,1.493,4.135,4.135,0,0,0,1.367,1,4.2,4.2,0,0,0,1.779.365,4.348,4.348,0,0,0,2.113-.493,8.9,8.9,0,0,0,1.8-1.319L474,36.618a10.861,10.861,0,0,1-2.828,2.24" transform="translate(-336.402 -16.153)" fill="#262626"/>
      <path id="Path_199" data-name="Path 199" d="M535.969,31.915q-.016.255-.047.6H524.069a4.066,4.066,0,0,0,1.446,2.494,4.325,4.325,0,0,0,2.717.842,5.384,5.384,0,0,0,2.161-.413,7.347,7.347,0,0,0,1.97-1.335l2.765,2.447A8.574,8.574,0,0,1,532.2,38.89a9.068,9.068,0,0,1-4.036.842,9.714,9.714,0,0,1-3.543-.635,8.2,8.2,0,0,1-2.828-1.812,8.376,8.376,0,0,1-1.859-2.781,9.222,9.222,0,0,1-.667-3.575v-.064a9.53,9.53,0,0,1,.62-3.432,8.72,8.72,0,0,1,1.732-2.828A8.077,8.077,0,0,1,527.691,22a8.3,8.3,0,0,1,3.686.763,7.5,7.5,0,0,1,2.59,2.05,8.536,8.536,0,0,1,1.525,2.955,12.23,12.23,0,0,1,.493,3.48v.064q0,.35-.016.6m-5.831-5.037a3.167,3.167,0,0,0-2.447-1,3.245,3.245,0,0,0-2.463.985,4.947,4.947,0,0,0-1.223,2.638h7.277a4.706,4.706,0,0,0-1.144-2.622" transform="translate(-381.262 -16.153)" fill="#262626"/>
    </g>
  </g>
</svg>
