<svg id="bca8ce71-abcc-4c55-a0b9-68d1fab66248" data-name="Layer 1" xmlns="http://www.w3.org/2000/svg" xmlns:xlink="http://www.w3.org/1999/xlink" viewBox="0 0 295 295"><defs><style>.e33d1667-b060-4662-810b-146a4fda9698{fill:none;}.e72475c7-f87e-4810-a923-762d5370898f{clip-path:url(#bfe493e9-ca14-4722-976f-763e0a096390);}.bbb6f97c-ca66-4c34-a425-20bc21aaebea{fill:#1a1818;}.aa5e8e62-6e2d-4db5-90e6-e910e0473a1d{clip-path:url(#bf37c283-2800-493c-8fe1-1f1d581168f9);}.b3911f4a-1464-43c6-a6e2-f3a7ebbc90f1{clip-path:url(#abf3c1ae-5837-4377-bf11-10e5ae1ee502);}.ba33ff03-28b1-4a65-bc97-e73d4ba00fa8{fill:#2cb6c7;}.fcee5318-2737-427f-8462-93b4fa4bc09b{clip-path:url(#adcc6c9a-4485-4518-b677-f24afbb0c544);}.b3a14a95-923d-42b6-bce7-1609aca93831{fill:#64c4d3;}.a0df0b46-9b05-4fb8-bde0-bfbb36fea302{clip-path:url(#abada7d4-7841-4574-9be5-7e4b1edd95ed);}.adf450f5-b235-4c29-8415-4afd263533c9{fill:#00b0c7;}.f0550b84-e6aa-4fa7-83c3-f0e2e77d9606{clip-path:url(#aeb7e04b-6ffa-420d-acb7-3b9034580200);}.e1f68ca6-a8c2-4302-aef3-7d92751a761e{fill:#6dc6cb;}.b5e86841-682f-4f90-9c22-483086665331{clip-path:url(#f350fb0b-b6cf-4075-b7de-6ec82a24ccc9);}.a38a4672-b0aa-4f81-b0e3-ed07ff33ebe0{clip-path:url(#a1e379d2-f541-47a5-8884-693c55c3b204);}.ecd1482c-1547-4621-99d0-a8a4f6323ca6{fill:url(#a9256bd2-f944-4755-b223-bf0635460836);}.f78ccdc1-73a6-4ad7-8e9b-bd305524e63c{clip-path:url(#ae7322e2-691f-46ee-b024-7a112993b7f3);}.af69187a-04f1-4e23-b236-06d3de210e1d{fill:#01aebd;}.e3c76518-93c3-4688-bd26-e3f515152a56{clip-path:url(#f4a93a3c-bd7a-40d8-8280-b41faa4cb3e9);}.fe3e0391-1ebd-4c0e-9680-fa00883f3303{clip-path:url(#ff65fe63-6e83-4ce6-ab70-3719f14e15d8);}.e4bd9fe9-f113-4d65-9438-a28c51e003a6{clip-path:url(#b66adee1-7f1c-45ab-8405-fd31aadd09bc);}.fbe4833f-a622-4229-947c-391dca8cf642{fill:url(#f4d7327b-f422-437a-ba7e-3416b5730f6d);}.fcd57679-d5ef-4dab-857b-45af239632eb{clip-path:url(#a1d86d81-7189-401e-98d6-90b82ddeee10);}.abcc51e3-975a-49d5-9629-7d17f41e661d{fill:url(#a56bbf5f-5d1b-4185-ae31-c2289d6bbc7f);}.ac651644-81fd-4888-998b-a9bc1336ad0e{clip-path:url(#f8c37f6e-3236-4fd1-b9a5-03f9e8c1b074);}.a3cefee1-5a90-4387-8a13-0ceaa3b9dcb0{fill:url(#acf15c5c-7fc7-4632-b2d3-dc0fa03518fa);}</style><clipPath id="bfe493e9-ca14-4722-976f-763e0a096390"><rect class="e33d1667-b060-4662-810b-146a4fda9698" y="106.6" width="295" height="81.92"/></clipPath><clipPath id="bf37c283-2800-493c-8fe1-1f1d581168f9"><rect class="e33d1667-b060-4662-810b-146a4fda9698" y="114.1" width="65.6" height="65.25"/></clipPath><clipPath id="abf3c1ae-5837-4377-bf11-10e5ae1ee502"><rect class="e33d1667-b060-4662-810b-146a4fda9698" x="1.2" y="118.1" width="59.1" height="49.55"/></clipPath><clipPath id="adcc6c9a-4485-4518-b677-f24afbb0c544"><rect class="e33d1667-b060-4662-810b-146a4fda9698" y="114.1" width="41.7" height="31.7"/></clipPath><clipPath id="abada7d4-7841-4574-9be5-7e4b1edd95ed"><rect class="e33d1667-b060-4662-810b-146a4fda9698" x="12.5" y="133" width="53.1" height="45.87"/></clipPath><clipPath id="aeb7e04b-6ffa-420d-acb7-3b9034580200"><rect class="e33d1667-b060-4662-810b-146a4fda9698" x="28.3" y="149.9" width="34.9" height="29.36"/></clipPath><clipPath id="f350fb0b-b6cf-4075-b7de-6ec82a24ccc9"><rect class="e33d1667-b060-4662-810b-146a4fda9698" x="1.7" y="120.9" width="60.2" height="50.81"/></clipPath><clipPath id="a1e379d2-f541-47a5-8884-693c55c3b204"><path class="e33d1667-b060-4662-810b-146a4fda9698" d="M52.8,120.9a1,1,0,0,0-.5-.4l.5.4"/></clipPath><radialGradient id="a9256bd2-f944-4755-b223-bf0635460836" cx="-295.56" cy="2949.42" r="125.72" gradientTransform="matrix(0.37, 0, 0, -0.37, 134.76, 1335.51)" gradientUnits="userSpaceOnUse"><stop offset="0" stop-color="#fff"/><stop offset="0.41" stop-color="#bbe4e9"/><stop offset="1" stop-color="#52bdc6"/></radialGradient><clipPath id="ae7322e2-691f-46ee-b024-7a112993b7f3"><rect class="e33d1667-b060-4662-810b-146a4fda9698" x="4.5" y="115.5" width="28" height="23.53"/></clipPath><clipPath id="f4a93a3c-bd7a-40d8-8280-b41faa4cb3e9"><rect class="e33d1667-b060-4662-810b-146a4fda9698" y="114.1" width="48.4" height="41.36"/></clipPath><clipPath id="ff65fe63-6e83-4ce6-ab70-3719f14e15d8"><rect class="e33d1667-b060-4662-810b-146a4fda9698" x="17.4" y="141" width="48.2" height="38.27"/></clipPath><clipPath id="b66adee1-7f1c-45ab-8405-fd31aadd09bc"><path class="e33d1667-b060-4662-810b-146a4fda9698" d="M40.8,178.7l.6-.2Zm18-12a36,36,0,0,1-17.4,11.8h.3a31.8,31.8,0,0,0,5.8-2.3l2.4-1.3,2.2-1.5,2.1-1.7,2.1-2,2.1-2.3a17,17,0,0,0,1.5-2.2l-1.1,1.6"/></clipPath><radialGradient id="f4d7327b-f422-437a-ba7e-3416b5730f6d" cx="-947.46" cy="-2433.83" r="4" gradientTransform="matrix(11.71, 0, 0, -11.72, 11115.83, -28280.86)" xlink:href="#a9256bd2-f944-4755-b223-bf0635460836"/><clipPath id="a1d86d81-7189-401e-98d6-90b82ddeee10"><path class="e33d1667-b060-4662-810b-146a4fda9698" d="M60.4,164.6h.1v-.2l-.2.3m.2-.3v0Z"/></clipPath><radialGradient id="a56bbf5f-5d1b-4185-ae31-c2289d6bbc7f" cx="-464.66" cy="2067.1" r="107.41" gradientTransform="matrix(0.44, 0, 0, -0.44, 243.58, 1134.83)" xlink:href="#a9256bd2-f944-4755-b223-bf0635460836"/><clipPath id="f8c37f6e-3236-4fd1-b9a5-03f9e8c1b074"><polyline class="e33d1667-b060-4662-810b-146a4fda9698" points="60 165.2 60.4 164.6 60 165.2"/></clipPath><radialGradient id="acf15c5c-7fc7-4632-b2d3-dc0fa03518fa" cx="-490.88" cy="1765.24" r="100.38" gradientTransform="matrix(0.47, 0, 0, -0.47, 269.13, 1056.15)" xlink:href="#a9256bd2-f944-4755-b223-bf0635460836"/></defs><rect class="e33d1667-b060-4662-810b-146a4fda9698" width="295" height="295.04"/><g id="b474a7ad-d1c9-4ca6-8a14-a963f4cdb19a" data-name="Group 61"><g id="bda1b397-6ec9-412a-a3fe-f47e253b3506" data-name="Group 39"><g class="e72475c7-f87e-4810-a923-762d5370898f"><g id="ff777a3c-50e4-44be-8ceb-6f6862ef08fa" data-name="Group 38"><g id="b187a598-1771-4af9-89f1-bc88043423cb" data-name="TV"><path class="bbb6f97c-ca66-4c34-a425-20bc21aaebea" d="M261.1,158v3.8h-6.3v18h-3.9v-18h-6.3V158Z"/><path class="bbb6f97c-ca66-4c34-a425-20bc21aaebea" d="M267.6,158l6.6,17.6a1.1,1.1,0,0,0,1.5.6.9.9,0,0,0,.6-.6l6.9-17.6h4.3l-7.7,19.4c-.8,2-2.3,2.8-4.6,2.8s-3.7-.7-4.6-2.8L263.3,158Z"/></g><g id="bdc8efe2-73bf-4b51-8d09-3713c5f88b9c" data-name="Group 34"><g id="a52b31f4-c66e-426f-b577-032bc736e3c8" data-name="Group 33"><g class="aa5e8e62-6e2d-4db5-90e6-e910e0473a1d"><g id="ba5e7de9-0178-4237-b0d2-0122c42db228" data-name="Group 32"><g id="fd453720-0f39-418f-9d2a-d118d3d32cea" data-name="Group 22"><g id="afb354ce-0ef2-4447-b25a-0936eb00a89b" data-name="Group 21"><g class="b3911f4a-1464-43c6-a6e2-f3a7ebbc90f1"><g id="aa146946-d250-4bb2-bdb9-152a7bed64f3" data-name="Group 20"><path id="f6f95a96-fb5e-4b5f-ab17-80d0617fe0e0" data-name="Path 179" class="ba33ff03-28b1-4a65-bc97-e73d4ba00fa8" d="M60.3,128.9l-1.1-1.4a30.7,30.7,0,0,0-4.1-4.7l-2.8-2.3a12.5,12.5,0,0,0-5.5-2.2c-11.3-1.8-28.7,7-38.7,19.5-6,7.5-8.1,14.7-6.4,19.6l.2.5a28.8,28.8,0,0,0,4.4,8.3l1,1.4c-4-5-2.4-13.8,5-23.2,10.4-13,28.3-22,40-20.1a10.9,10.9,0,0,1,7.9,4.6"/></g></g></g></g><g id="a233185c-5cfd-4560-8a97-ab4ad8a4c0bb" data-name="Group 25"><g id="bc1b35fa-1f7d-4133-a0d7-50d5128609c0" data-name="Group 24"><g class="fcee5318-2737-427f-8462-93b4fa4bc09b"><g id="a4867d0b-a4b2-40b6-919e-c9b6f8df1b47" data-name="Group 23"><path id="bdfd9cf3-c40e-4c4f-9984-199442773ed2" data-name="Path 180" class="b3a14a95-923d-42b6-bce7-1609aca93831" d="M41.7,115.3l-3.6-.8a27.3,27.3,0,0,0-5.7-.4c-8.4.1-19.5,6.2-26.3,14.7a25.7,25.7,0,0,0-4.4,7.7l-.2.7a35,35,0,0,0-1.3,5.6c0,.9-.2,2.1-.2,3,.2-4,2.2-8.7,6.1-13.7C15,121,30.3,113.3,40.3,115l1.4.3"/></g></g></g></g><g id="a2119950-d327-44d8-aaf9-929fd36c3c05" data-name="Group 28"><g id="ff19adf1-160e-4748-a040-19a99f5e4172" data-name="Group 27"><g class="a0df0b46-9b05-4fb8-bde0-bfbb36fea302"><g id="bc576477-8f1d-4773-b134-758d127cb8a7" data-name="Group 26"><path id="a639d117-aa92-4b6c-931d-296815e41e0e" data-name="Path 181" class="adf450f5-b235-4c29-8415-4afd263533c9" d="M65.5,149.8a56.1,56.1,0,0,0,0-5.8c-.1-.9-.3-2.1-.4-3-.7-4.1-3.7-6.9-8.7-7.7-10.9-1.8-27.6,6.6-37.2,18.7-8.4,10.4-8.8,20.2-1.8,23.8l3.8,1.8a29.6,29.6,0,0,0,4.5,1.3c-9-2-9.6-11.8-1.2-22.3S47.9,138.4,57.6,140c5.7.9,8.3,4.7,7.9,9.8"/></g></g></g></g><g id="ae12eb9b-7e42-4e6e-bb60-84612d1b1f7a" data-name="Group 31"><g id="b5d5ad36-1346-4a53-9d4c-1c7d82319184" data-name="Group 30"><g class="f0550b84-e6aa-4fa7-83c3-f0e2e77d9606"><g id="a9e06d6c-ab65-469b-8d2e-15a73cc92adc" data-name="Group 29"><path id="acaa4c42-0405-4af1-b9ad-4e701cbe5158" data-name="Path 182" class="e1f68ca6-a8c2-4302-aef3-7d92751a761e" d="M44.6,174.1c-2.6-.4-2.9-3.1-.5-6.1s6.4-4.9,9-4.5,2.9,3.2.5,6.1-6.3,4.9-9,4.5a22.3,22.3,0,0,1-10.3,5.1,17.7,17.7,0,0,0,6.5-.5l.9-.3,3.1-1,2.7-1.2,2.4-1.4,2.2-1.5,2.1-1.6,2.1-2a34.2,34.2,0,0,0,4.2-5.2l.2-.4c4.3-6.9,3.1-13-3.4-14s-18.2,4.4-24.6,12.4-5.8,15.5,1.4,16.6a22.4,22.4,0,0,0,10.4-5"/></g></g></g></g></g></g></g></g><g id="e10f06af-1a10-4c99-852c-7c3c84d5326c" data-name="Group 37"><g id="accd95bd-9517-4b1e-890b-9ca41a53db6c" data-name="Group 36"><g class="b5e86841-682f-4f90-9c22-483086665331"><g id="bc40ef71-ad9d-4893-856a-c5a9cf0d3dc6" data-name="Group 35"><path id="bb1bc35f-899e-4b0e-80be-5a924e31c94e" data-name="Path 183" class="ba33ff03-28b1-4a65-bc97-e73d4ba00fa8" d="M14.9,171.5c11.7,1.8,29.5-7.2,39.9-20.2,7-8.8,8.8-17.3,5.5-22.4l-1.1-1.4a30.7,30.7,0,0,0-4.1-4.7l-2.3-1.9c5.2,4.5,4.1,13.8-3.7,23.6C39.1,157,21.9,165.7,10.5,164h-.2c-4.6-.8-7.5-3.1-8.6-6.5v.4a34,34,0,0,0,4.5,8.4l1,1.3a11.3,11.3,0,0,0,7.4,3.9h.1"/></g></g></g></g></g></g></g><g id="ec9853c0-ac21-4e7c-b514-dea38003bf95" data-name="Group 41"><g class="a38a4672-b0aa-4f81-b0e3-ed07ff33ebe0"><g id="b922652d-e58b-4784-8d6a-6da7cfd0c77d" data-name="Group 40"><rect id="a547e1ec-5e0e-46fd-bcd3-db59d4d3028c" data-name="Rectangle 25" class="ecd1482c-1547-4621-99d0-a8a4f6323ca6" x="52.3" y="120.5" width="0.5" height="0.43"/></g></g></g><g id="aaf6710e-37e9-4530-84d7-53255de65663" data-name="Group 52"><g class="e72475c7-f87e-4810-a923-762d5370898f"><g id="a923e494-a281-4db9-ab4a-660ef0be39ad" data-name="Group 51"><g id="b95c568f-f80b-4f33-8ed4-aac5d2dcef2d" data-name="Group 44"><g id="a0b008f0-edf5-4807-878b-538bc468991e" data-name="Group 43"><g class="f78ccdc1-73a6-4ad7-8e9b-bd305524e63c"><g id="a0acf88b-eddb-4ed7-8979-94007e2ed872" data-name="Group 42"><path id="be51d05a-6c9a-43cd-a103-7ae6c2863166" data-name="Path 185" class="af69187a-04f1-4e23-b236-06d3de210e1d" d="M9.2,138.9h.1c5.7.9,14.5-3.6,19.6-10s4.7-12.4-1.1-13.3S13.2,119.1,8,125.5s-4.6,12.4,1.2,13.4M12,124.1c2.3-2.9,6.3-4.9,8.9-4.5s2.9,3.1.6,6-6.3,4.9-8.9,4.5h0c-2.6-.4-2.9-3.1-.5-6"/></g></g></g></g><g id="ec89db71-5539-4050-b464-3d83074dc43a" data-name="Group 47"><g id="b7514b8c-ff28-4586-b3c8-2e047c9eb5e3" data-name="Group 46"><g class="e3c76518-93c3-4688-bd26-e3f515152a56"><g id="edfe6a5b-9714-40f7-9db1-a2cf12efb4ea" data-name="Group 45"><path id="e6ce558e-9ebf-4636-a78f-fde23e5f155e" data-name="Path 186" class="b3a14a95-923d-42b6-bce7-1609aca93831" d="M8.1,155.2h.2c10,1.5,25.2-6.2,34-17.2s8.1-20.4-.6-22.7l-3.6-.8a36.6,36.6,0,0,0-5.7-.5l2.6.2c8.4,1.4,9.2,10.1,1.7,19.5S16.4,149.6,7.9,148.3H7.8c-6-1-8.1-5.8-6.1-11.8l-.2.7a35,35,0,0,0-1.3,5.6c-.1.9-.1,2.1-.2,3-.2,4.9,2.6,8.5,8.1,9.4"/></g></g></g></g><g id="a125ef3f-d61a-4c83-ba1b-a5a2f243b3df" data-name="Group 50"><g id="fb45ee35-d0c4-4ec5-a9a3-690b3d09c340" data-name="Group 49"><g class="fe3e0391-1ebd-4c0e-9680-fa00883f3303"><g id="f09883f1-2d31-4145-945b-9a95ff599838" data-name="Group 48"><path id="f561c5cf-7243-4397-a85d-d500a708564c" data-name="Path 187" class="adf450f5-b235-4c29-8415-4afd263533c9" d="M65.5,144c-.1-.9-.3-2.1-.4-3,.8,4.7-1.3,10.9-6.5,17.4-9.6,12-26.1,20.4-37,18.7h-.2a11.1,11.1,0,0,1-4-1.3l3.9,1.8a28.3,28.3,0,0,0,4.4,1.3l.7.2c-.5-.2-.3-.1.2,0,9.7,1.4,24.4-6,33-16.7,3.6-4.5,5.5-8.9,5.9-12.6a56.1,56.1,0,0,0,0-5.8"/></g></g></g></g></g></g></g><g id="a675edc8-795e-45a7-b18c-e0c94b42e623" data-name="Group 54"><g class="e4bd9fe9-f113-4d65-9438-a28c51e003a6"><g id="ba1dd41f-6cfe-43c0-8aab-49558b2544fc" data-name="Group 53"><rect id="b724398f-28a8-4777-8aca-7e82dbe4d451" data-name="Rectangle 30" class="fbe4833f-a622-4229-947c-391dca8cf642" x="40.8" y="165.2" width="19.2" height="13.52"/></g></g></g><g id="aaf55c0a-1042-4af4-8c1c-bf93235eb6ee" data-name="Group 56"><g class="fcd57679-d5ef-4dab-857b-45af239632eb"><g id="a348d0c6-d11e-4b91-81cb-cfcca7a0ebfb" data-name="Group 55"><rect id="fca67a5f-580f-4841-92bb-33ed4f8efcb0" data-name="Rectangle 31" class="abcc51e3-975a-49d5-9629-7d17f41e661d" x="60.4" y="164.1" width="0.3" height="0.51"/></g></g></g><g id="e5402c0c-8ab1-4ffe-a20b-33eccb0d5acc" data-name="Group 58"><g class="ac651644-81fd-4888-998b-a9bc1336ad0e"><g id="e6981a7a-5394-468d-a25b-ce4a5d02e085" data-name="Group 57"><rect id="a9c890be-9545-4061-ae3d-6902ff19c791" data-name="Rectangle 32" class="a3cefee1-5a90-4387-8a13-0ceaa3b9dcb0" x="60" y="164.6" width="0.4" height="0.54"/></g></g></g><g id="b53ed715-aaed-40d4-aedb-f99dab6c2c5b" data-name="Group 60"><g class="e72475c7-f87e-4810-a923-762d5370898f"><g id="a8f35571-6d3b-4414-8f35-58f78121515a" data-name="Group 59"><path id="a6ed86e4-6ea0-461e-9fa2-b1a05a7235f0" data-name="Path 191" class="bbb6f97c-ca66-4c34-a425-20bc21aaebea" d="M99.5,114.7l10.2,27.4a1.9,1.9,0,0,0,1.8,1.4,1.8,1.8,0,0,0,1.8-1.8h0V121.5c0-4.4,2.5-7.3,7.5-7.3s6.7,2.4,8.1,6.2l8.2,21.7a1.9,1.9,0,0,0,1.8,1.4,1.8,1.8,0,0,0,1.8-1.7V114.7h5.9v27.1c0,4.5-2.5,7.4-7.5,7.4s-6.7-2.4-8-6.2l-8.2-21.7a2,2,0,0,0-1.9-1.4,1.7,1.7,0,0,0-1.8,1.7v20.2c0,4.5-2.5,7.4-7.5,7.4s-6.7-2.4-8-6.2L93.2,114.7Zm74,0c9.8,0,15.3,5.7,15.3,17.1s-5.4,16.8-15.3,16.8h-4.6c-9.9,0-15.4-5.5-15.4-16.8s5.5-17.1,15.4-17.1Zm-4.6,6c-6.6,0-9.4,3.3-9.4,11.1s2.8,10.9,9.4,10.9h4.6c6.5,0,9.3-3.2,9.3-11s-2.8-11-9.3-11Zm45.2-6c7.6,0,10.9,4.8,10.9,10.2s-2,8.7-7.2,10.2l7.9,13.5h-6.6l-7.7-13.1h-8.9a.7.7,0,0,0-.8.7v12.4h-6V135.2c0-3.8,1.6-5.4,5.4-5.4h13.2a4.4,4.4,0,0,0,4.7-4h0v-.7c0-2.4-1.5-4.4-4.7-4.4H195.7v-6Zm22.4,0v22.2c0,3.2,1.6,5.8,6.9,5.8h13.1v5.9H243c-8.9,0-12.5-4.9-12.5-11.7V114.7Zm40.4,0c9.9,0,15.3,5.5,15.3,17s-5.3,16.9-15.3,16.9H265a2.4,2.4,0,0,1-2.9-2V117.5a2.5,2.5,0,0,1,2.1-2.8h12.7Zm-8.8,27.4c0,.5.2.6.6.6h8.2c6.6,0,9.3-3.3,9.3-11s-2.7-11-9.3-11h-8.2c-.4,0-.6.1-.6.6Z"/></g></g></g></g></svg>