<svg xmlns="http://www.w3.org/2000/svg" viewBox="0 0 60 60"><path d="M7,39H5V59a.9.9,0,0,0,1,1H23V58H7Z"/><path d="M7,2H43v9a.9.9,0,0,0,1,1h9V40h2V11a.4.4,0,0,0-.1-.3h0l-.2-.3L44.7.3,44.4.1H6A.9.9,0,0,0,5,1V17H7ZM45,3.4,51.6,10H45Z"/><rect x="10" y="5" width="2" height="2"/><rect x="10" y="9" width="14" height="2"/><rect x="10" y="13" width="14" height="2"/><rect x="14" y="5" width="2" height="2"/><rect x="18" y="5" width="2" height="2"/><path d="M34,35V27.4l5.7-5.7a.9.9,0,0,0,.2-1.1A.9.9,0,0,0,39,20H1a.9.9,0,0,0-1,1V35a.9.9,0,0,0,1,1H33A.9.9,0,0,0,34,35Zm-2-8v7H2V22H36.6l-4.3,4.3A.9.9,0,0,0,32,27Z"/><path d="M59,44H22a1,1,0,0,0-.9.6,1.1,1.1,0,0,0,.1,1.1L26,51.4V59a.9.9,0,0,0,1,1H59a.9.9,0,0,0,1-1V45A.9.9,0,0,0,59,44ZM58,58H27.9V51a1.4,1.4,0,0,0-.2-.6L24.1,46H58V58Z"/><rect x="4" y="25" width="2" height="2"/><rect x="8" y="25" width="2" height="2"/><rect x="12" y="25" width="18" height="2"/><rect x="4" y="29" width="2" height="2"/><rect x="8" y="29" width="22" height="2"/><rect x="30" y="49" width="2" height="2"/><rect x="34" y="49" width="22" height="2"/><rect x="30" y="53" width="2" height="2"/><rect x="34" y="53" width="2" height="2"/><rect x="38" y="53" width="18" height="2"/><rect x="42" y="22" width="8" height="2"/><rect x="40" y="26" width="10" height="2"/><rect x="36" y="30" width="14" height="2"/><rect x="36" y="34" width="14" height="2"/><rect x="9" y="54" width="2" height="2"/><rect x="13" y="54" width="2" height="2"/><rect x="17" y="54" width="2" height="2"/><rect x="9" y="50" width="2" height="2"/><rect x="13" y="50" width="2" height="2"/><rect x="9" y="46" width="2" height="2"/><rect x="9" y="42" width="2" height="2"/><rect x="13" y="46" width="2" height="2"/><rect x="17" y="50" width="2" height="2"/><rect x="21" y="54" width="2" height="2"/></svg>