<svg id="baf7074e-3bdc-46e2-94f2-7866811547dc" data-name="Layer 1" xmlns="http://www.w3.org/2000/svg" xmlns:xlink="http://www.w3.org/1999/xlink" viewBox="0 0 295 295"><defs><style>.bab15178-37f8-462f-8cbe-aaa7784e4550{fill:none;}.e6001dbe-689b-4b8f-8f56-54503c63b46f{clip-path:url(#b2b1fe37-d44d-4c01-88c0-a8950e411e68);}.ef9a887b-a6eb-47a9-a0ca-b10376cde28c{fill:#2e2e2e;}.f0ea68ee-250b-4b2c-ab62-497e233bab56{fill:#73b74f;}</style><clipPath id="b2b1fe37-d44d-4c01-88c0-a8950e411e68"><rect class="bab15178-37f8-462f-8cbe-aaa7784e4550" y="87.3" width="295" height="120.4"/></clipPath></defs><rect class="bab15178-37f8-462f-8cbe-aaa7784e4550" width="295" height="295.04"/><g class="e6001dbe-689b-4b8f-8f56-54503c63b46f"><g id="a874e22f-3217-41fc-aa51-ab62c0a2526b" data-name="life"><path class="ef9a887b-a6eb-47a9-a0ca-b10376cde28c" d="M172.3,191.4H158.7v-.6h1a2.1,2.1,0,0,0,1.5-.6,5,5,0,0,0,.2-2.1V163.8a7.7,7.7,0,0,0-.2-1.5q-.1-.6-1.5-.6h-1.5v-.7h11.3v27.2a6.4,6.4,0,0,0,.3,2c.2.3.6.5,1.5.6h1Z"/><path class="ef9a887b-a6eb-47a9-a0ca-b10376cde28c" d="M186.4,191.4H172.8v-.6h1a2.1,2.1,0,0,0,1.5-.6,5,5,0,0,0,.2-2.1V174.5a7.7,7.7,0,0,0-.2-1.5c-.1-.3-.6-.6-1.5-.6h-1.2v-.7h11.1v16.5a4.4,4.4,0,0,0,.2,2c.2.4.7.6,1.5.7h1Zm-10.9-26.8a3.6,3.6,0,0,1,1.1-2.8,4.2,4.2,0,0,1,2.9-1.2,4.2,4.2,0,0,1,3,1.2,3.6,3.6,0,0,1,1.2,2.8,4,4,0,0,1-1.2,2.8,4.4,4.4,0,0,1-5.9,0,3.7,3.7,0,0,1-1.1-2.8Z"/><path class="ef9a887b-a6eb-47a9-a0ca-b10376cde28c" d="M200.5,165.5a2.8,2.8,0,0,1,.8-2c.6-.6.8-1,.8-1.3a.8.8,0,0,0-.3-.8l-1.1-.2a2.2,2.2,0,0,0-2.1,1.7,15.4,15.4,0,0,0-.6,4.3v4.4h4.8l-.8,1.6h-4v14.9a6.9,6.9,0,0,0,.3,2c.1.3.6.5,1.4.6h1.5v.7h-14v-.7h1a2.1,2.1,0,0,0,1.5-.6,4.4,4.4,0,0,0,.2-2V173.2h-3l.6-1.6h2.4v-1.8c0-.6.1-1.1.1-1.3,0-2,1.1-3.8,3.4-5.5a13.1,13.1,0,0,1,7.7-2.5,10.6,10.6,0,0,1,5,1.2,3.8,3.8,0,0,1,2.3,3.5,3.1,3.1,0,0,1-1.3,2.5,4.2,4.2,0,0,1-5.4.1A3,3,0,0,1,200.5,165.5Z"/><path class="ef9a887b-a6eb-47a9-a0ca-b10376cde28c" d="M223.6,185.1a9.7,9.7,0,0,1-9.9,6.7,11.5,11.5,0,0,1-8.1-2.7,10.3,10.3,0,0,1-.3-14.6l.4-.4a11.1,11.1,0,0,1,7.9-2.9,9.8,9.8,0,0,1,7.4,2.7,9.6,9.6,0,0,1,2.5,6.6H210.7a15.6,15.6,0,0,0,.2,3.1,7.5,7.5,0,0,0,.9,3,5.5,5.5,0,0,0,1.8,2.4,4.5,4.5,0,0,0,3,.9,5.3,5.3,0,0,0,4-1.4,10,10,0,0,0,2.3-3.6Zm-7.4-5.4V177a10.3,10.3,0,0,0-.6-3.9,2.2,2.2,0,0,0-2.2-1.3,1.7,1.7,0,0,0-1.8,1.3,13.6,13.6,0,0,0-.8,3.9v2.7Z"/></g><g id="fdd7db8b-7862-4b98-9f06-b9ea1721afa6" data-name="ims-2"><path class="f0ea68ee-250b-4b2c-ab62-497e233bab56" d="M159.8,106.5V96h12.4v10.5Zm.3,45.9V111h11.8v41.4Z"/><path class="f0ea68ee-250b-4b2c-ab62-497e233bab56" d="M234.3,152.4v-23a9.3,9.3,0,0,0-1.7-6.3,6.3,6.3,0,0,0-5.1-2.1,6.7,6.7,0,0,0-5.3,2.1,9.4,9.4,0,0,0-1.9,6.3v23H208.5v-23a9.3,9.3,0,0,0-1.7-6.3,6.3,6.3,0,0,0-5.1-2.1,6.7,6.7,0,0,0-5.3,2.1,9.4,9.4,0,0,0-1.8,6.3v23H182.8V111h11.8v5.9a17.1,17.1,0,0,1,2.2-2.5,13.3,13.3,0,0,1,2.6-2.1,9.9,9.9,0,0,1,3.3-1.5,15.3,15.3,0,0,1,11.1,1.2,11.2,11.2,0,0,1,4.6,4.8,19,19,0,0,1,6-4.9,17.6,17.6,0,0,1,7.6-1.7,13.5,13.5,0,0,1,10.2,4c2.5,2.6,3.7,6.4,3.7,11.3v27Z"/><path class="f0ea68ee-250b-4b2c-ab62-497e233bab56" d="M285.4,145.8a11.2,11.2,0,0,1-3.4,4.1,15.7,15.7,0,0,1-5,2.5,25.7,25.7,0,0,1-6.2.8,29.5,29.5,0,0,1-17.8-6.3l5-7.7a29.9,29.9,0,0,0,6.8,3.7,16.8,16.8,0,0,0,6.3,1.2,6.7,6.7,0,0,0,3.7-.8A2.7,2.7,0,0,0,276,141h0a2,2,0,0,0-.7-1.6,4.7,4.7,0,0,0-1.9-1.2l-2.7-1-3.3-1-4.3-1.5a16.7,16.7,0,0,1-3.9-2.3,12.1,12.1,0,0,1-2.9-3.5,11.6,11.6,0,0,1-1.2-5.1v-.2a13.8,13.8,0,0,1,1.2-5.6,12,12,0,0,1,3.3-4.1,12.5,12.5,0,0,1,4.8-2.6,19.6,19.6,0,0,1,5.9-.9,31.1,31.1,0,0,1,8,1.3,29.5,29.5,0,0,1,7.4,3.5l-4.5,8.2a32.8,32.8,0,0,0-6-2.8,15.6,15.6,0,0,0-5.2-1.1,5.6,5.6,0,0,0-3.3.8,2.8,2.8,0,0,0-1,2.1h0a2,2,0,0,0,.7,1.6,5.7,5.7,0,0,0,1.8,1.2l2.6,1.1,3.2,1.1,4.4,1.6a21,21,0,0,1,4.1,2.4,13.7,13.7,0,0,1,2.9,3.4,9.3,9.3,0,0,1,1.1,4.9h0A13.6,13.6,0,0,1,285.4,145.8Z"/></g><path id="ef19024a-5285-4a5f-8d1a-6f10874ebf7d" data-name="Path 176" class="f0ea68ee-250b-4b2c-ab62-497e233bab56" d="M75.1,192.6h6.7a42.5,42.5,0,0,0,42.5-42.5h0V96.8h-6.7a42.5,42.5,0,0,0-42.5,42.5Z"/><path id="fc507321-36a9-471f-bd79-183a96d732c6" data-name="Path 177" class="f0ea68ee-250b-4b2c-ab62-497e233bab56" d="M70.8,152.9h0V128.1A31.3,31.3,0,0,0,39.5,96.8h0v24.8a31.3,31.3,0,0,0,31.3,31.3h0"/><path id="e9172ce9-135e-487b-8d1e-145ab95cbc80" data-name="Path 178" class="f0ea68ee-250b-4b2c-ab62-497e233bab56" d="M0,192.6H40.7a30.1,30.1,0,0,0,30.1-30.1h0v-4.7H30.2A30.1,30.1,0,0,0,.1,187.9h0Z"/></g></svg>