<svg xmlns="http://www.w3.org/2000/svg" viewBox="0 0 100 100"><path d="M8.7,3.3V96.7a3.2,3.2,0,0,0,3.2,3.2H88.1a3.2,3.2,0,0,0,3.2-3.2V3.3A3.3,3.3,0,0,0,88.1.1H11.9A3.3,3.3,0,0,0,8.7,3.3ZM87.1,95.7H12.9V4.3H87.1V95.7Z"/><path d="M80.7,10.3H19.3V36.4H80.7V10.3ZM76.5,32.2h-53V14.4h53Z"/><polygon points="33 45.6 28.9 45.6 28.9 52.2 22.2 52.2 22.2 56.4 28.9 56.4 28.9 63 33 63 33 56.4 39.7 56.4 39.7 52.2 33 52.2 33 45.6"/><rect x="22.2" y="82.6" width="17.5" height="4.16"/><rect x="60.3" y="82.6" width="17.5" height="4.16"/><rect x="60.3" y="73.1" width="17.5" height="4.16"/><polygon points="61.2 62.8 64.3 62.8 76.7 45.9 73.6 45.9 61.2 62.8"/><path d="M64.3,45.5a3.8,3.8,0,0,0-3.7,3.9,3.7,3.7,0,1,0,7.3,0A3.8,3.8,0,0,0,64.3,45.5Zm0,5.6a1.5,1.5,0,0,1-1.4-1.7,1.6,1.6,0,0,1,1.4-1.7c.7,0,1.3.8,1.3,1.7S65,51.1,64.3,51.1Z"/><path d="M70.2,59.2a3.9,3.9,0,0,0,3.7,3.9,3.8,3.8,0,0,0,3.6-3.9,3.7,3.7,0,0,0-3.6-3.9A3.8,3.8,0,0,0,70.2,59.2Zm5.1,0a1.7,1.7,0,0,1-1.4,1.7,1.6,1.6,0,0,1-1.4-1.7,1.5,1.5,0,0,1,1.4-1.7A1.6,1.6,0,0,1,75.3,59.2Z"/></svg>